<?xml version="1.0" encoding="utf-8"?>
<!-- Generator: Adobe Illustrator 20.1.0, SVG Export Plug-In . SVG Version: 6.00 Build 0)  -->
<svg version="1.1" id="Layer_1" xmlns="http://www.w3.org/2000/svg" xmlns:xlink="http://www.w3.org/1999/xlink" x="0px" y="0px"
	 viewBox="0 0 512 512" enable-background="new 0 0 512 512" xml:space="preserve">
<path fill="none" stroke="#FFFFFF" stroke-width="18" stroke-linecap="round" stroke-miterlimit="10" d="M-959.9,206.5
	c-11,0-19.9,8.9-19.9,19.9v-35c0-11-8.9-19.9-19.9-19.9c-11,0-19.9,8.9-19.9,19.9v-31.1c0-11-8.9-19.9-19.9-19.9
	s-19.9,8.9-19.9,19.9v40.1c0-11-8.9-19.9-19.9-19.9s-19.9,8.9-19.9,19.9v123.2c0,0.1,0,0.2,0,0.2V347l-45.6-40.2
	c-9.1-8.1-23.1-7.2-31.1,2c-8.1,9.1-7.2,23.1,2,31.1l83.2,77.8c6.5,6,11.6,11,17.6,16.4c7.1,6.5,15.4,11.7,24.5,15.2
	c1.4,0.7,2.9,1.2,4.5,1.6c7.7,2.5,15.9,3.8,24.4,3.8c43.9,0,79.5-35.6,79.5-79.5V226.4C-940,215.4-948.9,206.5-959.9,206.5z"/>
<line fill="none" stroke="#FFFFFF" stroke-width="18" stroke-linecap="round" stroke-miterlimit="10" x1="-1059.3" y1="200.3" x2="-1059.3" y2="292.3"/>
<line fill="none" stroke="#FFFFFF" stroke-width="18" stroke-linecap="round" stroke-miterlimit="10" x1="-1019.5" y1="191.3" x2="-1019.5" y2="298.3"/>
<line fill="none" stroke="#FFFFFF" stroke-width="18" stroke-linecap="round" stroke-miterlimit="10" x1="-979.8" y1="226.4" x2="-979.8" y2="304.3"/>
<circle fill="#FFFFFF" cx="-1020.5" cy="371.4" r="12"/>
<circle fill="none" stroke="#FFFFFF" stroke-width="18" stroke-linecap="round" stroke-miterlimit="10" cx="-1020.5" cy="371.4" r="37.2"/>
</svg>
