<?xml version="1.0" encoding="utf-8"?>
<!-- Generator: Adobe Illustrator 20.1.0, SVG Export Plug-In . SVG Version: 6.00 Build 0)  -->
<svg version="1.1" id="Слой_1" xmlns="http://www.w3.org/2000/svg" xmlns:xlink="http://www.w3.org/1999/xlink" x="0px" y="0px"
	 width="137px" height="139.3px" viewBox="0 0 137 139.3" enable-background="new 0 0 137 139.3" xml:space="preserve">
<path fill="none" stroke="#FFFFFF" stroke-width="7" stroke-miterlimit="10" d="M99.9,38.1c20,5.3,33.6,14.8,33.6,21.9
	c0,10.4-29.1,17.4-65,17.4s-65-7-65-17.4c0-7.1,13.6-16.6,33.6-21.9"/>
<path fill="none" stroke="#FFFFFF" stroke-width="7" stroke-miterlimit="10" d="M68.5,3.5c-17.3,0-31.4,14.1-31.4,31.4v12.6
	c0,3.5,14.1,7.5,31.4,7.5s31.4-4.1,31.4-7.5V34.9C99.9,17.6,85.8,3.5,68.5,3.5z"/>
<line fill="none" stroke="#FFFFFF" stroke-width="7" stroke-miterlimit="10" x1="19.7" y1="130.8" x2="40.8" y2="77"/>
<line fill="none" stroke="#FFFFFF" stroke-width="7" stroke-miterlimit="10" x1="96.2" y1="77" x2="117.3" y2="130.8"/>
<line fill="none" stroke="#FFFFFF" stroke-width="7" stroke-miterlimit="10" x1="56.8" y1="96.4" x2="53.5" y2="123.5"/>
<line fill="none" stroke="#FFFFFF" stroke-width="7" stroke-miterlimit="10" x1="77.5" y1="90.9" x2="82.9" y2="138.9"/>
</svg>
