<?xml version="1.0" encoding="utf-8"?>
<!-- Generator: Adobe Illustrator 20.1.0, SVG Export Plug-In . SVG Version: 6.00 Build 0)  -->
<svg version="1.1" id="Layer_1" xmlns="http://www.w3.org/2000/svg" xmlns:xlink="http://www.w3.org/1999/xlink" x="0px" y="0px"
	 viewBox="0 0 242.3 68.6" enable-background="new 0 0 242.3 68.6" xml:space="preserve">
<g>
	<path fill="#FFFFFF" d="M34.3,0C15.4,0,0,15.4,0,34.3c0,18.9,15.4,34.3,34.3,34.3c18.9,0,34.3-15.4,34.3-34.3
		C68.6,15.4,53.2,0,34.3,0z M34.3,54.1c-10.9,0-19.9-8.9-19.9-19.9c0-10.9,8.9-19.9,19.9-19.9c10.9,0,19.9,8.9,19.9,19.9
		C54.1,45.2,45.2,54.1,34.3,54.1z"/>
	<polygon fill="#FFFFFF" points="163.9,0.4 147.3,22.2 130.8,0.4 112.7,0.4 96.2,22.2 79.6,0.4 61.2,0.4 86.9,34.3 61.2,68.1 
		79.6,68.1 96.2,46.4 112.7,68.1 131.2,68.1 105.4,34.3 121.8,12.8 139.3,35.9 139.3,68.1 155.4,68.1 155.4,35.9 182.3,0.4 	"/>
	<path fill="#FFFFFF" d="M208,0c-18.9,0-34.3,15.4-34.3,34.3c0,18.9,15.4,34.3,34.3,34.3c18.9,0,34.3-15.4,34.3-34.3
		C242.3,15.4,226.9,0,208,0z M208,54.1c-10.9,0-19.9-8.9-19.9-19.9c0-10.9,8.9-19.9,19.9-19.9c10.9,0,19.9,8.9,19.9,19.9
		C227.8,45.2,218.9,54.1,208,54.1z"/>
</g>
</svg>
