<?xml version="1.0" encoding="utf-8"?>
<!-- Generator: Adobe Illustrator 20.1.0, SVG Export Plug-In . SVG Version: 6.00 Build 0)  -->
<svg version="1.1" id="Слой_2" xmlns="http://www.w3.org/2000/svg" xmlns:xlink="http://www.w3.org/1999/xlink" x="0px" y="0px"
	 viewBox="0 0 106.4 21.7" enable-background="new 0 0 106.4 21.7" xml:space="preserve">
<g>
	<path fill="ffffff" d="M95.8,8.6c-3.6-0.4-5.3-1-5.3-2.1c0-1.7,3.2-2.4,5-2.4c2.7,0,5.7,1.1,7.6,2.7l2.3-3.5
		C102.6,1.1,99.5,0,95.9,0c-5.4,0-9.5,2.4-9.5,6.5c0,2.4,1.3,5.5,9.1,6.2c5.3,0.5,6.8,1.2,6.8,2.3c0,1.2-2,2.6-6.1,2.6
		c-3.7,0-6.7-1.5-8.6-3.1L85.3,18c2,1.7,6.3,3.7,10.5,3.7c5.8,0,10.6-2.3,10.6-6.6C106.4,10,100.7,9.1,95.8,8.6z"/>
	<g>
		<path fill="#ffffff" d="M39.1,21.7c-2.9,0-5.4-0.8-7.3-2.2c-1.1-0.8-1.9-1.8-2.4-3c-0.6-1.2-0.9-2.6-0.9-4l0-12.2l4.1,0v12.2
			c0,1.6,0.6,2.8,1.7,3.7c1.2,0.9,2.9,1.4,4.8,1.4c2,0,3.7-0.5,4.8-1.4c1.1-0.9,1.7-2.1,1.7-3.7V0.2h4.1v12.2c0,1.5-0.3,2.8-0.9,4
			c-0.6,1.2-1.4,2.2-2.4,3C44.6,20.9,42,21.7,39.1,21.7z"/>
	</g>
	<polygon fill="#ffffff" points="75.1,21.5 80,21.5 73,10.9 80.1,0.2 75.1,0.2 69.5,8.8 62.9,8.8 62.9,0.2 58.8,0.2 58.8,21.5 
		62.9,21.5 62.9,12.9 69.5,12.9 	"/>
	<polygon fill="#ffffff" points="16.3,21.5 21.2,21.5 14.2,10.9 21.3,0.2 16.3,0.2 10.7,8.8 4.1,8.8 4.1,0.2 0,0.2 0,21.5 4.1,21.5 
		4.1,12.9 10.7,12.9 	"/>
</g>
</svg>
