<?xml version="1.0" encoding="utf-8"?>
<!-- Generator: Adobe Illustrator 20.1.0, SVG Export Plug-In . SVG Version: 6.00 Build 0)  -->
<svg version="1.1" id="Слой_1" xmlns="http://www.w3.org/2000/svg" xmlns:xlink="http://www.w3.org/1999/xlink" x="0px" y="0px"
	 viewBox="0 0 64.6 49.4" enable-background="new 0 0 64.6 49.4" xml:space="preserve">
<path fill="#FFFFFF" d="M63.9,0H51.8c-0.4,0-0.7,0.3-0.7,0.7v0.7h0c0,2.1,1.7,3.9,3.9,4.2h3.3v38.2h-2.7c0,0,0,0,0,0
	c-2.5,0-4.4,1.9-4.4,4.2h0v0.7c0,0.4,0.3,0.7,0.7,0.7h12.1c0.4,0,0.7-0.3,0.7-0.7v-48C64.6,0.3,64.3,0,63.9,0z"/>
<path fill="#FFFFFF" d="M21.5,35v-4.3l0,0V5.6h3.3c2.2-0.3,3.9-2,3.9-4.2c0,0,0,0,0,0V0.7C28.7,0.3,28.4,0,28,0H15.9
	c-0.1,0-0.2,0-0.2,0c-0.3,0.1-0.4,0.3-0.4,0.6v32.5l-15,15C0,48.4-0.1,48.7,0.1,49c0.1,0.3,0.3,0.4,0.6,0.4H28
	c0.4,0,0.7-0.3,0.7-0.7V48c0,0,0,0,0,0c0-2.3-2-4.2-4.5-4.2c0,0,0,0,0,0H13.3l8-8.2C21.4,35.4,21.5,35.2,21.5,35z"/>
</svg>
