<?xml version="1.0" encoding="utf-8"?>
<!-- Generator: Adobe Illustrator 20.1.0, SVG Export Plug-In . SVG Version: 6.00 Build 0)  -->
<svg version="1.1" id="Режим_изоляции"
	 xmlns="http://www.w3.org/2000/svg" xmlns:xlink="http://www.w3.org/1999/xlink" x="0px" y="0px" viewBox="0 0 374.8 182.3"
	 enable-background="new 0 0 374.8 182.3" xml:space="preserve">
<g>
	<g>
		<g>
			<path fill="#FFFFFF" d="M283.6,182.8c-50.5,0-91.6-41.1-91.6-91.6c0-50.5,41.1-91.6,91.6-91.6s91.6,41.1,91.6,91.6
				C375.3,141.7,334.2,182.8,283.6,182.8z M283.6,25.2c-36.4,0-66,29.6-66,66s29.6,66,66,66c36.4,0,66-29.6,66-66
				S320,25.2,283.6,25.2z"/>
		</g>
		<g>
			<path fill="#FFFFFF" d="M283.6,0c50.2,0,91.1,40.9,91.1,91.1c0,50.2-40.9,91.1-91.1,91.1c-50.2,0-91.1-40.9-91.1-91.1
				C192.5,40.9,233.4,0,283.6,0 M283.6,157.6c36.6,0,66.5-29.8,66.5-66.5c0-36.6-29.8-66.5-66.5-66.5s-66.5,29.8-66.5,66.5
				C217.2,127.8,247,157.6,283.6,157.6 M283.6-1c-50.8,0-92.1,41.3-92.1,92.1c0,50.8,41.3,92.1,92.1,92.1
				c50.8,0,92.1-41.3,92.1-92.1C375.8,40.3,334.4-1,283.6-1L283.6-1z M283.6,156.6c-36.1,0-65.5-29.4-65.5-65.5
				c0-36.1,29.4-65.5,65.5-65.5c36.1,0,65.5,29.4,65.5,65.5C349.1,127.2,319.7,156.6,283.6,156.6L283.6,156.6z"/>
		</g>
	</g>
</g>
<g>
	<g>
		<path fill="#FFFFFF" d="M283.1,132.3c-22.7,0-41.2-18.5-41.2-41.2c0-22.7,18.5-41.2,41.2-41.2c22.7,0,41.2,18.5,41.2,41.2
			C324.3,113.9,305.8,132.3,283.1,132.3z M283.1,74.6c-9.1,0-16.5,7.4-16.5,16.5c0,9.1,7.4,16.5,16.5,16.5c9.1,0,16.5-7.4,16.5-16.5
			C299.6,82,292.2,74.6,283.1,74.6z"/>
		<path fill="#FFFFFF" d="M283.1,132.8c-23,0-41.7-18.7-41.7-41.7c0-23,18.7-41.7,41.7-41.7c23,0,41.7,18.7,41.7,41.7
			C324.8,114.1,306.1,132.8,283.1,132.8z M283.1,50.4c-22.5,0-40.7,18.3-40.7,40.7c0,22.4,18.3,40.7,40.7,40.7
			c22.5,0,40.7-18.3,40.7-40.7C323.8,68.7,305.5,50.4,283.1,50.4z M283.1,108.2c-9.4,0-17-7.6-17-17c0-9.4,7.6-17,17-17
			c9.4,0,17,7.6,17,17C300.1,100.5,292.5,108.2,283.1,108.2z M283.1,75.1c-8.8,0-16,7.2-16,16c0,8.8,7.2,16,16,16
			c8.8,0,16-7.2,16-16C299.1,82.3,291.9,75.1,283.1,75.1z"/>
	</g>
</g>
<g>
	<g>
		<path fill="#FFFFFF" d="M157.2,178.8c-13.7,0-26.9-4.3-38-12.5c-28.6-21-34.8-61.3-13.8-89.9l53.6-73h31.9l-34.4,46.8
			c0.3,0,0.5,0,0.8,0c10.8,0,21.5,2.8,31,8l0.4,0.2l-0.1,0.4c-2.9,8.5-4.6,17.3-5.1,26.2l-0.1,1l-0.8-0.7c-0.8-0.7-1.6-1.4-2.4-1.9
			c-6.7-4.9-14.6-7.5-22.8-7.5c-12.3,0-23.9,5.9-31.2,15.8c-12.6,17.2-8.9,41.4,8.3,54c6.7,4.9,14.6,7.5,22.8,7.5
			c12.3,0,23.9-5.9,31.2-15.8c1-1.4,2-3,2.9-4.6l0.5-0.9l0.4,0.9c3.7,8.2,8.4,15.8,14.1,22.7l0.3,0.3l-0.3,0.3
			C194,170.6,176.1,178.8,157.2,178.8z"/>
	</g>
	<g>
		<g>
			<path fill="#FFFFFF" d="M189.9,3.9l-34.4,46.8c0.6,0,1.2-0.1,1.8-0.1c10.9,0,21.3,2.7,30.7,7.9c-2.8,8.4-4.6,17.2-5.2,26.3
				c-0.8-0.7-1.6-1.3-2.5-2c-6.8-5-14.8-7.6-23.1-7.6c-12.4,0-24.2,6-31.6,16c-12.8,17.4-9,41.9,8.4,54.7c6.8,5,14.8,7.6,23.1,7.6
				c12.4,0,24.2-6,31.6-16c1.1-1.5,2.1-3,2.9-4.6c3.7,8.2,8.5,15.9,14.2,22.8c-12.1,14.2-29.9,22.5-48.6,22.5
				c-13.6,0-26.7-4.3-37.7-12.4c-28.4-20.8-34.5-60.8-13.7-89.2l53.5-72.8H189.9 M191.9,2.9h-2h-30.6h-0.5l-0.3,0.4L105,76.2
				c-21.1,28.8-14.9,69.4,13.9,90.6c11.2,8.2,24.4,12.6,38.3,12.6c19,0,37-8.3,49.4-22.8l0.5-0.6l-0.5-0.6
				c-5.6-6.8-10.3-14.4-14-22.5l-0.8-1.8l-1,1.8c-0.8,1.6-1.8,3.1-2.8,4.5c-7.2,9.7-18.7,15.6-30.8,15.6c-8.1,0-15.9-2.6-22.5-7.4
				c-16.9-12.4-20.6-36.3-8.2-53.3c7.2-9.7,18.7-15.6,30.8-15.6c8.1,0,15.9,2.6,22.5,7.4c0.8,0.6,1.6,1.2,2.4,1.9l1.5,1.3l0.1-2
				c0.5-8.9,2.3-17.6,5.1-26.1l0.3-0.8l-0.7-0.4c-9.4-5.2-20.1-8-31-8l33.2-45.2L191.9,2.9L191.9,2.9z"/>
		</g>
	</g>
</g>
<g>
	<g>
		<path fill="#FFFFFF" stroke="#FFFFFF" stroke-miterlimit="10" d="M88,89.6c-2.1-2.5-4.4-4.7-7-6.6c-6.8-5-14.4-7.6-21.9-7.6h-24
			L69.5,28H18.1L0.1,3.3h118.3L80.7,54.5c5.3,2,10.3,4.8,14.9,8.2c1.8,1.3,3.5,2.7,5.1,4.2l0.3,0.3l-1.5,2.1
			c-4.6,6.2-8.1,13-10.6,20.3l-0.3,0.8L88,89.6z"/>
	</g>
	<g>
		<g>
			<path fill="#FFFFFF" stroke="#FFFFFF" stroke-miterlimit="10" d="M117.3,3.8L79.9,54.7c5.4,2,10.6,4.8,15.4,8.3
				c1.8,1.3,3.5,2.7,5.1,4.1l-1.3,1.7c-4.7,6.4-8.3,13.3-10.7,20.4c-2-2.5-4.4-4.7-7.1-6.7c-6.5-4.8-14.2-7.7-22.2-7.7h-23
				l34.5-47.4H18.4L1,3.8H117.3 M119.3,2.8h-2H1h-2l1.2,1.6l17.3,23.7l0.3,0.4h0.5h50.2L35.3,74.3l-1.2,1.6h2h23
				c7.4,0,14.9,2.6,21.6,7.5c2.6,1.9,4.9,4.1,6.9,6.5l1.1,1.4l0.6-1.7c2.5-7.2,6-14,10.6-20.2l1.3-1.7l0.5-0.7l-0.7-0.6
				c-1.6-1.5-3.4-2.9-5.1-4.2c-4.5-3.3-9.3-6-14.4-8l36.6-49.9L119.3,2.8L119.3,2.8z"/>
		</g>
	</g>
</g>
<g>
	<g>
		<path fill="#FFFFFF" d="M57.5,178.6c-13.7,0-26.8-4.3-37.9-12.4c-8.6-6.3-15.5-14.7-20.1-24.3l-0.1-0.3L18.1,116l0.1,1.4
			c0.9,11.6,6.7,22.2,16,29c6.9,5,15,7.7,23.4,7.7c0,0,0,0,0,0c11.9,0,23-5.2,30.5-14.4l0.6-0.7l0.3,0.8c2.7,7.8,6.6,15,11.7,21.5
			l0.3,0.4l-0.3,0.3C88.8,172.7,73.5,178.6,57.5,178.6L57.5,178.6z"/>
	</g>
	<g>
		<g>
			<path fill="#FFFFFF" d="M17.7,117.4c0.8,11.5,6.6,22.3,16.2,29.4c7.2,5.2,15.5,7.8,23.7,7.8c11.6,0,23.1-5,30.9-14.5
				c2.7,7.7,6.6,15.1,11.7,21.7c-11.9,10.7-27.2,16.4-42.7,16.4c-13.1,0-26.3-4-37.6-12.3C11.2,159.4,4.4,151,0,141.7L17.7,117.4
				 M18.5,114.6l-1.6,2.2l-17.7,24.3l-0.4,0.5l0.3,0.5c4.6,9.7,11.6,18.1,20.2,24.5c11.2,8.2,24.4,12.5,38.2,12.5
				c16.1,0,31.5-5.9,43.4-16.7l0.7-0.6l-0.6-0.7c-5-6.5-8.9-13.7-11.6-21.4l-0.6-1.7l-1.1,1.4c-7.4,9-18.4,14.2-30.1,14.2
				c-8.4,0-16.4-2.6-23.1-7.6c-9.2-6.7-15-17.2-15.8-28.7L18.5,114.6L18.5,114.6z"/>
		</g>
	</g>
</g>
</svg>
