<?xml version="1.0" encoding="utf-8"?>
<!-- Generator: Adobe Illustrator 20.1.0, SVG Export Plug-In . SVG Version: 6.00 Build 0)  -->
<svg version="1.1" id="Слой_1" xmlns="http://www.w3.org/2000/svg" xmlns:xlink="http://www.w3.org/1999/xlink" x="0px" y="0px"
	 viewBox="0 0 517.5 168" enable-background="new 0 0 517.5 168" xml:space="preserve">
<g>
	<path fill="#FFFFFF" d="M84,15c38,0,69,31,69,69c0,12.1-3.2,24-9.2,34.5l-3.1,5.4l1.6,6l4.5,16.9l-16.9-4.5l-6-1.6l-5.4,3.1
		c-10.5,6-22.4,9.2-34.5,9.2c-38,0-69-31-69-69S46,15,84,15 M84,0C37.6,0,0,37.6,0,84s37.6,84,84,84c15.3,0,29.6-4.1,42-11.3
		l42,11.3l-11.3-42c7.1-12.4,11.3-26.7,11.3-42C168,37.6,130.4,0,84,0L84,0z"/>
	<g>
		<path fill="#FFFFFF" d="M207.5,51.5h58.2v13h-43.9v13.2h38.8v13h-38.8v24.3h-14.3V51.5z"/>
		<path fill="#FFFFFF" d="M325.5,51.5l27,63.5h-15.2l-4.1-9.6h-39.1l-4.1,9.6h-15.4l27.7-63.5H325.5z M299.3,92.8h28.2l-11.5-28.6
			h-4.9L299.3,92.8z"/>
		<path fill="#FFFFFF" d="M384.2,51.5v23.4h18.5l16-23.4h16.5l-20.3,29.4l21.8,34.1h-17L403,88h-18.8v27h-14.2V51.5H384.2z"/>
		<path fill="#FFFFFF" d="M466.9,51.5v32.5c0,12.4,5.6,20,18.1,20c12.5,0,18.1-7.6,18.1-20V51.5h14.3v32.4c0,21-12.6,32.7-32.5,32.7
			c-19.9,0-32.5-11.7-32.5-32.7V51.5H466.9z"/>
	</g>
	<g>
		<path fill="#FFFFFF" d="M84.8,32.2c17.2,0,34,9.9,34,31.9c-0.1,15.1-9.7,26.8-27.6,30l-1,18.1H75.5l-0.7-29
			c13.8-0.1,27.3-6.3,27.2-19.3c-0.6-21.6-27.5-20.7-37.5-6.2l-11.3-8.5C62.6,37.2,73.9,32.2,84.8,32.2z M74.1,136.5v-16.9H91v16.9
			H74.1z"/>
	</g>
</g>
</svg>
