<?xml version="1.0" encoding="utf-8"?>
<!-- Generator: Adobe Illustrator 20.1.0, SVG Export Plug-In . SVG Version: 6.00 Build 0)  -->
<svg version="1.1" id="Слой_1" xmlns="http://www.w3.org/2000/svg" xmlns:xlink="http://www.w3.org/1999/xlink" x="0px" y="0px"
	 viewBox="0 0 289.9 107.8" enable-background="new 0 0 289.9 107.8" xml:space="preserve">
<path fill="#FFFFFF" d="M7.7,27.6l5.9-5c0.1,0,0.1,0,0.2-0.1c0,0,0.1-0.1,0.2-0.1c0.6,0,1,0.4,1.3,1.2v-1.1l0.6,0.4l1.1,6.4
	c0-0.1,0-0.3,0.1-0.5c0-0.3,0.2-0.4,0.4-0.4c0.2,0,0.3,0.6,0.5,1.7c0.2,1.2,0.3,2.4,0.5,3.8l0.7,5.5h1.1l6.6-8.4
	c0.3-0.6,0.7-1.1,1.1-1.7c0.4-0.6,0.7-1.3,0.7-2c0-0.1,0-0.2-0.1-0.5c-0.1-0.2-0.2-0.4-0.2-0.6L30,22c0-0.4,0.1-0.8,0.2-1.1
	c0.1-0.3,0.2-0.7,0.2-1.1v-0.5l-0.7,0.4c0.2-0.3,0.3-0.7,0.5-1.3c0.2-0.5,0.3-0.9,0.3-1.1c0-0.8-0.1-1.6-0.2-2.3
	c-0.1-0.7-0.5-1.5-1-2.3c-4.6,0.7-8.9,2.5-12.7,5.4l-3.7,2.8h-1.1c0-0.2,0.1-0.3,0.2-0.5c0.1-0.2,0.2-0.4,0.2-0.6l-0.2-0.5
	c-0.1-0.2-0.2-0.3-0.2-0.4c-0.1-0.1-0.2-0.3-0.2-0.4l-0.7-1.2h0.8c0-0.2-0.2-0.4-0.6-0.7c-0.4-0.3-0.6-0.6-0.6-1l-0.7,0.7L9.2,16
	c-0.2,0.2-0.3,0.4-0.4,0.8c-0.1,0.4-0.3,0.5-0.7,0.5c0-0.5,0.1-1,0.4-1.5c0.3-0.5,0.6-0.9,1-1.3l-1.4-0.7c-0.2,0.6-0.5,1.4-1,2.2
	c-0.5,0.8-1.1,1.3-1.8,1.3h-1c-0.5,0-1-0.1-1.5-0.2c-0.5-0.1-0.8-0.4-0.8-0.8c-0.3,0.6-0.6,1-0.7,1C1.1,17.3,1,17,1,16.4
	c0-0.6-0.2-0.8-0.6-0.8c-0.2,0-0.3,0-0.4,0.1l6.7-5.9l13.4-4.6c0.2,0,0.3,0,0.4,0.1c0.1,0,0.2,0.1,0.4,0.1c0.6,0,1.2-0.1,2-0.2
	c0.8-0.2,1.6-0.3,2.4-0.5c0.8-0.2,1.5-0.3,2.2-0.5C28.2,4,28.8,4,29.2,4c0.8,0.2,1.5,0.4,2.1,0.5c0.6,0.1,1.2,0.3,1.8,0.4
	c0.6,0.2,1.1,0.3,1.4,0.4c0.2,0.4,0.6,0.7,1.2,1c0.6,0.3,1.4,0.6,2.2,0.9c0.8,0.3,1.6,0.7,2.3,1.2c0.8,0.5,1.4,1.1,1.9,1.8
	c0.2,0.3,0.6,1.1,1.1,2.3c0.5,1.2,0.9,2,1,2.4C44.1,15,44,15.1,44,15.4c0,0.6,0.2,1.2,0.6,1.9c0.4,0.7,0.9,1.1,1.4,1.4
	c0,0.8-0.1,1.5-0.2,2.2c-0.1,0.7-0.2,1.3-0.2,2v0.5c0.2-0.2,0.4-0.4,0.5-0.7c0.1-0.3,0.3-0.5,0.7-0.5c0,0.6-0.1,1.1-0.2,1.7
	c-0.2,0.6-0.2,1.2-0.2,2l0.4-0.7c0,1.5-0.2,3.1-0.6,4.7c-0.4,1.6-1.1,3.1-2,4.4l6.6,2.5c0.7,0,1.5,0.4,2.2,1.1
	c0.8,0.7,1.5,1.1,2.1,1.1c0.2,0,0.6,0.2,1,0.5c0.4,0.3,0.8,0.7,1.1,1c0.4,0.4,0.7,0.7,0.9,1.1c0.2,0.4,0.4,0.6,0.4,0.7l0.4,0.4
	c0.2,0,0.5,0.3,0.7,1c0.2,0.6,0.5,1.4,0.7,2.3c0.2,0.9,0.3,1.9,0.4,2.9c0.1,1,0.1,1.8,0.1,2.5V52c0,0.2-0.1,1.3-0.3,3.5
	c-0.2,2.2-0.7,4.9-1.4,8.1c-0.8,3.2-1.9,6.6-3.3,10.3c-1.4,3.6-3.4,7-5.8,10.1c-2.4,3.1-5.4,5.7-8.9,7.7c-3.6,2.1-7.8,3.1-12.8,3.1
	c-0.2,0-0.5,0-0.7-0.1c-0.2,0-0.3-0.1-0.4-0.1c-0.1,0-0.2,0.1-0.4,0.2C26.7,95,26.6,95,26.4,95c-0.9,0-1.7,0.3-2.3,0.9
	c-0.7,0.6-1,1.6-1,2.9v0.6h-0.7c-0.7,0-1.2-0.2-1.3-0.6c-0.2-0.4-0.3-0.8-0.4-1.3c-0.1-0.4-0.3-0.9-0.7-1.3c-0.3-0.4-1-0.6-2-0.6
	c-0.2,0-0.8,0.2-1.6,0.7c-0.8,0.4-1.2,0.9-1.2,1.3c0,0.2,0.1,0.6,0.2,1.3c0.1,0.7,0.2,1.1,0.2,1.3c0,0.4-0.1,0.7-0.4,0.9
	c-0.3,0.2-0.6,0.4-1,0.5c-0.4,0.1-0.8,0.2-1.2,0.3c-0.4,0.1-0.8,0.2-1,0.4c-0.3-0.3-0.6-0.8-0.8-1.4c-0.2-0.6-0.3-1.2-0.3-1.7
	c0-0.4,0-0.7,0.1-1c0.1-0.3,0.1-0.8,0.1-1.6c0-0.9-0.1-2.1-0.2-3.8c-0.2-1.6-0.6-4-1.2-7.1C9.3,85.4,9,85.2,8.7,85
	c-0.3-0.2-0.5-0.4-0.5-0.6v0.8c0-0.2,0-0.4-0.1-0.7C8.1,84.3,8,84,8,83.8c0-0.4,0-0.6,0.1-0.7l-6-58.7h0.5l0.2-2.9v1.8l0.5-1.8
	c0,0.6,0.3,0.8,0.8,0.8c0.2,0,0.3,0,0.4-0.1l1.6,2.2L7.7,27.6z M10.3,100.6c0,0.1,0,0.1,0.1,0.2c0,0,0.1,0.1,0.1,0.2
	c0,0.1,0,0.1-0.1,0.1c0,0-0.1,0-0.1,0.1v0.1c-0.1,0-0.1-0.1-0.1-0.4c0-0.3,0-0.5,0.1-0.5V100.6z M25,81.2c0,0.2,0.1,0.4,0.4,0.4
	c3.4,0,6.8-2.4,10.2-7.3c3.4-4.9,6.5-12.5,9.5-22.9c-0.5-0.4-0.8-1-0.8-1.7C44.1,49,44,48.2,44,47.5c0-0.2,0-0.3,0.1-0.4
	c0-0.1,0.1-0.2,0.1-0.3c0-0.6-0.2-1-0.7-1.4c-0.4-0.4-0.8-0.6-1.1-0.6l-19,7c-0.4,0.5-0.9,0.9-1.4,1.2c-0.5,0.3-0.8,0.9-0.8,1.7
	L23,67.8c-0.2,0-0.4,0.3-0.4,0.8c0,1,0.1,1.9,0.4,2.9c0.3,1,0.6,2,0.9,3.1c0.3,1,0.6,2,0.9,3c0.3,1,0.4,1.9,0.4,2.9
	c0,0.1-0.1,0.2-0.2,0.4C25,81,25,81.2,25,81.2z M35.5,82.2l3.6-2.4c0.5,0,0.7,0.2,0.7,0.7c0.7-0.2,1.4-0.7,1.9-1.3
	c0.6-0.6,1.1-1.3,1.5-1.9c0.4-0.6,0.8-1.1,1.1-1.6c0.3-0.5,0.5-0.7,0.5-0.7v0.1c0-0.2,0.1-0.5,0.4-0.7c0.3-0.2,0.4-0.4,0.4-0.7
	c0-0.2-0.1-0.4-0.2-0.6c-0.1-0.2-0.2-0.4-0.2-0.6c0-0.3,0.2-0.6,0.7-0.8l-1.2-0.6c-0.2,0-0.3,0-0.4-0.1c-0.1,0-0.2-0.1-0.4-0.1
	c-0.6,0.6-1.3,1.1-2.1,1.6c-0.8,0.5-1.5,1.1-2.2,1.7c-0.7,0.6-1.4,1.2-2,1.9c-0.6,0.7-1,1.5-1.3,2.5c0.2,0,0.4,0,0.7,0.1
	c0.3,0.1,0.4,0.3,0.4,0.6l-2.2,2.2V82.2z M41.6,74.6c1.2-1,2-1.6,2.3-1.8l0.4-0.2c0,0.3-0.2,0.6-0.7,0.7
	C43.2,73.5,42.5,73.9,41.6,74.6z M45,71.8c-0.2,0.2-0.3,0.2-0.5,0.2c-0.2,0-0.4-0.1-0.4-0.2c0-0.1,0.1-0.1,0.4-0.1
	C44.8,71.6,45,71.7,45,71.8z"/>
<path fill="#FFFFFF" d="M97.9,62c0.6-1,1.3-2,2.2-2.8c0.9-0.8,1.9-1.3,2.9-1.3c0.2,0,0.7,0,1.4,0.1c0.7,0.1,1.2,0.2,1.4,0.4
	l-0.5,0.4c0.2,0,0.3,0,0.4-0.1c0.1,0,0.2-0.1,0.4-0.1c0.6,0,1.1,0.1,1.3,0.4c0.2,0.2,0.8,0.4,1.6,0.4c0.1,0,0.5-0.2,1.3-0.5
	c0.8-0.3,1.6-0.7,2.6-1c1-0.4,1.9-0.7,2.7-1.1c0.8-0.4,1.3-0.6,1.5-0.8v0.8c0,1.4,0.2,2.5,0.7,3.3c0.5,0.8,0.7,1.9,0.7,3.2
	c0,1.1-0.3,2.3-0.8,3.4c-0.5,1.2-0.8,2.3-0.8,3.4c0,0.2,0,0.3,0.1,0.4c0,0.1,0.1,0.3,0.1,0.4l-8.9,23.9c-1.4,1.7-2.5,3-3.3,3.8
	c-0.8,0.9-1.3,1.5-1.7,1.9l-0.7,0.8c-0.2,0-0.6,0.1-1,0.2c-0.4,0.2-0.8,0.3-1.3,0.5c-0.4,0.2-0.9,0.4-1.3,0.6
	c-0.4,0.2-0.8,0.3-1,0.4c-0.3,0-0.6,0.1-0.8,0.4c-0.3-0.2-0.5-0.4-0.7-0.8c-0.1-0.4-0.3-0.6-0.4-0.7c-0.4-0.2-1.1-0.4-2-0.7
	c-0.9-0.3-1.6-0.5-2-0.5c-0.4,0-1,0-1.7,0.1c-0.7,0.1-1.2,0.2-1.3,0.4v-1.1c-1.2,0-2.3,0-3.2-0.1c-1-0.1-1.9-0.2-2.7-0.4
	c-0.8-0.2-1.7-0.5-2.5-0.8c-0.8-0.4-1.8-0.8-2.8-1.4h-0.8C74.8,96,73.2,94,72,91.7c-1.2-2.3-2.1-4.7-2.7-7.3c-0.6-2.6-1-5.3-1.1-8
	c-0.2-2.7-0.2-5.3-0.2-7.8v-1.8c0-3,0-6.1,0.1-9.1c0.1-3,0.4-5.9,0.8-8.6l1.4-7.6V41c0.9-6.2,2.4-11.3,4.7-15.4
	c2.2-4.1,4.6-7.4,7.2-10c2.6-2.5,5-4.3,7.4-5.5c2.4-1.1,4.2-1.8,5.5-1.9c1.4-0.2,2.6-0.4,3.8-0.6c1.2-0.2,2.5-0.4,3.8-0.4h2.2
	c0.6,0.1,1.3,0.2,2.2,0.2c0.9,0.1,1.8,0.2,2.8,0.3c0.9,0.1,1.7,0.2,2.3,0.3c0.6,0.1,1,0.1,1.1,0.1l1.9,1c0.1,0,0.3,0.2,0.7,0.7
	c0.4,0.5,0.8,1,1.2,1.6c0.4,0.6,0.9,1.2,1.3,1.8c0.4,0.6,0.8,1.1,1,1.5c0.7,1.2,1.1,2.6,1.3,4.1c0.1,1.5,0.2,3,0.2,4.3
	c0,0.2,0,0.4-0.1,0.6c0,0.2-0.1,0.5-0.1,0.7v1c0,0.6,0,1.3-0.1,2.1c-0.1,0.8-0.2,1.7-0.3,2.5c-0.1,0.8-0.3,1.8-0.4,3l-2.2,2.6
	c-0.4-0.6-0.8-1.1-1.3-1.4c-0.4-0.3-0.9-0.6-1.4-0.7c-0.5-0.2-1.1-0.3-1.9-0.4c-0.7-0.1-1.6-0.3-2.5-0.5v-1.4l-1.6,1
	c0-0.3-0.2-0.5-0.5-0.5c-0.2,0-0.5,0.1-1,0.2c-0.5,0.2-0.8,0.2-1,0.2c-0.4,0-1.2-0.1-2.3-0.4c-1.2-0.3-1.9-0.5-2.3-0.8v-4.2
	c0-1.3-0.1-2.5-0.2-3.8c-0.1-1.2-0.4-2.5-0.8-3.9c-0.1,0-0.3,0.1-0.6,0.4c-0.3,0.2-0.7,0.5-1.1,0.9c-0.4,0.4-0.8,0.7-1.1,1.1
	c-0.4,0.4-0.7,0.7-0.9,0.9c-0.6,0.6-1,1.4-1.3,2.2c-0.3,0.8-0.8,1.5-1.5,2l0.5,0.5c-0.1,0.1-0.2,0.2-0.3,0.2
	c-0.1,0.1-0.2,0.2-0.2,0.2c-0.3,0.4-0.7,1-1.1,1.9c-0.4,0.8-0.7,1.3-0.8,1.4l-4.2,16c0,0.3,0,0.6,0.1,1c0,0.3,0.1,0.6,0.1,1
	c0,2.3-0.2,4.6-0.5,6.9c-0.4,2.3-0.5,4.6-0.5,6.9c0,2.3,0.1,4.7,0.2,7.1c0.1,2.4,0.4,4.8,0.8,7.1c0.1,0.6,0.2,1.4,0.4,2.2
	c0.2,0.8,0.3,1.7,0.5,2.6c0.2,1,0.4,2,0.6,3.1l0.6,1.3l6.8-20c-0.1-0.2-0.1-0.6-0.1-1.2c0-0.6,0.1-1.1,0.2-1.7
	C97.6,62.4,97.8,62.1,97.9,62z M70.8,77.6c0.7,1.4,1,2.9,1,4.6c-0.1,1.7,0.2,3.3,0.8,4.8c0.1-0.2,0.1-0.3,0.1-0.5c0-0.2,0-0.3,0-0.4
	c0-0.2,0-0.4,0-0.6c0-0.2,0-0.4-0.1-0.4c-0.1-0.4-0.2-1.2-0.4-2.3c-0.2-1.2-0.3-2.4-0.5-3.8c-0.2-1.4-0.4-2.7-0.5-4.1
	c-0.2-1.4-0.3-2.5-0.4-3.4V77.6z M78.1,90.7c0,1,0.4,1.6,1.2,1.6c0.3,0,0.6,0,0.8-0.1c0-0.6-0.2-1.1-0.7-1.4c-0.4-0.3-0.9-0.6-1.3-1
	c0,0.1,0,0.2-0.1,0.5C78.1,90.5,78.1,90.6,78.1,90.7z M97.3,103.8h-0.2c-0.1,0-0.1,0-0.1-0.1L97.3,103.8z"/>
<g>
	<path fill="#FFFFFF" d="M133.1,52.9C133.2,53,133.2,53,133.1,52.9C133.2,52.9,133.2,52.9,133.1,52.9
		C133.1,52.9,133.1,52.9,133.1,52.9z"/>
	<path fill="#FFFFFF" d="M203.5,102.2c0,0.2,0,0.4,0.1,0.4c0.2,0,0.2-0.1,0.2-0.4c0-0.2,0-0.4-0.1-0.5
		C203.6,101.8,203.5,101.9,203.5,102.2z"/>
	<path fill="#FFFFFF" d="M143.1,80.3l0.2,0l0,0c-0.1-0.1-0.2-0.1-0.3-0.1c-0.1,0-0.2,0-0.3-0.1l-0.2,0c0.1,0.1,0.3,0.1,0.3,0.1
		C142.9,80.2,143,80.2,143.1,80.3z"/>
	<path fill="#FFFFFF" d="M209.1,101.6c0,0,0.1-0.1,0.1-0.2c-0.1,0.1-0.1,0.2-0.1,0.4C209,101.7,209.1,101.6,209.1,101.6z"/>
	<path fill="#FFFFFF" d="M140.1,42.6C140.1,42.6,140.1,42.7,140.1,42.6c0.1,0.1,0.2,0.1,0.2,0c0,0,0,0-0.1,0
		C140.1,42.6,140.1,42.6,140.1,42.6z"/>
	<path fill="#FFFFFF" d="M153,52.6c0.1,0,0.2,0.1,0.3,0.2c0,0,0,0,0-0.1c0,0,0-0.1,0.1-0.1c0.1,0,0.1,0,0.2,0l-0.3,0
		C153.1,52.5,153.1,52.5,153,52.6z"/>
	<path fill="#FFFFFF" d="M141.7,34.7c-0.1,0-0.2-0.1-0.3-0.1l-0.2,0c0,0-0.1,0-0.1,0c0,0-0.1,0-0.1,0l-0.1,0l-0.4,0.1
		c0.4,0.1,0.7,0.2,1.1,0.3c0.4,0.1,0.7,0.2,1.1,0.3l0.2,0c0.1,0,0.2,0,0.3,0l0.9,0.2l0.1,0.1l0.8,0.2l0-0.2l-3-0.6
		C141.9,34.8,141.8,34.7,141.7,34.7z"/>
	<path fill="#FFFFFF" d="M154.8,37.1C154.8,37.1,154.7,37,154.8,37.1c-0.1-0.1-0.2-0.1-0.2,0c0,0,0,0.1,0.1,0.1
		C154.7,37.1,154.7,37.1,154.8,37.1z"/>
	<path fill="#FFFFFF" d="M141.4,85.7l0.1,0.3c-0.2-0.1-0.4-0.1-0.5-0.2c-0.2,0-0.4-0.1-0.5-0.1c-1.1-0.2-2.2-0.4-3.4-0.5
		c-1.1-0.1-2.3-0.2-3.4-0.4l0,0.1l0.3,0.1l0,0.1l0.2,0.1c0,0,0.1,0,0.2,0.1c0.1,0,0.1,0,0.2,0c0,0,0.2,0,0.4,0.1
		c0.2,0,0.5,0.1,0.7,0.1c0.3,0,0.5,0.1,0.7,0.1c0.2,0,0.4,0,0.4,0.1c0.2,0,0.4,0,0.8,0.1c0.4,0.1,0.8,0.1,1.2,0.2
		c0.4,0.1,0.8,0.1,1.1,0.1c0.3,0,0.5,0,0.6,0l0.2,0c0.2,0,0.6,0.1,1.2,0.1c0.2,0,0.3,0,0.5,0l0.1-0.6L141.4,85.7z"/>
	<path fill="#FFFFFF" d="M151.8,43c0.3,0,0.6,0,0.9,0c0.1,0,0.2,0,0.4,0c0.2,0,0.4,0,0.7,0c0.2,0,0.5,0,0.7,0c0.2,0,0.4,0,0.4,0
		c0,0-0.1,0-0.2-0.1c-0.1,0-0.2,0-0.2,0c-0.4-0.1-0.8-0.1-1.2-0.2c-0.4,0-0.8-0.1-1.3-0.1c-0.1,0-0.2,0-0.2,0c-0.1,0-0.1,0-0.2,0
		c-0.1,0-0.1-0.1-0.3-0.1l0,0.2l-0.2,0c-0.1,0-0.3-0.1-0.3-0.1l0,0.2l-0.1,0.1c0,0.1,0.1,0.1,0.1,0.1C151.2,43,151.5,43,151.8,43z"
		/>
	<path fill="#FFFFFF" d="M207,11.8v-0.5c-0.2,0-0.2,0.1-0.2,0.2C206.8,11.7,206.8,11.8,207,11.8z"/>
	<path fill="#FFFFFF" d="M216.2,87.2c0.2,0,0.2-0.1,0.2-0.4c0-0.2,0-0.4-0.1-0.5c-0.2,0-0.2,0.2-0.2,0.5
		C216.1,87.1,216.2,87.2,216.2,87.2z"/>
	<path fill="#FFFFFF" d="M139,86.2C139,86.2,139,86.2,139,86.2C139.1,86.2,139,86.2,139,86.2C138.9,86.1,138.9,86.1,139,86.2
		C138.9,86.2,138.9,86.2,139,86.2z"/>
	<path fill="#FFFFFF" d="M216.6,88.4c0.2,0,0.2-0.1,0.2-0.4c0-0.2,0-0.4-0.1-0.5c-0.2,0-0.2,0.2-0.2,0.5
		C216.5,88.3,216.5,88.4,216.6,88.4z"/>
	<polygon fill="#FFFFFF" points="142.8,83 142.7,83 142.8,83.1 142.8,83 	"/>
	<path fill="#FFFFFF" d="M142.1,79.9C142.2,79.9,142.2,79.9,142.1,79.9c0.1,0,0.1,0,0.1,0C142.2,79.9,142.2,79.8,142.1,79.9
		C142.1,79.8,142.1,79.8,142.1,79.9C142,79.9,142.1,79.9,142.1,79.9z"/>
	<path fill="#FFFFFF" d="M143,76.2c0,0,0.1,0,0.1,0c0,0,0.1,0,0.1,0c0.1,0,0.2,0,0.3,0c0.2,0.1,0.4,0.1,0.6,0.2l0.5-2.6l-4,0.7
		l0.2,0.1l-0.6,0.2l0.5,0.5c0,0,0.1,0,0.3,0.1c0.2,0.1,0.4,0.2,0.7,0.2c0.3,0.1,0.5,0.2,0.8,0.3C142.6,76.1,142.8,76.1,143,76.2z
		 M140.9,74.7L140.9,74.7C140.9,74.7,140.9,74.7,140.9,74.7L140.9,74.7C141,74.7,141,74.7,140.9,74.7z"/>
	<path fill="#FFFFFF" d="M136.3,86c0.2,0,0.4,0.1,0.6,0.1c0.2,0,0.4,0,0.6,0l-1.2-0.2L136.3,86z"/>
	<path fill="#FFFFFF" d="M137.9,86l0.5,0.1c0-0.1-0.1-0.1-0.1-0.1C138.2,86,138.1,86,137.9,86z"/>
	<path fill="#FFFFFF" d="M217.9,96.7c0.1-0.1,0.1-0.2,0.1-0.2c-0.1,0-0.2,0.1-0.3,0.2c-0.1,0.1-0.1,0.2-0.1,0.2
		C217.6,96.8,217.7,96.8,217.9,96.7z"/>
	<polygon fill="#FFFFFF" points="144.6,24.9 144.4,24.8 144.6,25 	"/>
	<path fill="#FFFFFF" d="M144.9,25.3L144.9,25.3l-0.2-0.1C144.7,25.2,144.8,25.3,144.9,25.3z"/>
	<path fill="#FFFFFF" d="M141.4,21.5c0,0.1,0,0.1,0.1,0.1L141.4,21.5z"/>
	<path fill="#FFFFFF" d="M217.9,98.4c0-0.3-0.1-0.5-0.4-0.5c0,0.5,0.1,1,0.4,1.4V98.4z"/>
	<path fill="#FFFFFF" d="M216.9,91c0,0.2-0.1,0.4-0.1,0.7c0,0.6,0.1,0.9,0.2,0.7c0.1-0.1,0.1-0.3,0.1-0.7c0-0.5,0-0.8-0.1-0.8
		C217,90.8,216.9,90.8,216.9,91z"/>
	<path fill="#FFFFFF" d="M145.1,24.8L145.1,24.8C145.1,24.8,145.1,24.8,145.1,24.8C145.1,24.8,145.1,24.8,145.1,24.8L145.1,24.8z"/>
	<path fill="#FFFFFF" d="M140.1,74.7l-0.2,0c-0.1,0-0.1,0-0.2,0.1l0.1,0.2c0,0,0-0.1,0-0.1C139.9,74.7,140,74.7,140.1,74.7z"/>
	<path fill="#FFFFFF" d="M199,80.4v-0.5c-0.2,0-0.2,0.1-0.2,0.2C198.7,80.3,198.8,80.4,199,80.4z"/>
	<path fill="#FFFFFF" d="M217.9,100.1c-0.2,0-0.2,0.2-0.2,0.5c0,0.2,0,0.4,0.1,0.4c0.2,0,0.2-0.1,0.2-0.4
		C218,100.3,218,100.2,217.9,100.1z"/>
	<path fill="#FFFFFF" d="M216.4,97.7c-0.4-2-0.6-4-0.6-6c0-2-0.2-4-0.6-6.1c0.4-0.2,0.6-0.6,0.7-1.3c0.1-0.7,0.1-1.5,0.1-2.3V80
		c0-2.1-0.2-4.1-0.7-6c-0.5-1.9-0.7-3.9-0.7-5.9c0-0.2,0-0.5,0.1-0.8c0-0.3,0.1-0.5,0.1-0.8l-0.8,0.4c0.1-0.4,0.1-0.8,0.1-1.1
		c0-0.3,0-0.7,0-1.1c0-1-0.1-1.9-0.2-2.9c-0.2-1-0.4-2-0.6-2.9c0.1-0.1,0.2-0.3,0.2-0.5c0.1-0.3,0.1-0.5,0.1-0.7
		c0-1.8-0.2-3.4-0.6-5c-0.4-1.6-0.6-3.2-0.6-4.9c0-0.6,0.1-1.1,0.2-1.5c0.1-0.4,0.2-0.8,0.2-1.4L209,23v-0.6c0-1.2-0.2-2.3-0.6-3.3
		c-0.4-1-0.6-2.1-0.6-3.2c0-0.2,0.1-0.6,0.4-1l-0.7,0.4c-0.4-1-0.7-2.2-1-3.4c-0.2-1.2-0.6-2.2-1.1-3.1c-0.3-0.6-0.8-1.1-1.5-1.6
		c-0.7-0.5-1.4-1-2.3-1.4c-0.8-0.4-1.7-0.8-2.6-1c-0.9-0.2-1.6-0.4-2.2-0.4c-0.7,0.2-1.5,0.5-2.5,0.9c-0.9,0.4-1.4,0.7-1.4,0.8V8
		h-0.7V6.8c0-0.9-0.2-1.4-0.7-1.6c-0.1,0-0.1,0-0.2-0.1c0,0-0.1-0.1-0.2-0.1H191v1.7c-0.2-0.2-0.5-0.4-0.7-0.4
		c-0.3,0-0.5,0.1-0.6,0.4c-0.8-1.1-1.7-1.7-2.8-1.7c-1.1,0-2.2,0.5-3.2,1.6c-1,1-1.9,2-2.5,3l-1.2,4.8c-0.2,0.5-0.4,0.9-0.8,1.2
		l0.5,0.5l-5.8,16.9c-0.2,0.1-0.4,0.3-0.4,0.7v0.5c0,0.5,0.1,0.9,0.4,1.2c0.3,0.3,0.4,0.6,0.4,1c0,0.9-0.2,1.9-0.5,3.2
		c-0.4,1.2-0.7,2.3-1.1,3.2l-0.4-0.5c0.1-0.2,0.2-0.7,0.5-1.7c0.2-1,0.4-1.7,0.4-2.3h-0.5l-4,12.1l-0.5,0.4v-0.7
		c0-0.6,0-1.4-0.1-2.2c0-0.8-0.1-1.2-0.3-1.2c-0.2-0.2-0.6-0.6-1-1.3c-0.4-0.7-0.6-1.3-0.6-1.7l-2-6.2h-0.8c-0.6-0.8-1-1.7-1-2.6
		c0-0.2,0-0.3,0.1-0.5c0-0.2,0.1-0.3,0.1-0.5c-0.3-0.3-0.7-0.5-1.1-0.5l-0.7-1.6c-0.4-0.8-0.9-2.1-1.6-3.8c-0.4-1-0.9-2.3-1.6-3.9
		c0,0.2,0,0.4,0,0.6c0,0.4,0,0.8-0.1,1.2c0,0.4,0,0.9,0.1,1.4c0.1,0,0.2,0.1,0.2,0.2c0,0.1,0.1,0.2,0.1,0.3c0,0.1,0,0.2,0.1,0.4
		c0,0.1,0.1,0.2,0.2,0.3c-0.1,0.1-0.1,0.1-0.1,0.2c0,0,0,0.1-0.1,0.2c0,0.1,0,0.2,0,0.3c0.1,0,0.1,0.1,0.3,0.2l-2.4,0.7l0,0.1
		c-0.1,0-0.2,0-0.2,0.1c-0.1,0.1-0.1,0.1-0.2,0.2c0-0.1,0-0.2,0-0.3c0,0-0.1-0.1-0.2-0.1c-0.5-0.1-1-0.1-1.5-0.2c-0.5,0-1,0-1.4,0.1
		l-0.2,0c-0.3,0-0.7,0-0.9-0.1c-0.3,0-0.6-0.1-0.9-0.1c-0.3,0-0.6-0.1-1-0.2c-0.4-0.1-0.9-0.2-1.4-0.3c-0.1,0-0.3-0.1-0.5-0.1
		c-0.2,0-0.4-0.1-0.6-0.1c-0.2,0-0.4-0.1-0.5-0.1c-0.2,0-0.2,0-0.2,0l-6.9-2.2c0,0-0.1,0-0.1,0c0,0,0,0-0.1,0
		c-0.1,0-0.3-0.1-0.4-0.2c-0.2-0.1-0.3-0.2-0.5-0.3c-0.1-0.1-0.3-0.2-0.4-0.3c-0.1-0.1-0.2-0.2-0.3-0.3c0-0.1,0.1-0.1,0.1-0.2
		l-0.2-0.1l0.5-0.2c0-0.1-0.1-0.1,0-0.2c0-0.1,0-0.1,0.1-0.1l0.1-0.3c0,0,0-0.1,0-0.2c0-0.1,0-0.1,0-0.2c0-0.1,0-0.1,0-0.2
		c0-0.1,0-0.1,0-0.1c0,0,0,0,0,0c0.2-0.8,0.3-1.6,0.4-2.4c0.1-0.8,0.2-1.6,0.4-2.4c0.1-0.6,0.3-1.2,0.4-1.8c0.2-0.6,0.4-1.2,0.6-1.8
		c0.1-0.2,0.2-0.5,0.3-0.7c0.1-0.2,0.2-0.5,0.3-0.7l0.2,0l0.2,0.9c0,0,0,0,0,0c0,0,0,0,0,0c0.1,0,0.3,0.2,0.5,0.4
		c0.2,0.2,0.3,0.4,0.4,0.5c0.1-0.1,0.1-0.1,0.2-0.1l-0.1,0.7l0.1,0.1c0,0,0-0.1,0.1-0.2c0-0.1,0.1-0.1,0.2-0.1
		c0,0.2-0.1,0.4-0.1,0.6c0,0.2,0,0.4-0.1,0.6c0,0.1-0.1,0.3-0.1,0.4c-0.1,0.1-0.1,0.3-0.1,0.5c0,0.1,0,0.2,0,0.2
		c0,0.1,0.1,0.2,0.2,0.2l0.2-1.2l-0.1,1.9c0,0.3,0,0.7,0.1,1c0.1,0.4,0.1,0.7,0.1,1.1c-0.1,0-0.2-0.1-0.2-0.3l-0.1,0.3
		c0,0.2,0,0.3,0,0.5c0,0.2,0,0.3,0,0.5c-0.1,0-0.2-0.1-0.2-0.2c0-0.1,0-0.1-0.1-0.2l-0.1,0.4l-0.2-1.2l-0.1,0.5l-0.2-0.1l-0.1,0.4
		c0,0.1,0,0.2,0,0.4c0,0.2,0,0.4,0,0.5c0,0.2,0.1,0.3,0.1,0.5c0.1,0.1,0.1,0.2,0.2,0.2l0.1,0l-0.1-0.2l0.5,0.3c0,0,0,0,0.1,0
		c0,0,0.1,0,0.1-0.1l0.9,0.3c0.1,0,0.2,0.1,0.2,0.2c0.1,0.1,0.1,0.1,0.1,0.1c0,0,0-0.1,0-0.1c0,0,0.1,0,0.1-0.1
		c0.1,0,0.3,0.1,0.5,0.2c0.2,0.1,0.4,0.2,0.4,0.2l0-0.1c0,0,0-0.1-0.1-0.1c-0.1-0.1-0.2-0.1-0.3-0.1l-0.7-0.3l1.7,0.3
		c0-0.1,0-0.1-0.1-0.1c-0.1,0-0.2-0.1-0.3-0.1l0.8,0.2l0.1-0.2l0.1-0.5c0.1-0.4,0.1-0.8,0.1-1.2c0-0.4,0-0.8,0.1-1.2
		c0-0.1,0-0.2,0-0.2c0-0.1,0-0.1,0.1-0.2l-0.1,0.2l0.2-1c0,0-0.1-0.1-0.1-0.2c0-0.1,0-0.2,0-0.2c0-0.1,0-0.1,0-0.2
		c0-0.1,0-0.1,0-0.1l-0.2-0.1l0.2-0.1c0-0.1,0-0.2,0-0.4c0-0.1,0.1-0.1,0.1-0.1c0,0,0.1,0.1,0.3,0.2c0.1,0.1,0.2,0.3,0.3,0.4
		l0.1-0.1c0,0.1,0,0.3,0.1,0.5c0.1,0.2,0.1,0.4,0.2,0.4l0.1-0.3c0,0,0.1,0,0.2,0.1c0.1,0,0.3,0.1,0.4,0.2c0.2,0.1,0.4,0.1,0.6,0.2
		l0.1,0.7l0.1-0.3c0.1,0.5,0.2,0.9,0.2,1.2c0,0.3,0.1,0.6,0.1,0.8c0,0.3,0,0.4,0,0.5l0.1-0.1c0,0.1,0.1,0.3,0,0.4l0,0.1l-0.1-0.2
		l0,0.1c0,0.1,0,0.2,0,0.2c0,0.1,0,0.1,0.1,0.2l0.3,1.4l0.3,0.2l1.5,0.3c0.1,0,0.1,0,0.1,0.1c0,0,0,0.1,0,0.1c0,0,0,0,0,0.1l0.5,0.1
		l-0.6,0l1.1,0.3l0.1-0.1l-0.2,0c-0.1,0-0.2-0.1-0.2-0.2l0.8,0.2l0.6,0.1c0,0,0-0.1,0.1-0.1c0,0,0-0.1,0-0.1c0-0.1,0-0.2-0.1-0.2
		c0.1,0,0.1,0,0.1-0.2c0,0,0-0.1,0-0.1c0,0,0-0.1,0-0.1l0-0.2l0.1-4l0.1-0.4c0.1-0.4,0.2-0.9,0.2-1.3c0.1-0.4,0.1-0.9,0.2-1.3l0-0.2
		l-2.5-2.6c-0.4-0.4-0.7-1.1-1-2.1c-0.2-1-0.5-2-0.8-3.1c-0.3-1.1-0.7-2-1.1-2.9c-0.5-0.8-1.1-1.3-1.9-1.5h-0.8
		c-0.1-0.1-0.2-0.2-0.4-0.5c-0.2-0.2-0.3-0.4-0.4-0.4c-0.7,0-1.3,0.2-1.8,0.7c-0.5,0.5-0.8,1-1.1,1.7c-0.2,0.6-0.4,1.3-0.5,2.1
		c-0.1,0.8-0.1,1.4-0.1,1.9c-0.2,0-0.3,0-0.5,0.1c-0.2,0-0.4,0.1-0.5,0.1c-0.3,0-0.6-0.2-0.8-0.5v1.2c-0.5-0.1-0.9-0.4-1.3-1
		c-0.4-0.6-0.7-1.1-0.9-1.7c-0.2-0.6-0.5-1.2-0.7-1.7c-0.2-0.5-0.4-0.8-0.5-0.8l-0.5,0.4c-0.2,0.2-0.6,0.4-1.1,0.8
		c-0.5,0.4-1.2,0.9-2.1,1.6l-0.8-0.8c0,0.6-0.3,1-0.8,1c-0.2,0-0.3,0-0.4-0.1c0,0.2-0.1,0.5-0.2,1c-0.1,0.5-0.2,0.9-0.2,1
		c0,0.4,0.1,0.7,0.4,0.8V17c0,0.3,0,0.8,0.1,1.4c0.1,0.6,0.2,1.3,0.4,2c0.2,0.7,0.3,1.3,0.5,1.7c0.2,0.5,0.4,0.8,0.7,0.8
		c-0.1,0.2-0.1,0.4-0.1,0.7c0,0.3,0,0.7,0,1.1c0,1,0,1.6,0.1,1.8c0,0.2,0.1,0.5,0.2,1c0.1,0.5,0.2,0.9,0.2,1L125,86.8
		c-0.5,0.6-0.8,1.3-0.9,2.2c-0.1,0.9-0.2,1.8-0.2,2.8v1.8c0,0.8,0,1.5-0.1,2.2c0,0.7-0.2,1.2-0.4,1.6l-0.8,1.6
		c0.2,0.1,0.3,0.1,0.4,0.2c0.1,0,0.2,0.1,0.4,0.1c0.4,0,0.8-0.2,1.1-0.7c0.3-0.5,0.8-1,1.4-1.6c0.2,0.4,0.5,0.6,0.9,0.7
		c0.4,0.1,0.6,0.4,0.8,1c0.2-0.4,0.5-0.8,1-1.3c0.5-0.5,0.8-0.7,1.1-0.7c0.2,0,0.2,0.1,0.2,0.2c0,0.6,0.2,1,0.7,1
		c0.4,0,0.7-0.1,0.8-0.2c0.2,0,0.3,0.1,0.3,0.3c0,0.2,0.1,0.3,0.1,0.4c0,0.2,0.1,0.6,0.2,1.2c0,0.2,0.1,0.4,0.4,0.4h2.4
		c0.1,0,0.2,0.1,0.4,0.4c0.2,0.3,0.3,0.4,0.4,0.4c0.2,0,0.4-0.1,0.7-0.3c0.3-0.2,0.5-0.4,0.5-0.5c0.6-1,1.4-2.3,2.2-3.8
		c0.8-1.5,1.3-2.9,1.4-4.3l0.8-0.5l0.8-4L128.2,85l0.1-0.1l-1.6-0.3c0,0-0.1,0-0.1-0.1c-0.1-0.1-0.1-0.1-0.1-0.2
		c0-0.1,0.1-0.1,0.2-0.1c-0.1-0.1-0.2-0.1-0.1-0.2c0-0.1,0.1-0.1,0.1-0.2c0.1,0,0.1-0.1,0.2-0.1c0.1,0,0.1-0.1,0.2-0.1
		c0.1,0,0.1-0.1,0.1-0.2c0.1-0.1,0.2-0.1,0.3-0.1c0.2,0,0.3,0,0.4,0c0,0-0.1,0-0.1-0.1c0,0-0.1-0.1-0.2-0.1c-0.1,0-0.2-0.1-0.3-0.2
		c0,0,0,0,0-0.1c0,0,0,0,0-0.1l0,0l0.5,0.1c0-0.1-0.1-0.2-0.2-0.3l0.1-0.1c0,0,0,0,0.1,0c0,0,0.1,0,0.1,0c0,0,0-0.1,0-0.1
		c0,0,0,0,0-0.1c0-0.1,0.1-0.1,0.2-0.1c-0.2-0.1-0.2-0.2-0.3-0.3c0-0.1,0-0.3,0-0.5c0.1-0.1,0.2-0.1,0.2-0.2c0-0.1,0.1-0.1,0.1-0.1
		l0.6-0.1c0.1,0,0.1-0.1,0.1-0.1c0,0,0.1,0,0.3,0c0.1,0,0.3,0,0.4,0.1c0.1,0,0.3,0,0.4,0c0.1,0,0.2,0,0.3,0c0,0,0.1,0,0.3,0.1
		c0.1,0.1,0.2,0.1,0.3,0.1l0.3,0c0,0,0.1,0,0.2,0c0.1,0,0.2,0,0.3,0c0.4,0.1,0.7,0.2,1,0.3c0.3,0.1,0.6,0.2,1,0.3l0.3,0.1
		c0.2,0,0.5,0.1,0.8,0.1c0.3,0,0.5,0,0.6-0.2c0.7,0,1.4,0.1,2.1,0.1c0.7,0.1,1.4,0.2,2.1,0.3l0.4,0.1l-0.2,0.1c0.1,0,0.2,0,0.4,0.1
		c0.2,0.1,0.3,0.1,0.3,0.1c0.2,0,0.4,0.1,0.6,0.1c0.2,0,0.4,0,0.7,0l0.4,0.1l1,0l0.4-2.3l-12.4-4.4l0.1,0.2l-0.2-0.1
		c0,0-0.1,0-0.3-0.1c-0.2-0.1-0.3-0.1-0.6-0.2c-0.2-0.1-0.4-0.1-0.7-0.2c-0.2-0.1-0.4-0.1-0.5-0.2l-0.7-0.1c-0.1,0-0.1,0.1-0.1,0.1
		c0,0,0,0.1,0.1,0.1c0.1,0,0.1,0,0.1,0l-0.1,0l-0.3-0.1l0-0.1c0-0.2,0-0.4-0.1-0.6c-0.1-0.2-0.1-0.4-0.2-0.6c0,0,0,0,0,0
		c0,0,0,0,0-0.1l0-0.1c0-0.1,0.1-0.2,0.2-0.5c0.1-0.2,0.3-0.5,0.4-0.8c0.2-0.3,0.3-0.5,0.4-0.7c0.1-0.2,0.2-0.3,0.3-0.3l10.1-1.5
		l-0.2-0.1l-0.6-0.1c-1.1-0.2-2.3-0.4-3.4-0.5c-1.1-0.1-2.3-0.3-3.4-0.5c0,0-0.1,0-0.2,0c-0.1,0-0.1,0-0.2-0.1c0,0,0.1,0,0.1,0
		c0,0,0.1,0,0.1,0c0.1,0,0.3,0,0.5,0c0.3,0,0.5,0,0.5,0.1l0.1-0.1l-0.1,0l-2-0.2c-0.1,0-0.2-0.1-0.2-0.2c0-0.1,0-0.2,0-0.3
		c0-0.2,0.1-0.3,0.2-0.4c0.1-0.1,0.2-0.3,0.2-0.4l0.1-0.3l-0.1-0.3c0,0,0-0.1,0.1-0.2c0.1-0.1,0.1-0.2,0.1-0.2c0-0.1,0-0.2-0.1-0.3
		c-0.1-0.1-0.2-0.1-0.2-0.2c0.1-0.1,0.2-0.1,0.3-0.1c0.1,0,0.1-0.1,0.2-0.2c0.4,0,0.7,0,1.1,0c0.4,0,0.8,0,1.2,0.1l0-0.1l0-0.1
		l-0.5-0.2c1.1,0.1,2.2,0.3,3.3,0.5c1.2,0.2,2.3,0.4,3.3,0.5c0.1,0,0.2,0,0.4,0c0.2,0,0.4,0,0.7,0c0.3,0,0.5,0,0.7,0
		c0.2,0,0.4,0,0.4,0c0,0,0.1,0,0.3,0c0.2,0,0.3,0,0.4,0.1c0.5,0.1,1,0.2,1.5,0.4c0.5,0.2,1,0.4,1.5,0.4c0.1,0,0.1,0,0.2,0
		c0.1,0,0.1,0,0.2,0l0.1,0.1l0.5,0.2l0-0.1v0.1l0.7,0.3c0.1,0,0.2-0.1,0.3-0.1c0.1-0.2,0.2-0.5,0.2-0.9c0.1-0.4,0.2-1.1,0.3-2.1
		c0.1-1,0.3-2.4,0.5-4.2v-0.8c0.6,0.4,1.1,1.3,1.6,2.7c0.5,1.4,0.9,2.6,1,3.5v-0.6l8.3,29.9c0.1,0,0.1,0,0.2-0.1
		c0,0,0.1-0.1,0.2-0.1c0.4,0,0.7,0.1,0.8,0.4c0.2,0.2,0.4,0.4,0.8,0.4c-0.2,0.2-0.3,0.3-0.4,0.5c-0.1,0.2-0.2,0.4-0.2,0.5
		c0.6,0,1.2-0.2,1.6-0.6c0.4-0.4,0.7-0.9,0.9-1.4l0.5,0.4l0.7-0.7c0.1,0.2,0.3,0.4,0.6,0.4c0.6,0,1,0.1,1.1,0.4c0.6-0.4,1-1,1.4-1.9
		c0.4-0.9,0.9-1.3,1.6-1.3c0.1,0.1,0.2,0.1,0.2,0.2c0.1,0,0.2,0.1,0.4,0.3l0.4,0.4c0.2,0,0.3,0,0.5-0.1c0.2-0.1,0.3-0.2,0.3-0.2
		l1.2,1.6c0.1,0.1,0.2,0.1,0.4,0.1c0.3,0,0.7-0.1,1.1-0.4c0.4-0.3,0.8-0.4,1.1-0.4c0,0.8,0.3,1.2,1,1.2c0.2,0,0.4-0.1,0.8-0.3
		c0.4-0.2,0.8-0.4,1.3-0.7c0.4-0.3,0.9-0.6,1.3-0.8c0.4-0.3,0.7-0.5,0.8-0.7c0.1-0.1,0.2-0.3,0.5-0.6c0.2-0.3,0.5-0.6,0.7-1
		c0.2-0.3,0.4-0.6,0.6-0.9c0.2-0.3,0.3-0.4,0.3-0.3c0.3-0.6,0.7-1.5,1.1-2.5c0.4-1,0.6-2,0.6-2.9c0-0.5,0-0.8-0.1-1.1l3.2-13.3v-0.6
		c0-1.4,0.3-2.6,0.9-3.8c0.6-1.2,0.9-2.4,0.9-3.7c0-0.2,0-0.3-0.1-0.4c0-0.1-0.1-0.3-0.1-0.4l2-7.3c0-0.2,0.1-0.5,0.4-0.7
		c0.1,0.6,0.2,0.8,0.2,0.8c0.1,0,0.2,0,0.2-0.1c0.1-0.1,0.2-0.1,0.4-0.1l3.2,26.4l0.6,1.2v-2.4c0.2,0.5,0.3,0.9,0.4,1.4
		c0.1,0.4,0.2,0.9,0.2,1.5h-0.5l-0.4,0.4l3.2,25.4c0.2,0,0.3,0,0.4-0.1c0.1,0,0.2-0.1,0.4-0.1h0.8c0.6,0,0.8-0.2,0.8-0.5
		c0.2,0,0.3,0.1,0.5,0.4c0.2,0.2,0.3,0.4,0.4,0.6v-1.2c0-1.1-0.1-2.3-0.2-3.4c-0.2-1.2-0.2-2.3-0.2-3.5c0-0.3,0.2-0.6,0.5-0.7
		c-0.4-0.2-0.7-0.6-0.8-1.2c-0.6-4.6-1.1-9.3-1.5-14c-0.4-4.7-0.9-9.3-1.6-13.9c-0.2-1-0.4-1.9-0.6-2.8c-0.2-0.9-0.4-1.8-0.4-2.9
		c0-1,0.2-1.8,0.5-2.4c0.3-0.6,0.5-1.3,0.5-2.3c0-0.2,0-0.3-0.1-0.5c0-0.2-0.1-0.3-0.1-0.5l0.5-0.5l4.8,33.6v1.4
		c0,0.9-0.1,1.7-0.2,2.5c-0.2,0.8-0.2,1.6-0.2,2.5h0.5c0.2-1,0.4-2.3,0.8-3.7c0.4-1.4,1-2.4,2-2.8c0.3,0,0.5,0.1,0.5,0.4
		c0,0.1-0.1,0.3-0.2,0.8c-0.1,0.4-0.2,0.7-0.3,0.9v1.9c0.2-0.2,0.3-0.4,0.4-0.6c0.1-0.2,0.3-0.4,0.4-0.6c0.6,0.4,1.1,0.9,1.4,1.6
		c0.3,0.6,0.4,1.3,0.4,1.9c0,0.5,0,0.8-0.1,1l0.7-0.7c0.6,0.6,1,1.5,1,2.5v0.7c0.1-0.3,0.3-0.6,0.7-0.8l1.8,7.2v-1.2
		c0.2,0.2,0.3,0.3,0.5,0.5c0.2,0.2,0.4,0.3,0.7,0.3c0.1,0,0.3-0.2,0.6-0.5l0.4-0.4c0.1,0,0.3,0.1,0.6,0.2c0.3,0.2,0.6,0.2,0.7,0.2
		c0-0.1,0-0.2,0.1-0.2l0.2-0.2c0.2-0.3,0.5-0.8,0.7-1.4c0.2-0.6,0.4-1.3,0.5-2c0.1-0.7,0.2-1.4,0.3-2.1c0.1-0.7,0.1-1.3,0.1-1.7
		c0-0.4-0.1-0.7-0.4-0.8C216.6,98.3,216.4,98.1,216.4,97.7z M153,26.5C153,26.5,153,26.5,153,26.5c0,0.1,0,0.1-0.1,0.1
		c-0.1,0-0.1,0-0.1-0.1C152.8,26.4,152.8,26.4,153,26.5C152.9,26.5,152.9,26.5,153,26.5z M152.8,26.3l-0.6,0l-0.1-0.1L152.8,26.3z
		 M151.5,26.1c0,0,0.1,0,0.1,0c0.2,0,0.3,0.1,0.3,0.1c0,0-0.1,0-0.1,0l-0.2,0C151.5,26.2,151.5,26.2,151.5,26.1c-0.1,0-0.1,0-0.1,0
		C151.4,26.1,151.4,26.1,151.5,26.1z M147.7,7.3c-0.2,0.2-0.3,0.2-0.4,0.2C147.1,7.6,147.2,7.5,147.7,7.3z M142.8,24.3
		C142.7,24.4,142.7,24.4,142.8,24.3c-0.1,0-0.1,0-0.1,0L142.8,24.3z M142.3,20.7c0-0.3,0.1-0.5,0.1-0.6l0-0.1c0-0.1,0.1-0.2,0.1-0.2
		c0,0,0,0.1,0,0.3c0,0.1,0,0.3-0.1,0.4c0,0.2,0,0.3-0.1,0.4c0,0.1,0,0.2,0,0.3l0,0.2l-0.1-0.1C142.2,21.1,142.2,21,142.3,20.7z
		 M130.4,68.9C130.4,68.9,130.5,69,130.4,68.9C130.4,69,130.4,69,130.4,68.9c-0.1,0.1-0.1,0-0.1,0C130.3,68.9,130.3,68.9,130.4,68.9
		z M154,51.9c-0.1,0-0.1,0-0.2,0c0,0-0.1,0.1-0.1,0.1c0,0,0,0.1,0.1,0.1l0,0.1c0,0,0,0.1,0,0.3c0,0.2,0,0.3,0,0.3l-1.3-0.3l-0.1-0.1
		c0,0-0.1,0-0.3,0c-0.2,0-0.3,0-0.3,0l-0.1,0c0,0,0,0-0.1,0c-0.3,0-0.5,0-0.6,0c-0.1,0-0.1,0-0.1,0c0,0,0,0.1,0,0.1c0,0,0.1,0,0.1,0
		c0,0,0.2,0.1,0.3,0.1c0.2,0,0.4,0.1,0.6,0.1c0.2,0,0.4,0.1,0.6,0.1c0.2,0,0.4,0.1,0.5,0.1l0.1,0c0,0,0,0,0.1,0c0,0.1,0,0.1,0.1,0.2
		c0.1,0,0.2,0,0.2,0.1l-0.7,0.3c-0.1,0-0.3-0.1-0.4-0.1c0,0-0.1,0-0.2,0c-0.1,0-0.1,0-0.2-0.1c-0.1,0-0.3,0-0.4-0.1
		c-0.2,0-0.4,0-0.6-0.1c-0.7-0.1-1.6-0.2-2.9-0.4c-1.3-0.2-3.1-0.4-5.4-0.7c-0.9-0.1-1.9-0.3-2.9-0.4c-1-0.1-2.2-0.3-3.4-0.5l-0.3,1
		l0,0.2c0,0-0.1-0.1-0.2-0.1l-0.1,0c0,0,0,0.1,0,0.3c0,0.1,0,0.3-0.1,0.3l0,0.1c0,0,0,0.1-0.1,0.3c0,0.1-0.1,0.3-0.1,0.4
		c-0.1,0.1-0.1,0.3-0.1,0.4c0,0.1-0.1,0.2-0.1,0.3c-0.2,0.2-0.4,0.3-0.7,0.5c-0.3,0.2-0.5,0.3-0.7,0.4c0,0,0,0-0.1,0
		c-0.1,0-0.2,0-0.4,0.1c-0.1,0.1-0.3,0.2-0.4,0.1c0-0.1-0.1-0.1-0.1-0.1c-0.1,0-0.2,0-0.2,0.1c-0.1,0.1-0.1,0.1-0.2,0.1l-0.2,0
		c-0.1,0-0.1-0.1-0.1-0.1c0-0.1,0.1-0.2,0.1-0.3l0.4-1.4c0-0.1,0-0.2,0-0.3c0-0.1,0-0.2,0-0.2l0-0.1c0-0.1,0.1-0.2,0.1-0.2
		c-0.1,0-0.1-0.1-0.1-0.3c0-0.1,0-0.2,0-0.4l0-0.1l0.1,0c0-0.1,0-0.2,0-0.3l0-0.1c0,0,0,0,0.1-0.1c0,0,0,0,0.1-0.1c0,0,0-0.1,0-0.2
		c0-0.1-0.1-0.1-0.1-0.1l0.1-0.1l-0.1-0.1c0,0,0,0,0-0.1c0-0.1,0-0.1,0-0.2c0-0.1,0-0.1,0-0.2c0-0.1,0-0.1,0-0.1l0-0.1
		c0,0,0,0,0.1,0c0,0,0-0.1,0-0.1l-0.1-0.1l0.1-0.4c0.1-0.6,0.2-1.2,0.3-1.7c0.1-0.6,0.2-1.1,0.3-1.7L134,46c0-0.1,0.1-0.2,0.1-0.4
		c0.1-0.2,0.1-0.4,0.2-0.5c0.1-0.2,0.2-0.3,0.3-0.5c0.1-0.1,0.2-0.2,0.2-0.2c0,0,0.1,0,0.1,0.1l0.2,0c0.1,0,0.1,0.1,0.2,0.2
		c0.1,0.1,0.1,0.1,0.1,0.1c0.1,0,0.2,0,0.2,0c0.1,0,0.1,0,0.2,0c0.1,0,0.2,0.1,0.2,0.2c0-0.1,0.1-0.2,0.2-0.3
		c0.1-0.1,0.2-0.1,0.3-0.1l0.1,0c0.1,0,0.1,0,0.1,0.1c0,0,0,0.1,0,0.2c0.1,0,0.1,0,0.1,0c0,0,0,0,0,0.1c0,0,0,0.1,0,0.1
		c0,0,0,0.1,0.1,0.1l0.1-0.1c0,0.2,0,0.4,0,0.6c0,0.2-0.1,0.4-0.1,0.7c0,0.1,0,0.2-0.1,0.3c0,0.1,0,0.2-0.1,0.3l0.3,0.2l0.1-0.1
		c0.3,0,0.6,0.1,0.9,0.1c0.3,0,0.5,0,0.8,0.1c0.3,0,0.5,0.1,0.7,0.1l0.5,0.1c0,0,0.1,0,0.1,0c0.1,0,0.1,0,0.1,0l0.2,0
		c-0.3-0.1,0.1,0.1,1.4,0.4c1.3,0.3,3.4,0.8,6.2,1.4c0.1,0,0.3,0.1,0.5,0.1c0.2,0,0.4,0.1,0.8,0.1c0.3,0.1,0.7,0.1,1.2,0.2
		c0.5,0.1,1,0.2,1.7,0.3l-0.1,0.1l0.1,0.1c0,0,0.1,0.1,0.3,0.1c0.2,0,0.3,0.1,0.5,0.1c0.2,0.1,0.3,0.1,0.5,0.2
		c0.1,0.1,0.2,0.1,0.2,0.3l0,0.1c0,0.1,0,0.2,0.1,0.2c0,0,0.1,0,0.1,0L154,51.9z M152.9,43.9C152.9,43.9,153,43.9,152.9,43.9
		c0.1,0,0.1,0,0.2,0c0,0,0.1,0,0.1,0c0,0,0,0,0.1,0c0,0,0,0-0.1,0C153,44,152.9,44,152.9,43.9z M154.2,37.4c-0.1,0-0.4-0.1-0.7-0.1
		c-0.3,0-0.6-0.1-1-0.1c-0.3,0-0.7-0.1-1-0.1c-0.3,0-0.5,0-0.6,0l2.3,0.3l-4.4-0.4l0.9,0.2l-1.5-0.1c-0.3,0-0.4,0.1-0.5,0.4l0,0.1
		c0,0.1,0,0.1,0,0.3c0,0.1,0,0.3,0,0.4c0,0.2,0,0.3,0,0.4c0,0.1,0,0.2,0,0.3c0,0.1,0.1,0.2,0.4,0.2c0.2,0,0.4,0.1,0.6,0.1
		c0.2,0,0.5,0,0.7,0c0.3,0,0.5,0,0.7,0c0.2,0,0.4,0,0.6,0.1c0.2,0,0.3,0.1,0.3,0.1l0-0.1l1.7,0.5l1.2,0.2l0.2,0.1l-0.1,0.1
		c-0.2,0.1-0.3,0.1-0.3,0.2c0,0,0,0.1,0.1,0.2c0.1,0.1,0.1,0.2,0.2,0.3c0.1,0.2,0.2,0.4,0.3,0.6c0.1,0.3,0.2,0.6,0.2,1
		c0.1,0,0.1,0,0.2,0c0.1,0,0.1,0,0.2,0c0.1,0,0.2,0.1,0.2,0.1c0,0,0,0.1,0.1,0.2c0,0.1,0.1,0.2,0.1,0.3c0,0.1,0.1,0.2,0.1,0.3
		c0,0.1,0,0.2,0,0.2c0,0.1,0,0.2-0.1,0.2c0,0.1-0.1,0.1-0.3,0c0-0.1-0.1-0.1-0.1-0.1l-0.2,0c-0.1,0-0.2,0-0.4,0c-0.2,0-0.4,0-0.6,0
		c-0.2,0-0.4,0-0.6,0c-0.2,0-0.3,0-0.4,0c0,0.1-0.1,0.1-0.2,0.1c0,0-0.1,0-0.2-0.1c0,0-0.1,0-0.1,0c-0.1,0-0.2,0-0.5,0
		c-0.2,0-0.6-0.1-1.1-0.1c-0.5-0.1-1.2-0.1-2-0.2c-0.9-0.1-1.9-0.2-3.2-0.3c-1.3-0.1-2.9-0.3-4.8-0.5l-0.2,0l0.5,0.1
		c0.1,0,0.3,0.1,0.6,0.1c0.2,0,0.4,0.1,0.6,0.1c0.2,0,0.4,0.1,0.4,0.2c0,0.1-0.2,0.2-0.5,0.3c-0.3-0.1-0.6-0.1-1-0.2
		c-0.4-0.1-0.7-0.1-1-0.2c-0.3-0.1-0.6-0.1-0.9-0.1c-0.3,0-0.5,0-0.6,0c0.2,0.1,0.3,0.1,0.5,0.2c0.1,0,0.3,0.1,0.5,0.1
		c0.3,0.1,0.6,0.1,0.8,0.1c0.3,0,0.6,0,0.9,0.1c0.1,0,0.2,0,0.3,0.1c0.1,0,0.2,0.1,0.3,0.1l0.1,0.1l-1.1-0.2l-0.1,0.1
		c0-0.1-0.1-0.1-0.2-0.1c-0.1,0-0.2,0-0.3,0l-3.7-0.6c-0.1,0-0.1,0-0.2,0.1c0,0-0.1,0-0.2,0c0,0-0.1,0-0.3-0.1
		c-0.1,0-0.2-0.1-0.3-0.1c-0.1-0.2-0.1-0.4-0.1-0.7c0-0.2,0-0.5,0-0.7c0-0.2,0-0.5,0-0.7c0-0.2,0-0.4-0.1-0.7
		c0.2-0.1,0.3-0.2,0.4-0.3c0-0.1,0.1-0.3,0.2-0.4c0,0,0,0,0.1,0c0,0,0.1,0,0.1,0c0,0,0,0,0,0c0,0,0,0,0.1-0.1l0.4-1
		c0.1-0.1,0.2-0.2,0.4-0.2c0.2,0,0.3,0,0.5,0.1l0.4,0.1c0.6,0.1,1.3,0.1,2,0.2c0.7,0.1,1.5,0.2,2.3,0.4l2.8,0.2l-0.1-2.8l-0.1-0.1
		c0,0-0.1-0.1-0.2-0.1c0,0-0.1,0-0.1,0c-0.9-0.2-1.9-0.4-2.8-0.6c-0.9-0.2-1.9-0.4-2.8-0.6c-0.1,0-0.1,0-0.2-0.1
		c-0.1,0-0.2-0.1-0.3-0.1c-0.1,0-0.3,0-0.4-0.1c-0.2,0-0.3,0-0.4,0.1l0.1,0.1c-0.1,0-0.1,0-0.2,0c0,0-0.1,0-0.1,0
		c-0.3-0.1-0.6-0.1-0.9-0.1c-0.3,0-0.6,0-0.9-0.1c0-0.2,0.1-0.5,0.2-0.7c0,0,0.1,0,0.1,0c0,0,0.1,0,0.1,0c0,0,0-0.1,0-0.1
		c0-0.1,0-0.1,0-0.1c0,0,0-0.1,0.1-0.2c0.1-0.1,0.1-0.1,0.1-0.2c0.1-0.1,0.2-0.3,0.2-0.4c0.1-0.2,0.2-0.3,0.3-0.4
		c0.2-0.1,0.4-0.2,0.7-0.3c0.3-0.1,0.5-0.2,0.6-0.4l0-0.1c0.1-0.2,0.2-0.3,0.4-0.3c0.2-0.1,0.4-0.1,0.7-0.1c0.2,0,0.5,0,0.7,0
		c0.2,0,0.4-0.1,0.5-0.1l-0.2,0c0.1-0.1,0.2-0.2,0.3-0.2c0.1,0,0.3,0,0.4,0c1.1,0.1,2.3,0.2,3.4,0.5c1.1,0.2,2.3,0.4,3.4,0.6
		c0.6,0.1,1.2,0.2,2,0.3c0.7,0.1,1.5,0.2,2.3,0.3c0.8,0.1,1.5,0.2,2.3,0.3c0.7,0.1,1.4,0.2,2,0.3c0,0,0.1,0,0.2,0.1
		c0.1,0,0.2,0.1,0.3,0.1c0.1,0.1,0.2,0.1,0.3,0.2c0.1,0.1,0.1,0.1,0.1,0.2l-0.1,0.1l0.2,0.2c0,0,0,0,0,0c0,0,0,0,0,0
		c-0.1,0-0.2,0-0.2,0.1c0,0.1,0,0.1,0.1,0.2c0,0.1,0.1,0.1,0.2,0.2l0.1,0c0,0.1,0,0.2,0,0.3c0,0.1,0,0.2,0.1,0.2l-0.2,0.8
		c-0.1,0-0.2,0.2-0.2,0.3c0,0.2-0.1,0.3-0.2,0.3c0,0,0,0.1,0,0.2c0,0.1,0,0.2,0,0.2c0,0,0,0.1-0.1,0.1c0,0.1-0.1,0.1-0.1,0.1l0,0.1
		c0,0,0,0,0,0c0,0,0,0.1,0,0.1c0,0.1,0,0.1,0,0.1c0,0,0,0-0.1,0c0,0,0,0,0,0c0,0,0,0,0,0l0,0c0,0,0,0,0,0.1c0,0,0,0.1,0,0.1
		c-0.2,0.2-0.4,0.3-0.5,0.2c-0.2,0-0.4,0-0.7,0.1l-0.4-0.1l0,0.1c-0.1,0-0.1,0-0.2-0.1c0,0-0.1-0.1-0.1-0.2c0,0-0.1-0.1-0.2-0.2
		c-0.1-0.1-0.2-0.1-0.3-0.1l-0.1,0C154.2,37.2,154.2,37.3,154.2,37.4z M153.6,37.4C153.6,37.4,153.6,37.4,153.6,37.4
		c-0.1,0-0.1,0-0.1,0L153.6,37.4z M150.2,37.3c0,0,0,0-0.1,0c0,0-0.1,0-0.1-0.1C150,37.2,150.1,37.2,150.2,37.3
		C150.2,37.2,150.2,37.2,150.2,37.3z M137.8,34.6c0,0,0.1,0,0.2,0c0.1,0,0.2,0,0.2,0.1c0,0-0.1,0-0.2,0
		C137.9,34.7,137.9,34.7,137.8,34.6C137.8,34.7,137.8,34.7,137.8,34.6z M138.3,34.7c0,0,0.1,0,0.2,0c0.1,0,0.1,0,0.1,0.1
		c0,0,0,0-0.2,0C138.4,34.8,138.3,34.8,138.3,34.7z M156.2,37.8L156.2,37.8L156.2,37.8L156.2,37.8z M161.9,88c0,0.9-0.1,1.6-0.2,2.1
		c-0.2,0.5-0.5,1.2-1.1,2c-0.1-0.4-0.2-1-0.4-1.7c-0.2-0.7-0.6-1.2-1.1-1.6c-1.1-2.9-1.9-6-2.5-9.4c-0.5-3.4-0.8-6.6-0.8-9.7V67
		l0.4-1.2c0.2,0.2,0.3,0.4,0.5,0.8c0.2,0.4,0.3,0.7,0.3,0.8c0.1,0.3,0.2,0.9,0.3,1.8c0.1,0.9,0.3,1.8,0.4,2.8c0.2,1,0.3,1.9,0.5,2.8
		c0.2,0.9,0.2,1.5,0.2,1.8v-2l3.5,12.1V88z M162.4,77.2c0-0.3,0.1-0.5,0.2-0.5c0.1,0.1,0.1,0.2,0.1,0.5c0,0.2,0,0.4-0.1,0.4
		C162.4,77.5,162.4,77.4,162.4,77.2z M162.6,83.2v-0.6c0-0.4,0-0.7,0.1-0.9c0-0.2,0.2-0.5,0.4-0.9C163.1,81.6,162.9,82.4,162.6,83.2
		z M174.7,35.2c0.1,0,0.1,0.1,0.1,0.4C174.8,35.5,174.7,35.4,174.7,35.2z M175.9,31.1v-0.8h0.5C176.4,30.7,176.2,31,175.9,31.1z
		 M180,17.8l-0.4-0.8h0.8C180.5,17.4,180.3,17.7,180,17.8z M190.4,12.1c-0.2-0.1-0.4-0.3-0.4-0.6v-1c0.2,0.2,0.3,0.3,0.5,0.4
		c0.2,0.1,0.3,0.3,0.3,0.5C190.9,11.8,190.8,12,190.4,12.1z M191.5,7.2c-0.1,0.2-0.2,0.2-0.2,0.1c0-0.3,0.1-0.5,0.4-0.5
		C191.6,6.9,191.6,7,191.5,7.2z M193,9.7c-0.1-0.1-0.1-0.2-0.1-0.5c0-0.5,0.3-1,0.8-1.6c0,0.1,0,0.2,0.1,0.3c0,0.1,0.1,0.2,0.1,0.3
		C193.8,9,193.5,9.5,193,9.7z M198.1,94.1c0.6,0.3,1,0.8,1.1,1.4c0.1,0.6,0.2,1.2,0.2,1.9c0,0.4,0,0.7-0.1,1c0,0.3-0.2,0.6-0.4,1
		c-0.1-0.2-0.2-0.6-0.2-1.3c-0.1-0.7-0.1-1.1-0.1-1.3v-1.6h-0.5V94.1z M197.8,99.7v-1.6l0.8,5.2h-0.5c-0.1,0-0.1-0.2-0.2-0.5
		c0-0.4-0.1-0.7-0.1-1.1c0-0.4-0.1-0.8-0.1-1.2C197.8,100,197.8,99.8,197.8,99.7z M197.4,96.1c0.1,0.1,0.1,0.3,0.1,0.6
		c0,0.3,0,0.5-0.1,0.6c-0.2,0.2-0.2,0-0.2-0.6C197.2,96.2,197.2,96,197.4,96.1z M195.7,84.8c-0.2,0-0.4-0.2-0.4-0.5
		c0-0.3,0.1-0.6,0.4-0.8V84.8z M196.4,88.3c0-0.3,0.1-0.4,0.2-0.3c0.1,0.2,0.1,0.4,0.1,0.6c0,0.2,0,0.5,0,0.7c0,0.7,0,1.1-0.1,1.2
		c-0.1,0.2-0.1,0.1-0.2-0.2c0-0.3-0.1-0.6-0.1-1C196.3,88.9,196.3,88.5,196.4,88.3z M196.2,87c0,0.4,0,0.6-0.1,0.6
		c-0.2,0.2-0.2,0-0.2-0.6c0-0.6,0.1-0.8,0.2-0.6C196.2,86.5,196.2,86.7,196.2,87z M196.9,54.5c-0.1-0.1-0.2-0.3-0.2-0.5
		c-0.1-0.3-0.1-0.5-0.1-0.7c0-0.3,0.1-0.6,0.4-0.8V54.5z"/>
	<path fill="#FFFFFF" d="M152.2,36.9c-0.3,0-0.6-0.1-0.8-0.1c-0.3,0-0.4,0-0.5,0l2.7,0.4l0-0.1c-0.1,0-0.3,0-0.5-0.1
		C152.8,37,152.6,36.9,152.2,36.9z"/>
	<path fill="#FFFFFF" d="M132.5,69C132.5,69,132.5,69,132.5,69L132.5,69C132.5,68.9,132.5,68.9,132.5,69C132.4,69,132.4,69,132.5,69
		C132.4,69,132.4,69,132.5,69z"/>
	<path fill="#FFFFFF" d="M131.5,32.4v-2.2c0-1.4,0-2.5-0.1-3.4c0-0.9-0.1-2.2-0.3-3.8c0.1,1.8,0.1,3.3,0.1,4.5c0,1.2,0,2.1,0.1,2.8
		C131.4,31.2,131.4,31.9,131.5,32.4z"/>
	<path fill="#FFFFFF" d="M149.8,26.1L149.8,26.1c0.3,0.1,0.5,0.1,0.6,0.1c0.2,0,0.3,0,0.6,0l-1.3-0.3
		C149.6,26,149.7,26.1,149.8,26.1z"/>
</g>
<g>
	<path fill="#FFFFFF" d="M244.7,86.7c-0.1,0.1-0.2,0.2-0.2,0.3c-0.1,0.1-0.2,0.3-0.2,0.6c0,0-0.1,0.1-0.3,0.1c-0.1,0-0.2,0-0.3,0.1
		c0,0-0.1,0-0.2,0.1c-0.1,0-0.2,0.1-0.3,0.1c-0.1,0-0.2,0.1-0.3,0.1c-0.1,0-0.2,0.1-0.2,0.1c-0.1,0-0.1,0-0.1,0c0,0,0,0-0.1-0.1
		l-4.8,0.2l-0.5-0.1c-0.1,0-0.1,0-0.2,0c-0.1,0-0.2,0-0.3,0c-0.3,0-0.7-0.1-1.2-0.2c-0.5-0.1-1.1-0.3-1.7-0.5
		c-0.6-0.2-1.2-0.4-1.9-0.6c-0.7-0.2-1.3-0.5-2-0.7c-0.6-0.3-1.2-0.5-1.8-0.8c-0.6-0.3-1-0.6-1.4-0.9l0.2,0.2l-0.6-0.4
		c0,0.1,0,0.2,0,0.3c0,1.5-0.2,3.3-0.5,5.3c-0.4,2-0.5,3.8-0.5,5.3c0,0.3,0,1,0.1,2.2c0,1.1,0.1,1.8,0.1,2.2c0.4,0.9,0.8,1.5,1.1,2
		c0.3,0.4,1,0.7,2.2,0.7c0.4,0,0.7-0.2,0.8-0.7c0.1-0.4,0.5-0.7,1.1-0.7c0.4,0,0.7,0.1,1,0.2c0.3,0.2,0.6,0.2,1,0.2
		c0.8,0,1.6-0.1,2.5-0.4c0.9-0.3,1.7-0.4,2.4-0.4c0.1,0,0.2,0.1,0.5,0.2c0.2,0.1,0.4,0.2,0.5,0.2c0.4,0,0.8-0.2,1.1-0.7
		c0.3-0.4,0.5-0.8,0.6-1l0.5,0.4c0.1-0.1,0.3-0.3,0.5-0.7c0.3-0.4,0.6-0.8,0.9-1.2c0.3-0.4,0.6-0.9,0.8-1.3c0.2-0.4,0.4-0.8,0.4-1
		c0-0.2,0.2-1,0.5-2.4c0.2-1.1,0.6-2.9,1-5.4c0-0.3,0.1-0.5,0.1-0.8C244.8,86.6,244.8,86.6,244.7,86.7z"/>
	<path fill="#FFFFFF" d="M226.5,84.1c0.1,0.1,0.1,0.1,0.2,0.1c0,0,0.1,0,0.1,0c0-0.1-0.1-0.2-0.2-0.2c-0.1-0.1-0.2-0.1-0.2-0.1
		C226.3,84,226.4,84.1,226.5,84.1z"/>
	<path fill="#FFFFFF" d="M246.6,74.8c0-0.2,0-0.3,0.1-0.4c0,0-0.1,0.1-0.1,0.1l-1.2,0.2c0,0,0,0,0,0.1c0,0-0.1,0-0.1,0
		c0,0-0.1,0-0.2-0.1c-0.1,0-0.2,0-0.3-0.1c-0.1,0-0.2,0-0.2,0.1L229,73.7c0,0,0,0,0,0c0,0.2,0,0.4-0.1,0.5c-0.1,0.1-0.1,0.1-0.2-0.1
		c0-0.1-0.1-0.3-0.1-0.4c0,0,0,0,0-0.1l-0.9-0.1l-0.5,3.5c0.1,0,0.2-0.1,0.4-0.2c0.2-0.1,0.3-0.1,0.4-0.2c0,0,0,0,0.1,0
		c0,0,0-0.1,0.1-0.1l-0.3,0l0.1-0.1c0.1,0,0.2-0.1,0.3-0.1c0.1-0.3,0.1-0.7,0.2-1.1v1c0.2-0.1,0.5-0.2,0.7-0.3
		c0.4-0.2,0.9-0.2,1.3-0.1c0.4,0,0.7,0.2,1,0.5l2.7,0.2l0.1-0.1c0.2,0,0.5,0.1,0.7,0.1c0.3,0,0.5,0,0.7-0.1l-0.2,0
		c0.1,0,0.2,0,0.5,0c0.3,0,0.4,0.1,0.5,0.1c0.1,0,0.3,0.1,0.5,0.1c0.3,0.1,0.5,0.1,0.8,0.2c0.3,0.1,0.5,0.1,0.8,0.2
		c0.3,0.1,0.4,0.1,0.5,0.1l-0.2,0l0.8,0.4c0.2,0.1,0.4,0.2,0.5,0.2c0.1,0.1,0.3,0.1,0.4,0.2c0.1,0.1,0.2,0.1,0.3,0.1
		c0.1,0,0.2,0.1,0.4,0.2c0.2,0.1,0.2,0.2,0.2,0.2c0.1,0,0.2,0.1,0.2,0.1c0.1,0,0.1,0.1,0.2,0.1c0.1,0,0.1,0.1,0.2,0.1
		c0,0,0.1,0,0.1,0.1c0,0,0.1,0,0.2,0.1c0.1,0.1,0.2,0.1,0.3,0.2c0.1,0.1,0.3,0.3,0.5,0.5l2,2.5l0.3,0.6c0,0,0,0.1,0,0.2
		c0,0.1,0,0.2,0,0.3c0.3-1.9,0.8-4.1,1.2-6.6c-0.1-0.1-0.1-0.5-0.1-1.2C246.6,75.2,246.6,75,246.6,74.8z"/>
	<path fill="#FFFFFF" d="M246.9,72.9c0-0.1,0-0.1,0-0.2l-0.1,0.1L246.9,72.9z"/>
	<path fill="#FFFFFF" d="M246.7,72.7c0.1,0,0.1,0,0.2,0l0,0c0-0.1,0-0.2,0-0.4c-0.1,0-0.1-0.1-0.3-0.1l0.1,0.2l-0.2,0.3
		C246.5,72.7,246.6,72.7,246.7,72.7z"/>
	<path fill="#FFFFFF" d="M246.7,73.3c0,0,0.1,0,0.1,0.1c0-0.1,0-0.3,0.1-0.5c-0.1,0-0.2,0.1-0.2,0.1c-0.1,0-0.1,0.1-0.1,0.2
		C246.5,73.3,246.6,73.3,246.7,73.3z"/>
	<path fill="#FFFFFF" d="M246.9,72.2C246.9,72.2,246.9,72.2,246.9,72.2L246.9,72.2L246.9,72.2z"/>
	<path fill="#FFFFFF" d="M227.1,82.2c-0.1,0-0.1,0-0.1,0.1c0,0.2,0,0.3,0.1,0.3c0.1,0,0.2,0.1,0.2,0.2l-0.1,0.1
		c0.1,0.1,0.1,0.1,0.2,0.2c0.1,0.1,0.2,0.1,0.3,0.1l-0.3-0.2c0.3,0,0.5,0.1,0.7,0.2c0.2,0.1,0.5,0.2,0.7,0.2c0-0.1-0.1-0.1-0.1-0.1
		c-0.1,0-0.1-0.1-0.1-0.1l0.4,0.1c-0.4-0.2-0.7-0.4-0.9-0.5c-0.2-0.1-0.4-0.2-0.6-0.3c-0.2-0.1-0.3-0.1-0.3-0.1
		C227.2,82.2,227.1,82.2,227.1,82.2z"/>
	<path fill="#FFFFFF" d="M234,78.3l0.2,0c0-0.1-0.1-0.1-0.2-0.2L234,78.3z"/>
	<path fill="#FFFFFF" d="M238.3,32.5c0.1,0,0.2,0,0.3-0.1l0.9,0.1l0.1,0.1l0.9,0.1l0-0.2l-3-0.4c-0.1-0.1-0.2-0.1-0.3-0.1
		c-0.1,0-0.2,0-0.3-0.1l-0.2,0c0,0-0.1,0-0.1,0c0,0-0.1,0-0.1,0l-0.2,0L236,32c0.4,0.1,0.7,0.2,1.1,0.2c0.4,0.1,0.7,0.1,1.1,0.2
		L238.3,32.5z"/>
	<path fill="#FFFFFF" d="M236.2,40.1C236.2,40.1,236.3,40.1,236.2,40.1C236.3,40,236.2,40,236.2,40.1C236.1,40,236.1,40,236.2,40.1
		C236.1,40,236.1,40.1,236.2,40.1z"/>
	<path fill="#FFFFFF" d="M227.4,80.8c0.1,0.2,0.1,0.4,0.2,0.5c0,0.1,0.1,0.3,0.2,0.5l-0.2,0c0,0,0.1,0.1,0.1,0.1
		c0.1,0,0.1,0.1,0.2,0.1c0,0,0.1,0,0.2,0c0.1,0,0.1,0,0.2,0c0.1,0,0.1,0,0.2,0c0.1,0,0.2,0,0.2,0l3.3,1.3l5.4,1.2l0.1-0.1l1.6,0.2
		c0,0,0.2,0,0.4,0c0.2,0,0.5,0,0.8,0.1c0.3,0,0.5,0,0.8,0c0.2,0,0.4-0.1,0.4-0.2c0.2,0,0.5,0,0.7,0c0.2,0,0.4-0.1,0.6-0.3
		c0-0.1-0.1-0.1-0.2-0.2c-0.1-0.1-0.1-0.1-0.2-0.2l-2.4-1.4c0-0.2-0.1-0.3-0.3-0.3c-0.1,0-0.2-0.1-0.3-0.3c-0.1,0-0.2-0.1-0.4-0.1
		c-0.2-0.1-0.4-0.1-0.6-0.2c-0.2-0.1-0.4-0.1-0.6-0.2c-0.2-0.1-0.3-0.1-0.4-0.1c0,0-0.1,0-0.2,0c-0.1,0-0.2,0-0.3-0.1
		c-0.1,0-0.2,0-0.3,0c-0.1,0-0.1,0-0.2-0.1c-0.1,0-0.1,0-0.2-0.1c-0.1,0-0.2-0.1-0.3-0.1l0.2-0.1c-0.1-0.1-0.3-0.1-0.5-0.1
		c-0.2,0-0.4-0.1-0.6-0.1l0,0.1c-0.1,0-0.2-0.1-0.2-0.2l-2.2-0.3c-0.1-0.1-0.1-0.1-0.2-0.1c0,0-0.1,0-0.1,0c0,0,0,0-0.1,0
		c0,0-0.1-0.1-0.1-0.1l-0.9-0.1l0.1,0.1l-0.3,0c0,0,0,0-0.1,0c0,0-0.1,0-0.1,0c0,0-0.1,0-0.2-0.1c-0.1,0-0.1,0-0.1,0c0,0,0,0,0,0
		c0,0,0,0,0,0c0,0,0,0,0,0l0,0.1c-0.1,0-0.2,0-0.5,0c-0.3,0-0.5,0-0.8,0c-0.3,0-0.5,0.1-0.8,0.1c-0.2,0.1-0.4,0.1-0.4,0.3
		c0,0.1,0,0.1,0,0.1c0,0,0,0,0,0c0,0,0,0,0,0c-0.1,0-0.2,0-0.3,0.1C227.6,80.7,227.5,80.8,227.4,80.8z"/>
	<path fill="#FFFFFF" d="M233.6,35.7c0.6,0,1.3,0,2,0.1c0.7,0,1.5,0.1,2.4,0.2l2.8,0l-0.2-2.8l-0.1-0.1c0,0-0.1-0.1-0.2-0.1
		c-0.1,0-0.1,0-0.1,0c-1-0.1-1.9-0.3-2.8-0.5c-0.9-0.2-1.9-0.3-2.8-0.5c-0.1,0-0.2,0-0.2,0c-0.1,0-0.2,0-0.3-0.1l-0.5,3.6
		L233.6,35.7z M234.1,32.3c0.1,0,0.1,0,0.1,0C234.2,32.3,234.2,32.3,234.1,32.3c-0.1,0-0.2,0-0.2,0C233.9,32.2,234,32.2,234.1,32.3z
		"/>
	<polygon fill="#FFFFFF" points="227.8,82.2 227.9,82.2 227.8,82.1 	"/>
	<path fill="#FFFFFF" d="M239.2,79.6c0,0,0,0-0.1,0c-0.1,0-0.1,0-0.1,0c0,0,0,0.1,0.1,0.1C239.2,79.6,239.3,79.6,239.2,79.6z"/>
	<path fill="#FFFFFF" d="M232.7,79.2c0.2,0.1,0.4,0.2,0.5,0.3c0.1,0.1,0.3,0.2,0.5,0.3c0.1,0,0.1,0,0.3,0c0.1,0,0.3,0,0.4,0
		c0.2,0,0.3,0,0.4,0c0.1,0,0.2,0,0.3,0l0.3,0c0.5,0.1,0.9,0.2,1.4,0.3c0.4,0.2,0.9,0.3,1.3,0.5c0.4,0.1,0.8,0.2,1.2,0.3
		c0.4,0.1,0.8,0.2,1.2,0.3l-0.1-0.1c-0.1,0-0.2-0.1-0.4-0.2c-0.2-0.1-0.3-0.2-0.4-0.2l0.2-0.1c0.1,0.1,0.3,0.1,0.4,0.2
		c0.1,0,0.2,0.1,0.3,0.1c0.1,0,0.2,0.1,0.3,0.1c0,0,0,0,0.1,0c0,0,0.1,0,0.1,0c0,0,0.1,0,0.1,0c0.1,0,0.1-0.1,0.1-0.2
		c0,0-0.1-0.1-0.2-0.2c-0.1-0.1-0.2-0.2-0.3-0.3c-0.1-0.1-0.2-0.2-0.3-0.3c-0.1-0.1-0.1-0.1-0.1-0.2l-1.9-0.6l-0.2-0.1l0.5,0.1
		c-0.1-0.1-0.3-0.2-0.6-0.3c-0.3-0.1-0.5-0.1-0.8-0.2c-0.1,0-0.3,0-0.4,0c-0.1,0-0.2,0-0.3,0c0.1,0,0.2,0,0.2,0.1
		c0.2,0.1,0.3,0.1,0.4,0.1l0.8,0.3c0,0-0.1,0-0.1,0c0,0-0.1,0-0.1,0c0,0-0.1,0-0.1,0c0,0-0.1,0-0.1,0c0,0,0,0-0.1,0c0,0-0.1,0-0.1,0
		c0,0,0,0-0.1,0c0,0,0,0,0-0.1l-1.3-0.3l0-0.1l-0.4,0l-0.5-0.1l0.3,0l-1.7-0.2l0,0.2c0,0-0.1,0-0.1,0.1l-0.8-0.1l0.2,0.2l-0.2,0
		l0.7,0.4c0.1,0,0.1,0.1,0.1,0.2c-0.1,0-0.3,0-0.4,0C232.9,79.2,232.8,79.2,232.7,79.2z M234.9,78.7L234.9,78.7
		C234.8,78.7,234.8,78.7,234.9,78.7L234.9,78.7z"/>
	<path fill="#FFFFFF" d="M251.9,63.5c0,0.1,0,0.1,0.1,0.1v-0.1c-0.1-0.1-0.1-0.2-0.1-0.2V63.5z"/>
	<path fill="#FFFFFF" d="M268.8,9.6c0.2,0,0.2-0.1,0.2-0.4c0-0.2,0-0.4-0.1-0.5c-0.2,0-0.2,0.2-0.2,0.5
		C268.7,9.5,268.7,9.6,268.8,9.6z"/>
	<path fill="#FFFFFF" d="M249.3,33.7c-0.1,0-0.3,0-0.5,0c-0.3,0-0.6,0-0.9,0c-0.3,0-0.6,0-0.8,0c-0.3,0-0.4,0-0.5,0l2.7,0.2
		L249.3,33.7z"/>
	<path fill="#FFFFFF" d="M246.9,39.7c0.3,0,0.6,0,0.9,0c0.3,0,0.6,0,0.9,0c0.1,0,0.2,0,0.4,0c0.2,0,0.4,0,0.7,0c0.2,0,0.5,0,0.7,0
		c0.2,0,0.4,0,0.4,0c0,0-0.1,0-0.2-0.1c-0.1,0-0.2,0-0.2,0c-0.4-0.1-0.8-0.1-1.3-0.1c-0.4,0-0.8,0-1.3-0.1c-0.1,0-0.2,0-0.2,0
		c-0.1,0-0.1,0-0.2,0c-0.1,0-0.1,0-0.3-0.1l0.1,0.2l-0.2,0c-0.2,0-0.3-0.1-0.3-0.1l0.1,0.2L246.9,39.7
		C246.8,39.7,246.9,39.7,246.9,39.7z"/>
	<path fill="#FFFFFF" d="M250.2,49.1l-0.3,0c-0.1,0-0.2,0-0.2,0.1c0.1,0,0.2,0.1,0.3,0.1c0,0,0,0,0-0.1c0,0,0-0.1,0.1-0.1
		C250.1,49.1,250.1,49.1,250.2,49.1z"/>
	<polygon fill="#FFFFFF" points="239.5,22.1 239.6,22 239.4,22 	"/>
	<path fill="#FFFFFF" d="M289.9,60.2c0-0.4,0-1-0.1-1.8c0-0.8-0.1-1.2-0.1-1.3c0-0.2-0.1-0.9-0.2-1.9c-0.1-1-0.3-2.2-0.4-3.4
		c-0.2-1.2-0.3-2.3-0.5-3.3c-0.2-1-0.2-1.6-0.2-1.9c-0.6-5-0.8-10.3-0.7-15.9c0.1-5.6-0.1-11-0.5-16l-0.5,2.3l-0.2,0.2l-0.2,0.1
		c-0.2-1.9-0.4-3.8-0.7-5.6c-0.3-1.8-0.6-3.6-1-5.3c-0.6,0-0.9-0.2-1.1-0.6c-0.2-0.4-0.4-0.8-0.7-1.1c0,0.3-0.2,0.7-0.5,1.3
		c-0.4,0.5-0.7,0.8-1.1,0.9c-0.2,0-0.5-0.1-1.1-0.2c-0.6-0.2-0.9-0.2-1-0.2l-1.3,1h-1.6c-0.9,0-1.6-0.2-2.2-0.5
		c-0.6-0.3-1.3-0.5-2.2-0.5c-0.4,0-0.8,0.1-1.3,0.2c-0.4,0.1-0.7,0.5-0.7,1.1l1,9.6v0.5l-0.5-0.5c0-0.4-0.1-1.3-0.2-2.6
		c-0.1-1.3-0.2-2.2-0.3-2.6c0-0.1-0.1-0.2-0.2-0.4c-0.1-0.2-0.2-0.4-0.2-0.5c0,0.3,0,0.7-0.1,1c0,0.4-0.1,0.6-0.1,0.8
		c0,5.5,0.2,11,0.7,16.4c0.5,5.4,0.7,10.9,0.7,16.4v2.9l-0.5,0.8L254,4.3c0-0.2-0.5-0.5-1.6-1c-1.1-0.5-2.3-1-3.7-1.4
		c-1.4-0.5-2.7-0.9-3.9-1.3c-1.2-0.4-2-0.6-2.3-0.6h-0.6c-0.2,0.1-0.2,0.1-0.2,0.2c0,0,0,0.1-0.1,0.2c-0.6,0.4-1.4,0.9-2.4,1.4
		c-1,0.6-2,0.8-2.9,0.8h-0.5v1.4v0.5c0-0.1,0-0.3,0.1-0.6c0-0.3,0.1-0.5,0.3-0.5c0.1,0,0.2,0.2,0.5,0.5v3.5
		c-0.1,0.7-0.2,1.6-0.3,2.7c-0.1,1-0.2,2-0.4,3c0.1,0.2,0.3,0.3,0.3,0.4c0.1-0.1,0.1-0.1,0.2-0.1l-0.1,0.7l0.1,0.1
		c0,0,0-0.1,0.1-0.2c0-0.1,0.1-0.1,0.2-0.1c0,0.2,0,0.4,0,0.6c0,0.2,0,0.4,0,0.6c0,0.2-0.1,0.3-0.1,0.4c-0.1,0.1-0.1,0.3-0.1,0.5
		c0,0.1,0,0.2,0,0.2c0,0.1,0.1,0.1,0.2,0.2l0.2-1.2l0,1.9c0,0.3,0.1,0.7,0.2,1c0.1,0.4,0.2,0.7,0.1,1.1c-0.1,0-0.2-0.1-0.2-0.3
		l0,0.4c0,0.2,0,0.3,0,0.5c0,0.2,0,0.3,0,0.5c-0.1,0-0.2-0.1-0.2-0.2c0-0.1,0-0.1-0.1-0.2l-0.1,0.5l-0.2-1.2l-0.1,0.5l-0.2-0.1
		l-0.1,0.5c0,0.1,0,0.2,0,0.4c0,0.2,0,0.4,0.1,0.5c0,0.2,0.1,0.3,0.1,0.5c0.1,0.1,0.1,0.2,0.2,0.2l0.1,0l-0.1-0.2l0.5,0.3
		c0,0,0,0,0.1,0c0,0,0.1,0,0.1-0.1l0.9,0.2c0.1,0,0.2,0.1,0.2,0.2c0.1,0.1,0.1,0.1,0.1,0.1c0,0,0-0.1,0-0.1c0,0,0.1,0,0.1-0.1
		c0.1,0,0.3,0.1,0.5,0.1c0.2,0.1,0.4,0.1,0.4,0.2l0-0.1c0,0,0-0.1-0.2-0.1c-0.1-0.1-0.2-0.1-0.3-0.1l-0.8-0.3l1.7,0.2
		c0-0.1,0-0.1-0.1-0.1c-0.1,0-0.2-0.1-0.4-0.1l0.8,0.1l0.1-0.2l0.1-0.5c0.1-0.4,0.1-0.8,0.1-1.2c0-0.4,0-0.8,0.1-1.2
		c0-0.1,0-0.2,0-0.2c0-0.1,0-0.1,0.1-0.2l-0.1,0.2l0.1-1c0,0-0.1-0.1-0.1-0.2c0-0.1,0-0.2,0-0.2c0-0.1,0-0.1,0-0.2
		c0-0.1,0-0.1,0-0.1l-0.2-0.1l0.2-0.1c0-0.1,0-0.2,0-0.4c0-0.1,0-0.1,0.1-0.1c0.1,0,0.1,0.1,0.3,0.2c0.1,0.1,0.2,0.3,0.3,0.4
		l0.1-0.1c0,0.1,0.1,0.3,0.1,0.5c0.1,0.2,0.1,0.3,0.2,0.4l0-0.4c0,0,0.1,0,0.2,0.1c0.1,0,0.3,0.1,0.4,0.1c0.2,0.1,0.4,0.1,0.6,0.2
		l0.2,0.7l0-0.4c0.1,0.5,0.2,0.9,0.3,1.2c0.1,0.3,0.1,0.6,0.2,0.8c0.1,0.3,0.1,0.4,0.1,0.5l0.1-0.1c0,0.1,0.1,0.3,0.1,0.4l0,0.1
		l-0.1-0.2l0,0.1c0,0.1,0,0.2,0,0.2c0,0.1,0.1,0.1,0.1,0.1l0.4,1.3l0.3,0.2l1.5,0.2c0.1,0,0.1,0,0.1,0.1c0,0,0,0.1,0,0.1
		c0,0,0,0,0,0.1l0.5,0.1l-0.6,0l1.1,0.2l0.1-0.1l-0.2,0c-0.1,0-0.2-0.1-0.2-0.2l0.8,0.2l0.6,0.1c0-0.1,0-0.1,0-0.1c0,0,0-0.1,0-0.1
		c0-0.1,0-0.2-0.2-0.2c0.1,0,0.1,0,0.1-0.2c0,0,0-0.1,0-0.1c0,0,0-0.1,0-0.1l0-0.3l-0.2-4l0.1-0.5c0.1-0.4,0.1-0.9,0.1-1.3
		c0-0.4,0.1-0.9,0.1-1.3l0-0.2c0-0.1-0.1-0.1-0.1-0.2c0-0.1,0-0.1,0-0.2l0-0.2l0.1,0.1l0-0.3c0,0,0.1,0.1,0.1,0.2
		c0,0.1,0.1,0.1,0.1,0.1c0.1,0,0.2,0,0.2-0.1c0.1-0.1,0.1-0.1,0.1-0.1c0,0.1,0,0.1,0.1,0.1c0,0,0.1,0,0.1-0.1c0-0.1,0.1-0.1,0.1-0.1
		c0-0.1,0-0.1,0-0.1c0.2,0,0.4,0.1,0.6,0.3c0.2,0.2,0.4,0.2,0.6,0.3c0.1,0,0.2,0,0.3,0c0.1,0,0.2,0,0.3-0.1l0.4,1.9l0.2,0
		c0.1,0,0.2,0.1,0.2,0.3c0,0.2,0,0.4,0,0.6c0,0.2,0,0.5,0,0.7c0,0.2,0.1,0.4,0.2,0.4c0.2,0.5,0.3,1,0.4,1.5c0.1,0.4,0.1,0.9,0.1,1.3
		c0,0.4,0,0.8,0,1.2c0,0.4,0.1,0.9,0.2,1.4c0.1,0,0.2,0.1,0.2,0.2c0,0.1,0.1,0.2,0.1,0.3c0,0.1,0,0.2,0.1,0.4c0,0.1,0.1,0.2,0.3,0.3
		c-0.1,0.1-0.1,0.1-0.1,0.2c0,0,0,0.1,0,0.2c0,0.1,0,0.2,0.1,0.3c0.1,0,0.1,0.1,0.3,0.1l-2.4,0.9l0,0.1c-0.1,0-0.2,0-0.2,0.1
		c-0.1,0.1-0.1,0.1-0.2,0.2c0-0.1,0-0.2-0.1-0.3c0,0-0.1,0-0.2-0.1c-0.5-0.1-1-0.1-1.5-0.1c-0.5,0-1,0.1-1.4,0.1l-0.2,0
		c-0.3,0-0.7,0-0.9,0c-0.3,0-0.6,0-0.9-0.1c-0.3,0-0.7-0.1-1-0.1c-0.4-0.1-0.9-0.1-1.4-0.2c-0.1,0-0.3,0-0.5-0.1
		c-0.2,0-0.4-0.1-0.6-0.1c-0.2,0-0.4-0.1-0.5-0.1c-0.2,0-0.2,0-0.3,0l-6.3-1.6l-0.6,3.9c0.2,0,0.4,0,0.7-0.1c0.2,0,0.4-0.1,0.5-0.2
		l-0.3,0c0.1-0.1,0.2-0.2,0.3-0.2c0.1,0,0.3,0,0.4,0c1.1,0,2.3,0.1,3.4,0.3c1.2,0.2,2.3,0.3,3.4,0.4c0.6,0.1,1.3,0.1,2,0.2
		c0.7,0,1.5,0.1,2.3,0.2c0.8,0.1,1.6,0.1,2.3,0.2c0.8,0.1,1.4,0.1,2,0.2c0,0,0.1,0,0.2,0.1c0.1,0,0.2,0.1,0.3,0.1
		c0.1,0,0.2,0.1,0.3,0.1c0.1,0.1,0.1,0.1,0.1,0.2l-0.1,0.1l0.2,0.2c0,0,0,0,0,0c0,0,0,0,0,0c-0.1,0-0.2,0-0.2,0.1
		c0,0.1,0,0.1,0.1,0.1c0,0.1,0.1,0.1,0.2,0.2l0.1,0c0,0.1,0,0.2,0,0.3c0,0.1,0.1,0.2,0.1,0.2l-0.1,0.8c-0.1,0.1-0.2,0.2-0.2,0.3
		c0,0.2-0.1,0.3-0.2,0.3c0,0,0,0.1,0,0.2c0,0.1,0,0.2,0,0.2c0,0,0,0.1-0.1,0.1c0,0.1-0.1,0.1-0.1,0.1l0,0.1c0,0,0,0,0,0
		c0,0,0,0.1,0,0.1c0,0.1,0,0.1,0,0.1c0,0,0,0-0.1,0c0,0,0,0,0,0c0,0,0,0,0,0l0,0c0,0,0,0,0,0.1c0,0,0,0.1,0.1,0.1
		c-0.2,0.2-0.3,0.3-0.5,0.3c-0.2,0-0.4,0-0.7,0.1l-0.5-0.1l0,0.2c-0.1,0-0.1,0-0.2-0.1c0,0-0.1-0.1-0.1-0.1c0,0-0.1-0.1-0.2-0.2
		c-0.1-0.1-0.2-0.1-0.3-0.1l-0.1,0c0.1,0,0.1,0.1,0.1,0.2c-0.1,0-0.4,0-0.7-0.1c-0.3,0-0.6,0-1-0.1c-0.3,0-0.7,0-1,0
		c-0.3,0-0.5,0-0.6,0l2.3,0.2l-4.4-0.1l0.9,0.1l-1.5,0c-0.3,0-0.4,0.1-0.4,0.4l0,0.2c0,0.1,0,0.1,0,0.3c0,0.1,0,0.3,0,0.4
		c0,0.2,0,0.3,0,0.4c0,0.1,0,0.2,0,0.3c0,0.1,0.2,0.2,0.4,0.2c0.2,0,0.4,0,0.6,0c0.2,0,0.5,0,0.7,0c0.3,0,0.5,0,0.7,0
		c0.2,0,0.4,0,0.6,0c0.2,0,0.3,0.1,0.3,0.1l0-0.1l1.7,0.4l1.2,0.2l0.2,0.1l-0.1,0.1c-0.2,0.1-0.3,0.2-0.3,0.2c0,0.1,0,0.1,0.1,0.2
		c0.1,0.1,0.1,0.2,0.2,0.3c0.1,0.1,0.2,0.3,0.3,0.6c0.1,0.3,0.2,0.6,0.2,1c0,0,0.1,0,0.2,0c0.1,0,0.1,0,0.2,0c0.1,0,0.2,0.1,0.2,0.1
		c0,0,0,0.1,0.1,0.2c0,0.1,0.1,0.2,0.1,0.3c0,0.1,0.1,0.2,0.1,0.3c0,0.1,0,0.2,0,0.2c0,0.1,0,0.2-0.1,0.2c0,0.1-0.1,0.1-0.3,0.1
		c0-0.1-0.1-0.1-0.1-0.1l-0.2,0c-0.1,0-0.2,0-0.4,0c-0.2,0-0.4,0-0.6,0c-0.2,0-0.4,0-0.6,0c-0.2,0-0.3,0-0.4,0
		c0,0.1-0.1,0.1-0.2,0.1c0,0-0.1,0-0.2-0.1c0,0-0.1,0-0.1,0c-0.1,0-0.2,0-0.5,0c-0.2,0-0.6,0-1.1,0c-0.5,0-1.2,0-2-0.1
		c-0.9,0-2-0.1-3.3-0.1c-1.3-0.1-2.9-0.1-4.8-0.2l-0.2,0.1l0.5,0.1c0.2,0,0.3,0,0.6,0c0.2,0,0.4,0,0.6,0.1c0.3,0,0.4,0.1,0.4,0.2
		c0,0.1-0.2,0.2-0.5,0.3c-0.3,0-0.6-0.1-1-0.1c-0.4,0-0.7-0.1-1-0.1c-0.3,0-0.6-0.1-0.9-0.1c-0.3,0-0.5,0-0.6,0
		c0.2,0.1,0.3,0.1,0.5,0.2c0.1,0,0.3,0.1,0.5,0.1c0.3,0,0.6,0.1,0.8,0c0.3,0,0.6,0,0.9,0.1c0.1,0,0.2,0,0.3,0.1c0.2,0,0.2,0,0.3,0
		l0.1,0.1l-1.2-0.2l-0.1,0.1c0-0.1-0.1-0.1-0.2-0.1c-0.1,0-0.2,0-0.3,0l-3.6-0.4l-0.3,2.1c0,0,0,0,0,0c0-0.1,0.1-0.2,0.2-0.3
		c0.1-0.1,0.2-0.2,0.3-0.1l0.1,0c0.1,0,0.1,0,0.1,0.1c0,0,0,0.1,0.1,0.1c0.1,0,0.1,0,0.1,0c0,0,0,0,0,0.1s0,0.1,0,0.1
		c0,0,0,0.1,0.1,0.1l0.1-0.1c0,0.2,0,0.4,0,0.6c0,0.2,0,0.4-0.1,0.7c0,0.1,0,0.2-0.1,0.3c0,0.1,0,0.2,0,0.3l0.4,0.2l0.1-0.1
		c0.3,0,0.6,0,0.9,0c0.3,0,0.5,0,0.8,0c0.3,0,0.5,0,0.7,0l0.5,0c0,0,0.1,0,0.1,0c0.1,0,0.1,0,0.1,0l0.2,0c-0.4,0,0.1,0.1,1.4,0.3
		c1.3,0.3,3.4,0.6,6.3,1c0.2,0,0.3,0,0.5,0.1c0.2,0,0.4,0.1,0.8,0.1c0.3,0,0.7,0.1,1.2,0.1c0.5,0.1,1.1,0.1,1.8,0.2l-0.1,0.1
		l0.1,0.1c0,0,0.1,0.1,0.3,0.1c0.2,0,0.3,0.1,0.5,0.1c0.2,0,0.3,0.1,0.5,0.1c0.1,0.1,0.2,0.1,0.2,0.3l0,0.2c0,0.1,0,0.2,0.1,0.2
		c0,0,0.1,0,0.1,0l-0.1,0.8c-0.1,0-0.1,0-0.1,0.1c0,0-0.1,0.1-0.1,0.1c0,0,0,0.1,0.1,0.1l0,0.1c0,0,0,0.1,0,0.3c0,0.2,0,0.3,0,0.3
		l-1.3-0.2l-0.1-0.1c0,0-0.1,0.1-0.3,0.1c-0.2,0-0.3,0-0.3,0l-0.1,0c0,0,0,0-0.1,0c-0.3,0-0.5,0-0.6,0c-0.1,0-0.1,0-0.1,0
		c0,0,0,0.1,0,0.1c0,0,0.1,0,0.1,0c0,0,0.2,0,0.3,0.1c0.2,0,0.4,0,0.6,0.1c0.2,0,0.4,0.1,0.6,0.1c0.2,0,0.4,0,0.5,0l0.1,0
		c0,0,0,0,0.1,0c0,0.1,0,0.1,0.2,0.2c0.1,0,0.2,0,0.2,0l-0.7,0.3c-0.1,0-0.3-0.1-0.4-0.1c-0.1,0-0.1,0-0.2,0c-0.1,0-0.1,0-0.2,0
		c-0.1,0-0.3,0-0.4,0c-0.2,0-0.4,0-0.6,0c-0.7-0.1-1.6-0.1-3-0.2c-1.3-0.1-3.1-0.2-5.4-0.4c-0.9-0.1-1.9-0.1-2.9-0.2
		c-1-0.1-2.2-0.2-3.4-0.3l-0.2,1l0.1,0.2c0,0-0.1-0.1-0.2-0.1l-0.1,0c0,0,0,0.1,0,0.3c0,0.1,0,0.3,0,0.3l0,0.1c0,0.1,0,0.1-0.1,0.3
		c0,0.1-0.1,0.3-0.1,0.4c0,0.1-0.1,0.3-0.1,0.4c0,0.1-0.1,0.2-0.1,0.3c-0.2,0.2-0.4,0.3-0.7,0.5c-0.3,0.2-0.5,0.3-0.7,0.5
		c0,0,0,0,0,0l-1.5,9.7c0.1,0,0.2-0.1,0.3-0.1c0,0.2,0,0.4,0.2,0.5c0.1,0.2,0.2,0.4,0.2,0.6c0,0.1,0,0.2,0,0.4c0,0.2,0,0.3,0,0.3
		c0.1,0.2,0.1,0.4,0.1,0.7c0,0.2,0,0.5,0,0.9c0,0.4,0,0.9,0,1.6c0,0.7-0.1,1.5-0.2,2.6c0.2,0,0.3,0.1,0.5,0.1c0.1,0,0.3,0,0.4,0.1
		c0.1,0,0.3,0,0.4,0c0.1,0,0.3,0,0.5,0c0.2,0,0.4,0,0.7,0c0.3,0,0.6,0,1-0.1l0-0.2c0-0.1,0-0.2,0-0.4c0-0.1,0-0.3,0-0.4
		c0-0.1,0-0.3,0-0.6l-0.1-0.2l0.2-1.5l0.9-1.8l0.6-0.2c0.2,0.1,0.3,0.2,0.4,0.3c0.1,0.1,0.2,0.1,0.3,0.2c0.1,0.1,0.1,0.1,0.2,0.1
		c0.1,0,0.2,0,0.2-0.1c0,0.1,0.1,0.2,0.1,0.3c0.1,0.1,0.1,0.2,0.2,0.3c0.1,0.1,0.1,0.2,0.2,0.3c0,0.1,0.1,0.1,0.1,0.2l0.6,4l1.2,0.2
		l5,0.3c0.1,0,0.3,0,0.4,0c0.1,0,0.2,0,0.4,0l0.2,0l-0.4,0.1c0,0,0,0,0.1,0c0,0,0.1,0,0.1,0l2.5,0.2l0,0.2c0.2,0.1,0.4,0.1,0.4,0.2
		c0-0.2,0.1-0.5,0.1-0.8c0.2-1.3,0.3-2.6,0.5-3.9c0.2-1.3,0.4-2.4,0.5-3.3c0.2-0.9,0.2-1.4,0.2-1.5l1.8-2.5l1.3,2.5l0.4-0.8
		l13.8,36.5c0.6,0.2,1.4,0.4,2.4,0.7c1,0.3,1.8,0.4,2.4,0.4c1.1,0,2.1-0.1,2.9-0.4c0.8-0.3,1.9-0.7,3.3-1.4c0.4,0.2,0.8,0.3,1.3,0.4
		c0.5,0.1,1,0.1,1.4,0.1c0.2,0,0.6-0.2,1.1-0.7c0.5-0.4,1-1,1.5-1.6c0.5-0.6,1-1.2,1.4-1.7c0.4-0.6,0.6-1,0.7-1.3l4-15.7l0.4-0.4
		c0-0.3,0-0.6-0.1-0.9c0-0.3-0.1-0.6-0.1-0.9c0-2.3,0.3-4.7,0.8-7.1C289.7,64.9,289.9,62.6,289.9,60.2z M237.2,17.3
		c0,0.1,0,0.3,0,0.4c0,0.2,0,0.3,0,0.4c0,0.1,0,0.2,0,0.3l0,0.2l-0.1-0.1c0,0,0-0.2,0-0.5c0-0.3,0-0.5,0.1-0.6l0-0.2
		c0-0.1,0.1-0.2,0.1-0.2C237.2,17.1,237.2,17.2,237.2,17.3z M237.6,21.7C237.6,21.7,237.6,21.6,237.6,21.7L237.6,21.7
		C237.7,21.6,237.7,21.7,237.6,21.7z M246.8,23l-0.2,0c-0.1,0-0.2,0-0.2,0c-0.1,0-0.1,0-0.1,0c0,0,0.1,0,0.1,0c0,0,0.1,0,0.2,0
		c0.2,0,0.3,0.1,0.3,0.1C246.9,23,246.9,23,246.8,23z M247.3,23l-0.1-0.1l0.6,0.1L247.3,23z M247.9,23.2c-0.1,0-0.1,0-0.1-0.1
		C247.8,23.1,247.9,23.1,247.9,23.2c0-0.1,0.1-0.1,0.1-0.1c0,0,0,0,0,0C248.1,23.2,248,23.2,247.9,23.2z M245.8,34.1
		C245.7,34.1,245.7,34.1,245.8,34.1C245.7,34,245.8,34,245.8,34.1c0.1-0.1,0.1-0.1,0.1,0C245.9,34.1,245.8,34.1,245.8,34.1z
		 M249.2,34.1C249.2,34,249.1,34,249.2,34.1L249.2,34.1C249.3,34,249.3,34.1,249.2,34.1z M249.2,40.7c-0.1,0-0.2,0-0.2-0.1
		c0,0,0,0,0.1,0C249.1,40.6,249.2,40.6,249.2,40.7C249.2,40.6,249.3,40.6,249.2,40.7c0.1,0,0.1,0,0.1,0
		C249.4,40.7,249.3,40.7,249.2,40.7z M244.7,71C244.6,71,244.6,71,244.7,71C244.6,70.9,244.7,70.9,244.7,71
		C244.7,70.9,244.8,70.9,244.7,71C244.8,71,244.7,71,244.7,71z M251,59.5c-0.2-0.6-0.4-0.8-0.8-0.8c-0.2,0-0.4,0-0.5,0.1l0.8-0.8
		c0.3,0.1,0.5,0.3,0.5,0.7V59.5z M251.9,34.3l0-0.2L251.9,34.3L251.9,34.3z M270.6,19.1c-0.1,0-0.1,0-0.1-0.1c0-0.2,0.1-0.2,0.2-0.2
		c0,0.1,0,0.1,0.1,0.2c0,0,0.1,0.1,0.1,0.2H270.6z"/>
	<path fill="#FFFFFF" d="M250.3,33.6c-0.1,0-0.1,0-0.1,0C250.2,33.6,250.3,33.7,250.3,33.6C250.4,33.7,250.4,33.7,250.3,33.6
		C250.4,33.6,250.4,33.6,250.3,33.6z"/>
	<path fill="#FFFFFF" d="M244.9,23c0.2,0,0.4,0,0.5,0c0.2,0,0.3,0,0.6,0l-1.4-0.2C244.7,22.9,244.7,22.9,244.9,23L244.9,23z"/>
	<path fill="#FFFFFF" d="M239.9,22.4l-0.2,0c0,0.1,0.1,0.1,0.2,0.1L239.9,22.4z"/>
	<path fill="#FFFFFF" d="M240,21.9C240,21.9,240,21.9,240,21.9L240,21.9L240,21.9C240.1,21.9,240.1,21.9,240,21.9z"/>
</g>
</svg>
