<?xml version="1.0" encoding="utf-8"?>
<!-- Generator: Adobe Illustrator 20.1.0, SVG Export Plug-In . SVG Version: 6.00 Build 0)  -->
<svg version="1.1" id="Слой_1" xmlns="http://www.w3.org/2000/svg" xmlns:xlink="http://www.w3.org/1999/xlink" x="0px" y="0px"
	 width="1440px" height="555.2px" viewBox="0 0 1440 555.2" enable-background="new 0 0 1440 555.2" xml:space="preserve">
<g>
	<polygon fill="#FFFFFF" points="156.1,69.4 156.1,225.5 69.4,225.5 69.4,121.4 17.3,69.4 0,69.4 0,242.9 52,294.9 225.5,294.9 
		225.5,69.4 	"/>
	<polygon fill="#FFFFFF" points="312.3,69.4 260.2,121.4 260.2,294.9 329.6,294.9 329.6,138.8 485.8,138.8 485.8,69.4 	"/>
	<path fill="#FFFFFF" d="M746,242.9V69.4l-156.1,0V0h-69.4v294.9H694L746,242.9z M676.6,225.5h-86.7v-86.7h86.7V225.5z"/>
	<path fill="#FFFFFF" d="M832.8,69.4l-52.2,52.1l0.1,173.5l69.4,0v-52.1h86.7v52.1l69.4,0V69.4H832.8z M850.1,173.5v-34.7h86.7v34.7
		H850.1z"/>
	<polygon fill="#FFFFFF" points="1093,69.4 1041,121.4 1041,294.9 1110.4,294.9 1110.4,138.8 1197.1,138.8 1197.1,294.9 
		1266.5,294.9 1266.5,69.4 	"/>
	<polygon fill="#FFFFFF" points="1162.4,399 1162.4,329.7 988.9,329.7 936.9,381.7 936.9,555.2 1006.3,555.2 1006.3,503.1 
		1058.3,503.1 1110.4,451.1 1110.4,433.7 1006.3,433.7 1006.3,399 	"/>
	<rect x="1197.1" y="329.6" fill="#FFFFFF" width="69.4" height="225.5"/>
	<polygon fill="#FFFFFF" points="1370.6,485.8 1370.6,399 1422.7,347 1422.7,329.6 1370.6,329.6 1370.6,260.2 1301.2,260.2 
		1301.2,503.1 1353.3,555.2 1440,555.2 1440,485.8 	"/>
</g>
</svg>
