<?xml version="1.0" encoding="utf-8"?>
<!-- Generator: Adobe Illustrator 20.1.0, SVG Export Plug-In . SVG Version: 6.00 Build 0)  -->
<svg version="1.1" id="Режим_изоляции"
	 xmlns="http://www.w3.org/2000/svg" xmlns:xlink="http://www.w3.org/1999/xlink" x="0px" y="0px" viewBox="0 0 292.4 298.8"
	 enable-background="new 0 0 292.4 298.8" xml:space="preserve">
<path fill="#FFFFFF" d="M290.6,246.3c0,0-9.2-4-9.7-12.5c-2.2-42.4-7.4-139.6-9-169.8c-0.7-12.2,7.8-13.5,7.8-13.5l-2.1-29.7l-5-2
	C270.7,18,225.4,0,163,0C100.7,0,55.4,18,53.5,18.8l-5,2l-2.1,29.7c0,0,8.5,1.3,7.8,13.5c-0.2,2.8-0.3,6.1-0.5,9.9
	c-9.3-0.5-18.3-0.6-28.1,4.5C15.2,84,8.8,94.4,6.5,109.4l0,0.2l-5.8,58.1c-1.3,10.7-1.8,24.7,8.2,36.2c7.4,8.5,18.8,12.7,32.5,13.4
	c0.4,0,2.2,0,4.7,0.1c-0.3,6.1-0.6,11.6-0.9,16.5c-0.4,8.5-9.7,12.5-9.7,12.5l-1.8,30.9l5.2,2.5c1.6,0.8,41.1,19.1,124.2,19.1
	c83.1,0,122.6-18.3,124.2-19.1l5.2-2.5L290.6,246.3z M22.6,171l3.7-58.7c0.8-5.4,2.7-12.9,8.6-16.1c4-2.1,8.7-2.2,17.6-1.8
	c-1.5,28.1-3.5,66.5-5.2,98.5C36.6,193.2,21.8,190.4,22.6,171z M171,278c0-8.8-0.1-17.5-0.1-26.3c0-3.2,0.3-4.8,2.2-6.6
	c2.6-2.5,5.2-4.9,7.8-7.4c3-2.6,4.5-5.9,4.3-9.9c-0.2-17.8-0.4-35.6-0.7-53.3c-0.1-11.1-13-13.3-21.5-13.5
	c-8.5,0.3-21.4,2.4-21.5,13.5c-0.2,17.8-0.4,35.6-0.7,53.3c-0.2,3.9,1.3,7.3,4.3,9.9c2.6,2.5,5.2,4.9,7.8,7.4
	c1.9,1.8,2.2,3.3,2.2,6.6c0,8.8-0.1,17.5-0.1,26.3c-33.2,0-68-3.7-99.5-14.5c0.2-3.1,0.4-6.2,0.5-9.3c5.3-1.1,9.4-4.9,9.6-10.6
	c3.3-62.1,6.6-125.7,9.9-187.8c0.4-5.1-2.5-9.5-7.5-10.6c0.2-3.1,0.4-6.2,0.5-9.3c27.5-10.3,58.2-14.5,87.5-14.5
	c0,8.8-0.1,17.5-0.1,26.3c0,3.2-0.3,4.8-2,6.6c-2.4,2.5-4.8,4.9-7.2,7.4c-2.8,2.6-4.2,6-4.1,9.9c-0.2,17.8-0.4,35.5-0.7,53.3
	c-0.2,10.8,12.3,13.5,20.7,13.5c0.1,0,0.1,0,0.2,0c0.1,0,0.1,0,0.2,0c8.5,0,20.9-2.7,20.7-13.5c-0.2-17.8-0.4-35.5-0.7-53.3
	c0.1-3.8-1.3-7.2-4.1-9.9c-2.4-2.5-4.8-4.9-7.2-7.4c-1.7-1.8-2-3.3-2-6.6c0-8.8-0.1-17.5-0.1-26.3c29.3,0,60,4.2,87.5,14.5
	c0.2,3.1,0.4,6.2,0.5,9.3c-5,1.2-7.9,5.5-7.5,10.6c3.3,62.1,6.6,125.7,9.9,187.8c0.2,5.7,4.3,9.5,9.6,10.6c0.2,3.1,0.4,6.2,0.5,9.3
	C239,274.3,204.2,278,171,278z"/>
</svg>
