<?xml version="1.0" encoding="utf-8"?>
<!-- Generator: Adobe Illustrator 20.1.0, SVG Export Plug-In . SVG Version: 6.00 Build 0)  -->
<svg version="1.1" id="Слой_1" xmlns="http://www.w3.org/2000/svg" xmlns:xlink="http://www.w3.org/1999/xlink" x="0px" y="0px"
	 viewBox="0 0 152.4 248.8" enable-background="new 0 0 152.4 248.8" xml:space="preserve">
<g>
	<path fill="#FFFFFF" stroke="#FFFFFF" stroke-miterlimit="10" d="M61.1,158.6c-10.9,6.3-14.6,20.2-8.3,31l57-32.9
		c10.9-6.3,14.6-20.2,8.3-31L61.1,158.6z"/>
	<path fill="#FFFFFF" stroke="#FFFFFF" stroke-miterlimit="10" d="M71.7,187.6c-10.9,6.3-14.6,20.2-8.3,31l35.7-20.3
		c10.9-6.3,14.6-20.2,8.3-31L71.7,187.6z"/>
	<path fill="#FFFFFF" stroke="#FFFFFF" stroke-miterlimit="10" d="M82.1,217.1c-10.9,6.3-14.6,20.2-8.3,31l14.9-8.7
		c10.9-6.3,14.6-20.2,8.3-31L82.1,217.1z"/>
	<path fill="#FFFFFF" stroke="#FFFFFF" stroke-miterlimit="10" d="M41.8,136.8l6.6-6.5C45.7,132,43.5,134.3,41.8,136.8z"/>
	<path fill="#FFFFFF" stroke="#FFFFFF" stroke-miterlimit="10" d="M143.2,19.7C134.3,6.8,123.8,0.5,111,0.5c-5.4,0-10.4,3-16.6,6.9
		c-5.2,3.2-13,8-17.7,8c-4.6,0-12.5-4.8-17.7-8c-6.2-3.8-11.2-6.9-16.6-6.9c-12.8,0-23.3,6.3-32.2,19.2C-5.8,43-3.2,73.1,26.9,124.8
		c1.6,2.8,3.6,5.5,6.1,9.3c2.3-5.1,6.1-9.6,11.4-12.6l5.6-3.2c-1.5-2.6-1.4-2.8-2-3.8C33.1,89.7,26.8,70.1,24.5,55.8
		c-2-12.5,0.9-18.9,4.1-23.6c5.2-7.5,9.3-9.2,12.7-9.5c1.4,0.7,4,2.3,6,3.5c8.2,5,18.4,11.3,29.4,11.3c10.9,0,21.2-6.3,29.4-11.3
		c2-1.2,4.6-2.8,6-3.5c3.4,0.3,7.5,1.9,12.7,9.5c5.2,7.5,8.8,19.1-3.5,47.8c-0.9,2.2-3.6,7-9.4,11.8c-6,4.9-9.9,6.9-12,8.2
		l-50.4,29.1c-10.9,6.3-14.6,20.2-8.3,31l57-32.9c2.5-1.4,17.9-10.3,20.5-11.9c7.2-4.2,12.9-10.5,15-13.1c3.6-4.6,6.3-9.1,8.2-13.4
		C154.7,58.5,155.2,37.2,143.2,19.7z"/>
</g>
</svg>
