<?xml version="1.0" encoding="utf-8"?>
<!-- Generator: Adobe Illustrator 20.1.0, SVG Export Plug-In . SVG Version: 6.00 Build 0)  -->
<svg version="1.1" id="Слой_1" xmlns="http://www.w3.org/2000/svg" xmlns:xlink="http://www.w3.org/1999/xlink" x="0px" y="0px"
	 viewBox="0 0 134.1 134.1" enable-background="new 0 0 134.1 134.1" xml:space="preserve">
<path fill="#FFFFFF" d="M117.3,83.8L134.1,67l-16.8-16.8c-9.2-9.2-24.3-9.2-33.5,0C93,41,93,26,83.8,16.8L67,0L50.3,16.8
	C41,26,41,41,50.3,50.3C41,41,26,41,16.8,50.3L0,67l16.8,16.8C26,93,41,93,50.3,83.8c-9.2,9.2-9.2,24.3,0,33.5L67,134.1l16.8-16.8
	c9.2-9.2,9.2-24.3,0-33.5C93,93,108.1,93,117.3,83.8z M98.8,68.8c1,1,2.6,1,3.5,0c1-1,1.8-1.8,1.8-1.8l-7.2-7.2c3-1.5,6.7-1,9.2,1.5
	l5.8,5.8l-5.7,5.7c-3.1,3.1-8.1,3.1-11.2,0L78.1,56l4-4L98.8,68.8z M52.2,44.8c-5.6-7.3-5.1-17.9,1.6-24.5L67,7.1l13.2,13.2
	c7.3,7.3,7.3,19.2,0,26.5L63.5,63.5l-4-4l16.9-16.9c5-5,5-13.3,0-18.3l-9.3-9.3l-9.4,9.4c-4.4,4.4-5,11.3-1.6,16.4L52.2,44.8z
	 M68.8,31.7c-1-1-1.8-1.8-1.8-1.8l-7.2,7.2c-1.5-3-1-6.7,1.5-9.2l5.8-5.8l5.7,5.7C76,31,76,36,72.9,39.1L56,56l0.1,0.2L52,52
	l16.8-16.8C69.8,34.3,69.8,32.7,68.8,31.7z M20.3,80.3L7.1,67l13.2-13.2c7.3-7.3,19.2-7.3,26.5,0l16.8,16.8l-4,4L42.7,57.7
	c-5-5-13.3-5-18.3,0l-9.3,9.3l9.4,9.4c4.4,4.4,11.3,5,16.4,1.6l4,4C37.5,87.5,27,87,20.3,80.3z M35.3,65.2c-1-1-2.6-1-3.5,0
	c-1,1-1.8,1.8-1.8,1.8l7.2,7.2c-3,1.5-6.7,1-9.2-1.5l-5.8-5.8l5.7-5.7c3.1-3.1,8.1-3.1,11.2,0L56,78.1l0.2-0.1L52,82L35.3,65.2z
	 M81.9,89.2c5.6,7.3,5.1,17.9-1.6,24.5L67,127l-13.2-13.2c-7.3-7.3-7.3-19.2,0-26.5l16.8-16.8l4,4L57.7,91.4c-5,5-5,13.3,0,18.3
	l9.3,9.3l9.4-9.4c4.4-4.4,5-11.3,1.6-16.4L81.9,89.2z M65.2,102.4c1,1,1.8,1.8,1.8,1.8l7.2-7.2c1.5,3,1,6.7-1.5,9.2l-5.8,5.8
	l-5.7-5.7c-3.1-3.1-3.1-8.1,0-11.2l16.9-16.9l4,4L65.2,98.8C64.3,99.8,64.3,101.4,65.2,102.4z M87.3,80.3L70.6,63.5l4-4l16.9,16.9
	c5,5,13.3,5,18.3,0l9.3-9.3l-9.4-9.4c-4.4-4.4-11.3-5-16.4-1.6l-4-4c7.3-5.6,17.9-5.1,24.5,1.6L127,67l-13.2,13.2
	C106.5,87.6,94.6,87.6,87.3,80.3z M34.1,37c0-1.6,1.3-2.9,2.9-2.9c1.6,0,2.9,1.3,2.9,2.9v2.9H37C35.4,39.8,34.1,38.6,34.1,37z
	 M100,97.1c0,1.6-1.3,2.9-2.9,2.9c-1.6,0-2.9-1.3-2.9-2.9v-2.9h2.9C98.7,94.2,100,95.5,100,97.1z M97.1,34.1c1.6,0,2.9,1.3,2.9,2.9
	c0,1.6-1.3,2.9-2.9,2.9h-2.9V37C94.2,35.4,95.5,34.1,97.1,34.1z M37,100c-1.6,0-2.9-1.3-2.9-2.9c0-1.6,1.3-2.9,2.9-2.9h2.9v2.9
	C39.8,98.7,38.6,100,37,100z"/>
</svg>
