<?xml version="1.0" encoding="utf-8"?>
<!-- Generator: Adobe Illustrator 20.1.0, SVG Export Plug-In . SVG Version: 6.00 Build 0)  -->
<svg version="1.1" id="Слой_1" xmlns="http://www.w3.org/2000/svg" xmlns:xlink="http://www.w3.org/1999/xlink" x="0px" y="0px"
	 viewBox="0 0 72.2 72.9" enable-background="new 0 0 72.2 72.9" xml:space="preserve">
<path fill="#FFFFFF" d="M31.2,67.9c-15.2-2.8-26.2-16-26.2-31.4C5.1,21,16.1,7.8,31.2,5c0.7-0.1,1.2-0.5,1.6-1.1
	c0.4-0.6,0.5-1.2,0.4-1.9C33,0.9,32,0,30.8,0c-0.2,0-0.3,0-0.5,0C12.8,3.3,0,18.6,0,36.5s12.8,33.2,30.3,36.4c0.2,0,0.3,0,0.5,0
	c1.2,0,2.3-0.9,2.5-2.1C33.5,69.5,32.6,68.2,31.2,67.9z"/>
<g>
	<path fill="#FFFFFF" d="M34.1,11c0.4-0.6,0.5-1.2,0.4-1.9C34.3,7.9,33.3,7,32,7c-0.2,0-0.3,0-0.5,0c-4.3,0.8-8.3,2.5-11.8,5
		c-0.6,0.4-0.9,1-1,1.6c-0.1,0.7,0,1.3,0.4,1.9c0.5,0.7,1.3,1.1,2.1,1.1c0.5,0,1-0.2,1.5-0.5c3-2.1,6.3-3.5,9.8-4.1
		C33.2,11.9,33.7,11.5,34.1,11z"/>
	<path fill="#FFFFFF" d="M34.1,61.9c-0.4-0.6-1-0.9-1.6-1c-3.6-0.6-6.9-2-9.9-4c-0.4-0.3-0.9-0.5-1.4-0.5c-0.8,0-1.6,0.4-2.1,1.1
		c-0.8,1.2-0.5,2.7,0.6,3.5c3.6,2.5,7.6,4.1,11.9,4.8c0.1,0,0.3,0,0.4,0c1.2,0,2.3-0.9,2.5-2.1C34.7,63.2,34.5,62.5,34.1,61.9z"/>
</g>
<g>
	<path fill="#FFFFFF" d="M45.9,51.3c0,1.3-0.7,1.9-2.1,1.9c-0.7,0-1.4-0.4-2.1-1.3c-0.5-0.6-1-0.9-1.3-0.9c-0.4,0-1,0.3-1.9,0.8
		c-2,1.2-3.7,1.7-5.3,1.7c-3,0-5.5-0.9-7.5-2.8c-2-1.9-3-4.4-3-7.4c0-3.1,1.1-5.4,3.3-7.1c2.2-1.7,5-2.5,8.5-2.5h6.4v-2.8
		c0-1.9-0.6-3.5-1.9-4.9c-1.2-1.4-2.8-2.1-4.7-2.1c-1.5,0-3.2,0.5-5.1,1.5c-0.9,0.4-1.6,0.7-2,0.7c-0.7,0-1.2-0.2-1.6-0.7
		c-0.4-0.4-0.6-1-0.6-1.6c0-1,0.6-1.8,1.8-2.4c2.6-1.3,5.1-2,7.6-2c3.2,0,5.9,1.1,8.2,3.3c2.3,2.2,3.4,4.9,3.4,8.2V51.3z M29.5,39.2
		c-1.2,1-1.9,2.3-1.9,4c0,1.8,0.6,3.2,1.8,4.2c1.2,1,2.8,1.5,4.7,1.5c1.9,0,3.5-0.5,4.7-1.6c1.2-1,1.9-2.5,1.9-4.3v-5.3h-6.4
		C32.4,37.8,30.7,38.3,29.5,39.2z"/>
	<path fill="#FFFFFF" d="M58.8,50.7c0,0.7-0.2,1.3-0.7,1.7c-0.5,0.4-1.1,0.7-1.8,0.7c-0.8,0-1.4-0.2-1.8-0.7c-0.5-0.4-0.7-1-0.7-1.7
		V7.6c0-0.7,0.2-1.3,0.7-1.7c0.5-0.4,1.1-0.7,1.8-0.7c0.8,0,1.4,0.2,1.8,0.7c0.5,0.4,0.7,1,0.7,1.7V50.7z"/>
	<path fill="#FFFFFF" d="M72.2,50.7c0,0.7-0.2,1.3-0.7,1.7c-0.5,0.4-1.1,0.7-1.8,0.7c-0.8,0-1.4-0.2-1.8-0.7c-0.5-0.4-0.7-1-0.7-1.7
		V7.6c0-0.7,0.2-1.3,0.7-1.7c0.5-0.4,1.1-0.7,1.8-0.7c0.8,0,1.4,0.2,1.8,0.7c0.5,0.4,0.7,1,0.7,1.7V50.7z"/>
</g>
</svg>
