<?xml version="1.0" encoding="utf-8"?>
<!-- Generator: Adobe Illustrator 20.1.0, SVG Export Plug-In . SVG Version: 6.00 Build 0)  -->
<svg version="1.1" id="Слой_1" xmlns="http://www.w3.org/2000/svg" xmlns:xlink="http://www.w3.org/1999/xlink" x="0px" y="0px"
	 viewBox="0 0 149.1 87" enable-background="new 0 0 149.1 87" xml:space="preserve">
<g>
	<g>
		<rect x="-20.3" y="39.3" transform="matrix(0.5 -0.866 0.866 0.5 -23.9093 45.5805)" fill="#FFFFFF" width="95.6" height="8.3"/>
		<rect x="3.6" y="48" transform="matrix(0.5 -0.866 0.866 0.5 -24.4332 61.9631)" fill="#FFFFFF" width="75.7" height="8.3"/>
		<rect x="27.2" y="56.1" transform="matrix(0.5 -0.866 0.866 0.5 -24.3187 78.3474)" fill="#FFFFFF" width="57" height="8.3"/>
		<rect x="36.5" y="39.3" transform="matrix(0.5 -0.866 0.866 0.5 4.4683 94.7319)" fill="#FFFFFF" width="95.6" height="8.3"/>
		<rect x="60.4" y="48" transform="matrix(0.5 -0.866 0.866 0.5 3.9434 111.1136)" fill="#FFFFFF" width="75.7" height="8.3"/>
		<rect x="84" y="56.2" transform="matrix(0.5 -0.866 0.866 0.5 3.9436 127.4986)" fill="#FFFFFF" width="56.8" height="8.3"/>
		<rect x="107.7" y="64.4" transform="matrix(0.5 -0.866 0.866 0.5 3.9432 143.8807)" fill="#FFFFFF" width="37.8" height="8.3"/>
		<rect x="131.3" y="72.5" transform="matrix(0.5 -0.866 0.866 0.5 3.9441 160.2665)" fill="#FFFFFF" width="18.9" height="8.3"/>
	</g>
</g>
</svg>
