<?xml version="1.0" encoding="utf-8"?>
<!-- Generator: Adobe Illustrator 20.1.0, SVG Export Plug-In . SVG Version: 6.00 Build 0)  -->
<svg version="1.1" id="Режим_изоляции"
	 xmlns="http://www.w3.org/2000/svg" xmlns:xlink="http://www.w3.org/1999/xlink" x="0px" y="0px" viewBox="0 0 463.8 463.8"
	 enable-background="new 0 0 463.8 463.8" xml:space="preserve">
<path fill="#FFFFFF" d="M354.8,109h-59.9L231.9,0L169,109h-59.9v59.9L0,231.9l109.1,63v59.9h59.9l63,109.1l63-109.1h59.9v-59.9
	l109.1-63l-109.1-63V109z M109,263.4l-54.5-31.5l54.5-31.5V263.4z M231.9,54.6l31.5,54.6l-31.5,54.5l-31.5-54.5L231.9,54.6z
	 M327.4,327.5h-48.4l0-109l-47.2,81.7l31.5,54.6l-31.5,54.5l-31.5-54.5l31.5-54.6l-47.2-81.7v109h-48.4V136.4h48.4l47.2,81.8
	l47.2-81.8h48.4V327.5z M354.8,200.5l54.5,31.4l-54.5,31.5V200.5z"/>
</svg>
