<svg xmlns="http://www.w3.org/2000/svg" style="display:none"><symbol id="icon-alien" viewBox="0 0 512 512"><path fill="#E02424" d="M-688.7 463.5c-26.9 0-60.4-25.1-89.7-67.2-28-40.1-45.3-86.4-45.3-120.7 0-74.5 60.6-135.1 135.1-135.1s135.1 60.6 135.1 135.1c0 34.4-17.2 80.7-45 120.7-13.3 19.2-28.1 35.5-42.7 47.1-16.9 13.3-32.8 20.1-47.5 20.1zm0-304.9c-64.6 0-117.1 52.5-117.1 117.1 0 30.8 16.1 73.1 42.1 110.4 25.2 36.1 54.6 59.4 75 59.4 21.1 0 49.9-22.8 75.3-59.4 25.8-37.1 41.7-79.5 41.7-110.4.1-64.6-52.4-117.1-117-117.1z"/><path fill="#E02424" d="M-637.6 338c-11.7 0-23.4-4.5-32.3-13.4-17.8-17.8-17.8-46.8 0-64.6 8.1-8.1 22.1-14.5 37.4-17.3 24.1-4.4 34.6 3.1 38 6.5 15 15 6.2 58.4-10.8 75.4a45.59 45.59 0 0 1-32.3 13.4zm19.5-78.7c-12.1 0-30.4 4.7-39.1 13.4-10.8 10.8-10.8 28.3 0 39.1s28.3 10.8 39.1 0c5.4-5.4 10.2-16.4 12.3-28 2.2-12 .5-20.1-1.4-22-1.7-1.6-5.7-2.5-10.9-2.5zM-739.8 338c-11.7 0-23.4-4.5-32.3-13.4-17-17-25.8-60.5-10.8-75.4 3.4-3.4 13.9-10.8 38-6.5 15.4 2.8 29.4 9.3 37.4 17.3 17.8 17.8 17.8 46.8 0 64.6a45.59 45.59 0 0 1-32.3 13.4zm-19.5-78.7c-5.1 0-9.1.8-10.9 2.6-1.9 1.9-3.6 10-1.4 22 2.1 11.6 6.9 22.6 12.3 28 10.8 10.8 28.3 10.8 39.1 0s10.8-28.3 0-39.1c-8.7-8.8-27-13.5-39.1-13.5z"/><g><path fill="#E02424" d="M-720.5 379.5h66v18h-66z"/></g></symbol><symbol id="icon-circle" viewBox="0 0 79.3 83.6"><path fill="none" stroke="#FFF" stroke-width="7" stroke-miterlimit="10" d="M44.2 80.1c-21.4 0-40.1-16.4-40.7-37.8C2.9 20.8 19.8 3.5 41.2 3.5c18.6 0 34.2 15.1 34.7 33.7S62.6 71.8 44 71.8"/></symbol><symbol id="icon-comet" viewBox="0 0 94.1 94.1"><ellipse transform="rotate(-45.001 61.726 32.418)" fill="none" stroke="#FFF" stroke-width="7" stroke-miterlimit="10" cx="61.7" cy="32.4" rx="28.9" ry="28.9"/><path fill="none" stroke="#FFF" stroke-width="7" stroke-miterlimit="10" d="M42.2 28.7L1.6 49.5M65.4 51.9L44.6 92.5M57.4 35.4L9.6 83.1"/></symbol><symbol id="icon-hand" viewBox="0 0 259.2 332.3"><path fill="none" stroke="#FFF" stroke-width="18" stroke-linecap="round" stroke-miterlimit="10" d="M9 95v148.8c0 43.9 35.6 79.5 79.5 79.5 8.5 0 16.7-1.3 24.4-3.8 1.6-.4 3.1-.9 4.5-1.6 9.1-3.5 17.4-8.7 24.5-15.2 6-5.4 11.1-10.4 17.6-16.4l83.2-77.8c9.2-8 10.1-22 2-31.1-8-9.2-22-10.1-31.1-2L168 215.6v-23.2V69c0-11-8.9-19.9-19.9-19.9S128.2 58 128.2 69V28.9c0-11-8.9-19.9-19.9-19.9s-19.9 8.9-19.9 19.9V60c0-11-8.9-19.9-19.9-19.9S48.6 49 48.6 60v35c0-11-8.9-19.9-19.9-19.9S8.8 84 9 95zM128.1 160.9v-92M88.3 166.9v-107M48.6 172.9V95"/><circle fill="#FFF" cx="89.3" cy="240" r="12"/><circle fill="none" stroke="#FFF" stroke-width="18" stroke-linecap="round" stroke-miterlimit="10" cx="89.3" cy="240" r="37.2"/></symbol><symbol id="icon-heart" viewBox="0 0 91.1 81.2"><path stroke="#F00" stroke-width="7" stroke-miterlimit="10" d="M45.5 77c40.6-25.8 47.1-47.1 39-62.8-6.3-12.2-28.3-16.3-39 .3C34.9-2.1 12.9 2 6.5 14.2c-8.1 15.8-1.6 37 39 62.8z"/></symbol><symbol id="icon-homosexual" viewBox="0 0 97.6 97.6"><ellipse transform="rotate(-45.001 55.617 68.193)" fill="none" stroke="#0CF" stroke-width="7" stroke-miterlimit="10" cx="55.6" cy="68.2" rx="25.9" ry="25.9"/><path fill="none" stroke="#0CF" stroke-width="7" stroke-miterlimit="10" d="M73.9 49.9l20.2-20.1"/><ellipse transform="rotate(-45.001 29.386 41.937)" fill="none" stroke="#0CF" stroke-width="7" stroke-miterlimit="10" cx="29.4" cy="41.9" rx="25.9" ry="25.9"/><path fill="none" stroke="#0CF" stroke-width="7" stroke-miterlimit="10" d="M47.7 23.6L67.8 3.5M41.6 3.5h26.2v26.3h26.3V56"/></symbol><symbol id="icon-letter" viewBox="0 0 68.6 68.6"><circle fill="#000001" cx="34.3" cy="34.3" r="19.9"/><path fill="#FFF" d="M34.3 0C15.4 0 0 15.4 0 34.3s15.4 34.3 34.3 34.3 34.3-15.4 34.3-34.3S53.2 0 34.3 0zm0 54.1c-10.9 0-19.9-8.9-19.9-19.9 0-10.9 8.9-19.9 19.9-19.9 10.9 0 19.9 8.9 19.9 19.9-.1 11-9 19.9-19.9 19.9z"/></symbol><symbol id="icon-logo" viewBox="0 0 242.3 68.6"><path fill="#FFF" d="M34.3 0C15.4 0 0 15.4 0 34.3s15.4 34.3 34.3 34.3 34.3-15.4 34.3-34.3S53.2 0 34.3 0zm0 54.1c-10.9 0-19.9-8.9-19.9-19.9 0-10.9 8.9-19.9 19.9-19.9 10.9 0 19.9 8.9 19.9 19.9-.1 11-9 19.9-19.9 19.9z"/><path fill="#FFF" d="M163.9.4l-16.6 21.8L130.8.4h-18.1L96.2 22.2 79.6.4H61.2l25.7 33.9-25.7 33.8h18.4l16.6-21.7 16.5 21.7h18.5l-25.8-33.8 16.4-21.5 17.5 23.1v32.2h16.1V35.9L182.3.4zM208 0c-18.9 0-34.3 15.4-34.3 34.3s15.4 34.3 34.3 34.3 34.3-15.4 34.3-34.3S226.9 0 208 0zm0 54.1c-10.9 0-19.9-8.9-19.9-19.9 0-10.9 8.9-19.9 19.9-19.9 10.9 0 19.9 8.9 19.9 19.9-.1 11-9 19.9-19.9 19.9z"/><circle fill="none" cx="34.4" cy="34.3" r="20"/></symbol><symbol id="icon-menu" viewBox="0 0 67.4 67.4"><path fill="#FFF" stroke="#FFF" stroke-width="2" stroke-miterlimit="10" d="M57.5 1h8.9v8.9h-8.9z"/><path class="hidden" fill="#FFF" stroke="#FFF" stroke-width="2" stroke-miterlimit="10" d="M29.3 1h8.9v8.9h-8.9z"/><path fill="#FFF" stroke="#FFF" stroke-width="2" stroke-miterlimit="10" d="M1 1h8.9v8.9H1z"/><path class="hidden" fill="#FFF" stroke="#FFF" stroke-width="2" stroke-miterlimit="10" d="M57.5 29.2h8.9v8.9h-8.9z"/><path fill="#FFF" stroke="#FFF" stroke-width="2" stroke-miterlimit="10" d="M29.3 29.2h8.9v8.9h-8.9z"/><path class="hidden" fill="#FFF" stroke="#FFF" stroke-width="2" stroke-miterlimit="10" d="M1 29.2h8.9v8.9H1zM57.5 57.5h8.9v8.9h-8.9zM29.3 57.5h8.9v8.9h-8.9zM1 57.5h8.9v8.9H1z"/></symbol><symbol id="icon-mouth" viewBox="0 0 127.1 104.8"><g fill="none" stroke="#F00" stroke-width="11" stroke-miterlimit="10"><path d="M6.8 47.2c9.9 17.4 28.9 36.2 56.7 36.2 29.4 0 46.6-18.9 56.7-36.2C107.8 34.1 94 21.4 83.8 21.4s-15 6.8-20.4 6.8c-5.8 0-10.2-6.8-20.4-6.8-10 0-23.7 12.7-36.2 25.8z"/><path d="M6.8 47.2c12.4 3.6 28.9 7.6 56.7 7.6 29.4 0 44.3-4 56.7-7.6"/></g><path fill="none" stroke="#FFF" stroke-width="11" stroke-miterlimit="10" d="M15 3.9l97.1 97M112.1 3.9l-97.1 97"/></symbol><symbol id="icon-spades" viewBox="0 0 91.1 93.9"><path stroke="#FFF" stroke-width="7" stroke-miterlimit="10" d="M45.5 4.1C4.9 30-1.6 51.2 6.5 66.9c6.3 12.3 28.4 16.3 39-.2 10.6 16.5 32.7 12.5 39 .2 8.1-15.7 1.7-36.9-39-62.8z"/><path stroke="#FFF" stroke-width="7" stroke-miterlimit="10" d="M43.6 69.5c-3.5 5.9-9.8 13.7-13.6 17.7 4.6 2 9.9 3.1 15.6 3.1 5.6 0 11-1.1 15.6-3.1-3.8-4-10-11.8-13.6-17.6"/></symbol></svg>