<svg xmlns="http://www.w3.org/2000/svg" style="display:none"><symbol id="icon-hand" viewBox="0 0 259.2 332.3"><path fill="none" stroke="#FFF" stroke-width="18" stroke-linecap="round" stroke-miterlimit="10" d="M9 95v148.8c0 43.9 35.6 79.5 79.5 79.5 8.5 0 16.7-1.3 24.4-3.8 1.6-.4 3.1-.9 4.5-1.6 9.1-3.5 17.4-8.7 24.5-15.2 6-5.4 11.1-10.4 17.6-16.4l83.2-77.8c9.2-8 10.1-22 2-31.1-8-9.2-22-10.1-31.1-2L168 215.6v-23.2V69c0-11-8.9-19.9-19.9-19.9S128.2 58 128.2 69V28.9c0-11-8.9-19.9-19.9-19.9s-19.9 8.9-19.9 19.9V60c0-11-8.9-19.9-19.9-19.9S48.6 49 48.6 60v35c0-11-8.9-19.9-19.9-19.9S8.8 84 9 95zM128.1 160.9v-92M88.3 166.9v-107M48.6 172.9V95"/><circle fill="#FFF" cx="89.3" cy="240" r="12"/><circle fill="none" stroke="#FFF" stroke-width="18" stroke-linecap="round" stroke-miterlimit="10" cx="89.3" cy="240" r="37.2"/></symbol><symbol id="icon-heart" viewBox="0 0 91.1 81.2"><path stroke="#F00" stroke-width="7" stroke-miterlimit="10" d="M45.5 77c40.6-25.8 47.1-47.1 39-62.8-6.3-12.2-28.3-16.3-39 .3C34.9-2.1 12.9 2 6.5 14.2c-8.1 15.8-1.6 37 39 62.8z"/></symbol><symbol id="icon-letter" viewBox="0 0 68.6 68.6"><circle fill="#000001" cx="34.3" cy="34.3" r="19.9"/><path fill="#FFF" d="M34.3 0C15.4 0 0 15.4 0 34.3s15.4 34.3 34.3 34.3 34.3-15.4 34.3-34.3S53.2 0 34.3 0zm0 54.1c-10.9 0-19.9-8.9-19.9-19.9 0-10.9 8.9-19.9 19.9-19.9 10.9 0 19.9 8.9 19.9 19.9-.1 11-9 19.9-19.9 19.9z"/></symbol><symbol id="icon-logo" viewBox="0 0 242.3 68.6"><path fill="#FFF" d="M34.3 0C15.4 0 0 15.4 0 34.3s15.4 34.3 34.3 34.3 34.3-15.4 34.3-34.3S53.2 0 34.3 0zm0 54.1c-10.9 0-19.9-8.9-19.9-19.9 0-10.9 8.9-19.9 19.9-19.9 10.9 0 19.9 8.9 19.9 19.9-.1 11-9 19.9-19.9 19.9z"/><path fill="#FFF" d="M163.9.4l-16.6 21.8L130.8.4h-18.1L96.2 22.2 79.6.4H61.2l25.7 33.9-25.7 33.8h18.4l16.6-21.7 16.5 21.7h18.5l-25.8-33.8 16.4-21.5 17.5 23.1v32.2h16.1V35.9L182.3.4zM208 0c-18.9 0-34.3 15.4-34.3 34.3s15.4 34.3 34.3 34.3 34.3-15.4 34.3-34.3S226.9 0 208 0zm0 54.1c-10.9 0-19.9-8.9-19.9-19.9 0-10.9 8.9-19.9 19.9-19.9 10.9 0 19.9 8.9 19.9 19.9-.1 11-9 19.9-19.9 19.9z"/><circle fill="none" cx="34.4" cy="34.3" r="20"/></symbol><symbol id="icon-menu" viewBox="0 0 67.4 67.4"><path fill="#FFF" stroke="#FFF" stroke-width="2" stroke-miterlimit="10" d="M57.5 1h8.9v8.9h-8.9z"/><path class="hidden" fill="#FFF" stroke="#FFF" stroke-width="2" stroke-miterlimit="10" d="M29.3 1h8.9v8.9h-8.9z"/><path fill="#FFF" stroke="#FFF" stroke-width="2" stroke-miterlimit="10" d="M1 1h8.9v8.9H1z"/><path class="hidden" fill="#FFF" stroke="#FFF" stroke-width="2" stroke-miterlimit="10" d="M57.5 29.2h8.9v8.9h-8.9z"/><path fill="#FFF" stroke="#FFF" stroke-width="2" stroke-miterlimit="10" d="M29.3 29.2h8.9v8.9h-8.9z"/><path class="hidden" fill="#FFF" stroke="#FFF" stroke-width="2" stroke-miterlimit="10" d="M1 29.2h8.9v8.9H1zM57.5 57.5h8.9v8.9h-8.9zM29.3 57.5h8.9v8.9h-8.9zM1 57.5h8.9v8.9H1z"/></symbol><symbol id="icon-spades" viewBox="0 0 91.1 93.9"><path stroke="#FFF" stroke-width="7" stroke-miterlimit="10" d="M45.5 4.1C4.9 30-1.6 51.2 6.5 66.9c6.3 12.3 28.4 16.3 39-.2 10.6 16.5 32.7 12.5 39 .2 8.1-15.7 1.7-36.9-39-62.8z"/><path stroke="#FFF" stroke-width="7" stroke-miterlimit="10" d="M43.6 69.5c-3.5 5.9-9.8 13.7-13.6 17.7 4.6 2 9.9 3.1 15.6 3.1 5.6 0 11-1.1 15.6-3.1-3.8-4-10-11.8-13.6-17.6"/></symbol></svg>