<svg xmlns="http://www.w3.org/2000/svg" style="display:none"><symbol id="icon-hand" viewBox="0 0 259.2 332.3"><path fill="none" stroke="#FFF" stroke-width="18" stroke-linecap="round" stroke-miterlimit="10" d="M230.5 75.1c-11 0-19.9 8.9-19.9 19.9V60c0-11-8.9-19.9-19.9-19.9S170.8 49 170.8 60V28.9c0-11-8.9-19.9-19.9-19.9S131 17.9 131 28.9V69c0-11-8.9-19.9-19.9-19.9S91.2 58 91.2 69v146.6l-45.6-40.2c-9.1-8.1-23.1-7.2-31.1 2-8.1 9.1-7.2 23.1 2 31.1l83.2 77.8c6.5 6 11.6 11 17.6 16.4 7.1 6.5 15.4 11.7 24.5 15.2 1.4.7 2.9 1.2 4.5 1.6 7.7 2.5 15.9 3.8 24.4 3.8 43.9 0 79.5-35.6 79.5-79.5V95c.2-11-8.7-19.9-19.7-19.9zM131.1 68.9v92M170.9 59.9v107M210.6 95v77.9"/><circle fill="#FFF" cx="169.9" cy="240" r="12"/><circle fill="none" stroke="#FFF" stroke-width="18" stroke-linecap="round" stroke-miterlimit="10" cx="169.9" cy="240" r="37.2"/></symbol><symbol id="icon-menu" viewBox="0 0 67.4 67.4"><path fill="#FFF" stroke="#FFF" stroke-width="2" stroke-miterlimit="10" d="M57.5 1h8.9v8.9h-8.9zM29.3 1h8.9v8.9h-8.9zM1 1h8.9v8.9H1zM57.5 29.2h8.9v8.9h-8.9zM29.3 29.2h8.9v8.9h-8.9zM1 29.2h8.9v8.9H1zM57.5 57.5h8.9v8.9h-8.9zM29.3 57.5h8.9v8.9h-8.9zM1 57.5h8.9v8.9H1z"/></symbol></svg>