<?xml version="1.0" encoding="utf-8"?>
<!-- Generator: Adobe Illustrator 20.1.0, SVG Export Plug-In . SVG Version: 6.00 Build 0)  -->
<svg version="1.1" id="Слой_1" xmlns="http://www.w3.org/2000/svg" xmlns:xlink="http://www.w3.org/1999/xlink" x="0px" y="0px"
	 width="127.1px" height="104.8px" viewBox="0 0 127.1 104.8" enable-background="new 0 0 127.1 104.8" xml:space="preserve">
<g>
	<path fill="none" stroke="#FF0000" stroke-width="11" stroke-miterlimit="10" d="M6.8,47.2c9.9,17.4,28.9,36.2,56.7,36.2
		c29.4,0,46.6-18.9,56.7-36.2c-12.4-13.1-26.2-25.8-36.4-25.8c-10.2,0-15,6.8-20.4,6.8c-5.8,0-10.2-6.8-20.4-6.8
		C33,21.4,19.3,34.1,6.8,47.2z"/>
	<path fill="none" stroke="#FF0000" stroke-width="11" stroke-miterlimit="10" d="M6.8,47.2c12.4,3.6,28.9,7.6,56.7,7.6
		c29.4,0,44.3-4,56.7-7.6"/>
</g>
<line fill="none" stroke="#FFFFFF" stroke-width="11" stroke-miterlimit="10" x1="15" y1="3.9" x2="112.1" y2="100.9"/>
<line fill="none" stroke="#FFFFFF" stroke-width="11" stroke-miterlimit="10" x1="112.1" y1="3.9" x2="15" y2="100.9"/>
</svg>
