<?xml version="1.0" encoding="utf-8"?>
<svg version="1.1" id="Layer_1" xmlns="http://www.w3.org/2000/svg" xmlns:xlink="http://www.w3.org/1999/xlink" x="0px" y="0px"
	 width="270.1464px" height="322.9043px" viewBox="-823.748 140.5957 270.1464 322.9043"
	 enable-background="new -823.748 140.5957 270.1464 322.9043" xml:space="preserve">
<path fill="none" stroke="#FFF" stroke-width="18" stroke-linecap="round" stroke-miterlimit="10" d="M-562.6016,275.6689
	c0,69.629-73.5732,178.8311-126.0732,178.8311c-51.5,0-126.0732-109.2021-126.0732-178.8311
	c0-69.6284,56.4453-126.0732,126.0732-126.0732C-619.0459,149.5957-562.6016,206.0405-562.6016,275.6689z"/>
<g>
	<path fill="none" stroke="#FFF" stroke-width="18" stroke-linecap="round" stroke-miterlimit="10" d="M-663.5244,266.4023
		c14.3174-14.3173,51.9033-21.6445,62.6992-10.8486c10.5898,10.5899,3.4688,48.3809-10.8486,62.6992
		c-14.3184,14.3174-37.5332,14.3174-51.8506,0C-677.8428,303.9346-677.8428,280.7207-663.5244,266.4023z"/>
	<path fill="none" stroke="#FFF" stroke-width="18" stroke-linecap="round" stroke-miterlimit="10" d="M-713.8252,266.4053
		c-14.3174-14.3174-51.9033-21.6446-62.6992-10.8487c-10.5898,10.5899-3.4688,48.3809,10.8486,62.6993
		c14.3184,14.3173,37.5332,14.3173,51.8506,0C-699.5068,303.9375-699.5068,280.7236-713.8252,266.4053z"/>
</g>
<line fill="none" stroke="#FFF" stroke-width="18" stroke-miterlimit="10" x1="-720.5" y1="388.5" x2="-654.5" y2="388.5"/>
</svg>
