<?xml version="1.0" encoding="utf-8"?>
<!-- Generator: Adobe Illustrator 20.1.0, SVG Export Plug-In . SVG Version: 6.00 Build 0)  -->
<svg version="1.1" id="Слой_1" xmlns="http://www.w3.org/2000/svg" xmlns:xlink="http://www.w3.org/1999/xlink" x="0px" y="0px"
	 viewBox="0 0 91.1 93.9" enable-background="new 0 0 91.1 93.9" xml:space="preserve">
<path fill="none" stroke="#FFFFFF" stroke-width="7" stroke-miterlimit="10" d="M45.5,4.1C4.9,30-1.6,51.2,6.5,66.9
	c6.3,12.3,28.4,16.3,39-0.2c10.6,16.5,32.7,12.5,39,0.2C92.6,51.2,86.2,30,45.5,4.1z"/>
<path fill="none" stroke="#FFFFFF" stroke-width="7" stroke-miterlimit="10" d="M43.6,69.5c-3.5,5.9-9.8,13.7-13.6,17.7
	c4.6,2,9.9,3.1,15.6,3.1c0,0,0,0,0,0s0,0,0,0c5.6,0,11-1.1,15.6-3.1c-3.8-4-10-11.8-13.6-17.6"/>
</svg>
