<?xml version="1.0" encoding="utf-8"?>
<!-- Generator: Adobe Illustrator 20.1.0, SVG Export Plug-In . SVG Version: 6.00 Build 0)  -->
<svg version="1.1" id="Layer_1" xmlns="http://www.w3.org/2000/svg" xmlns:xlink="http://www.w3.org/1999/xlink" x="0px" y="0px"
	 viewBox="0 0 259.2 332.3" enable-background="new 0 0 259.2 332.3" xml:space="preserve">
<path fill="none" stroke="#FFFFFF" stroke-width="18" stroke-linecap="round" stroke-miterlimit="10" d="M230.5,75.1
	c-11,0-19.9,8.9-19.9,19.9V60c0-11-8.9-19.9-19.9-19.9S170.8,49,170.8,60V28.9c0-11-8.9-19.9-19.9-19.9S131,17.9,131,28.9V69
	c0-11-8.9-19.9-19.9-19.9S91.2,58,91.2,69v123.2c0,0.1,0,0.2,0,0.2v23.2l-45.6-40.2c-9.1-8.1-23.1-7.2-31.1,2
	c-8.1,9.1-7.2,23.1,2,31.1l83.2,77.8c6.5,6,11.6,11,17.6,16.4c7.1,6.5,15.4,11.7,24.5,15.2c1.4,0.7,2.9,1.2,4.5,1.6
	c7.7,2.5,15.9,3.8,24.4,3.8c43.9,0,79.5-35.6,79.5-79.5V95C250.4,84,241.5,75.1,230.5,75.1z"/>
<line fill="none" stroke="#FFFFFF" stroke-width="18" stroke-linecap="round" stroke-miterlimit="10" x1="131.1" y1="68.9" x2="131.1" y2="160.9"/>
<line fill="none" stroke="#FFFFFF" stroke-width="18" stroke-linecap="round" stroke-miterlimit="10" x1="170.9" y1="59.9" x2="170.9" y2="166.9"/>
<line fill="none" stroke="#FFFFFF" stroke-width="18" stroke-linecap="round" stroke-miterlimit="10" x1="210.6" y1="95" x2="210.6" y2="172.9"/>
<circle fill="#FFFFFF" cx="169.9" cy="240" r="12"/>
<circle fill="none" stroke="#FFFFFF" stroke-width="18" stroke-linecap="round" stroke-miterlimit="10" cx="169.9" cy="240" r="37.2"/>
</svg>
