<?xml version="1.0" encoding="utf-8"?>
<!-- Generator: Adobe Illustrator 20.1.0, SVG Export Plug-In . SVG Version: 6.00 Build 0)  -->
<svg version="1.1" id="Layer_1" xmlns="http://www.w3.org/2000/svg" xmlns:xlink="http://www.w3.org/1999/xlink" x="0px" y="0px"
	 width="512px" height="512px" viewBox="0 0 512 512" enable-background="new 0 0 512 512" xml:space="preserve">
<g>
	<g>
		<g>
			<path fill="#E02424" d="M-688.7,463.5c-26.9,0-60.4-25.1-89.7-67.2c-28-40.1-45.3-86.4-45.3-120.7c0-74.5,60.6-135.1,135.1-135.1
				s135.1,60.6,135.1,135.1c0,34.4-17.2,80.7-45,120.7c-13.3,19.2-28.1,35.5-42.7,47.1C-658.1,456.7-674,463.5-688.7,463.5z
				 M-688.7,158.6c-64.6,0-117.1,52.5-117.1,117.1c0,30.8,16.1,73.1,42.1,110.4c25.2,36.1,54.6,59.4,75,59.4
				c21.1,0,49.9-22.8,75.3-59.4c25.8-37.1,41.7-79.5,41.7-110.4C-571.6,211.1-624.1,158.6-688.7,158.6z"/>
		</g>
	</g>
	<g>
		<g>
			<g>
				<path fill="#E02424" d="M-637.6,338c-11.7,0-23.4-4.5-32.3-13.4c-17.8-17.8-17.8-46.8,0-64.6c8.1-8.1,22.1-14.5,37.4-17.3
					c24.1-4.4,34.6,3.1,38,6.5c15,15,6.2,58.4-10.8,75.4C-614.2,333.5-625.9,338-637.6,338z M-618.1,259.3
					c-12.1,0-30.4,4.7-39.1,13.4c-10.8,10.8-10.8,28.3,0,39.1s28.3,10.8,39.1,0c5.4-5.4,10.2-16.4,12.3-28c2.2-12,0.5-20.1-1.4-22
					C-608.9,260.2-612.9,259.3-618.1,259.3z"/>
			</g>
		</g>
		<g>
			<g>
				<path fill="#E02424" d="M-739.8,338c-11.7,0-23.4-4.5-32.3-13.4c-17-17-25.8-60.5-10.8-75.4c3.4-3.4,13.9-10.8,38-6.5
					c15.4,2.8,29.4,9.3,37.4,17.3c17.8,17.8,17.8,46.8,0,64.6C-716.4,333.5-728.1,338-739.8,338z M-759.3,259.3
					c-5.1,0-9.1,0.8-10.9,2.6c-1.9,1.9-3.6,10-1.4,22c2.1,11.6,6.9,22.6,12.3,28c10.8,10.8,28.3,10.8,39.1,0
					c10.8-10.8,10.8-28.3,0-39.1C-728.9,264-747.2,259.3-759.3,259.3z"/>
			</g>
		</g>
	</g>
	<g>
		<g>
			<rect x="-720.5" y="379.5" fill="#E02424" width="66" height="18"/>
		</g>
	</g>
</g>
</svg>
