<?xml version="1.0" encoding="utf-8"?>
<!-- Generator: Adobe Illustrator 20.1.0, SVG Export Plug-In . SVG Version: 6.00 Build 0)  -->
<svg version="1.1" id="Layer_1" xmlns="http://www.w3.org/2000/svg" xmlns:xlink="http://www.w3.org/1999/xlink" x="0px" y="0px"
	 viewBox="0 0 259.2 332.3" enable-background="new 0 0 259.2 332.3" xml:space="preserve">
<path fill="none" stroke="#FFFFFF" stroke-width="18" stroke-linecap="round" stroke-miterlimit="10" d="M9,95v148.8
	c0,43.9,35.6,79.5,79.5,79.5c8.5,0,16.7-1.3,24.4-3.8c1.6-0.4,3.1-0.9,4.5-1.6c9.1-3.5,17.4-8.7,24.5-15.2
	c6-5.4,11.1-10.4,17.6-16.4l83.2-77.8c9.2-8,10.1-22,2-31.1c-8-9.2-22-10.1-31.1-2L168,215.6v-23.2c0,0,0-0.1,0-0.2V69
	c0-11-8.9-19.9-19.9-19.9S128.2,58,128.2,69V28.9c0-11-8.9-19.9-19.9-19.9s-19.9,8.9-19.9,19.9V60c0-11-8.9-19.9-19.9-19.9
	S48.6,49,48.6,60v35c0-11-8.9-19.9-19.9-19.9S8.8,84,9,95z"/>
<line fill="none" stroke="#FFFFFF" stroke-width="18" stroke-linecap="round" stroke-miterlimit="10" x1="128.1" y1="160.9" x2="128.1" y2="68.9"/>
<line fill="none" stroke="#FFFFFF" stroke-width="18" stroke-linecap="round" stroke-miterlimit="10" x1="88.3" y1="166.9" x2="88.3" y2="59.9"/>
<line fill="none" stroke="#FFFFFF" stroke-width="18" stroke-linecap="round" stroke-miterlimit="10" x1="48.6" y1="172.9" x2="48.6" y2="95"/>
<circle fill="#FFFFFF" cx="89.3" cy="240" r="12"/>
<circle fill="none" stroke="#FFFFFF" stroke-width="18" stroke-linecap="round" stroke-miterlimit="10" cx="89.3" cy="240" r="37.2"/>
</svg>
