<?xml version="1.0" encoding="utf-8"?>
<!-- Generator: Adobe Illustrator 20.1.0, SVG Export Plug-In . SVG Version: 6.00 Build 0)  -->
<svg version="1.1" id="Layer_1" xmlns="http://www.w3.org/2000/svg" xmlns:xlink="http://www.w3.org/1999/xlink" x="0px" y="0px"
	 width="409.4px" height="83.5px" viewBox="0 0 409.4 83.5" enable-background="new 0 0 409.4 83.5" xml:space="preserve">
<g>
	<path fill="#FFFFFF" d="M368.6,33.1c-13.9-1.4-20.3-3.7-20.3-8.2c0-6.5,12.3-9.3,19.2-9.3c10.3,0,21.9,4.3,29.3,10.3l8.8-13.3
		C394.7,4.2,383.1,0,369.1,0c-20.6,0-36.6,9.4-36.6,25c0,9.1,5.1,21.1,35,24c20.6,1.9,26.1,4.7,26.1,9c0,4.5-7.9,9.9-23.3,9.9
		c-14.1,0-25.9-5.9-33.3-11.8l-8.8,13.3c7.7,6.4,24.2,14.2,40.5,14.2c22.3,0,40.7-9,40.7-25.6C409.4,38.4,387.4,35,368.6,33.1z"/>
	<g>
		<path fill="#FFFFFF" d="M150.6,83.4c-11.2,0-20.9-3-28.2-8.6c-4-3.1-7.2-7-9.4-11.4c-2.3-4.7-3.4-9.8-3.4-15.5l0-47.1l15.9,0v47.1
			c0,6.1,2.2,11,6.6,14.3c4.4,3.4,11,5.3,18.5,5.3c7.5,0,14.1-1.9,18.5-5.3c4.4-3.4,6.6-8.2,6.6-14.3V0.8h15.8v47.1
			c0,5.6-1.1,10.8-3.4,15.5c-2.2,4.5-5.3,8.3-9.4,11.4C171.5,80.4,161.8,83.4,150.6,83.4z"/>
	</g>
	<polygon fill="#FFFFFF" points="289,82.7 308,82.7 281,41.8 308.1,0.8 289.1,0.8 267.3,33.9 242.1,33.9 242.1,0.8 226.3,0.8
		226.3,82.7 242.1,82.7 242.1,49.7 267.3,49.7 	"/>
	<polygon fill="#FFFFFF" points="62.7,82.7 81.7,82.7 54.7,41.8 81.8,0.8 62.8,0.8 41,33.9 15.9,33.9 15.9,0.8 0,0.8 0,82.7
		15.9,82.7 15.9,49.7 41,49.7 	"/>
</g>
</svg>
