<?xml version="1.0" encoding="utf-8"?>
<!-- Generator: Adobe Illustrator 20.1.0, SVG Export Plug-In . SVG Version: 6.00 Build 0)  -->
<svg version="1.1" id="Слой_1" xmlns="http://www.w3.org/2000/svg" xmlns:xlink="http://www.w3.org/1999/xlink" x="0px" y="0px"
	 viewBox="0 0 110.7 105.6" enable-background="new 0 0 110.7 105.6" xml:space="preserve">
<polyline fill="none" stroke="#FFFFFF" stroke-width="3" stroke-linejoin="round" stroke-miterlimit="10" points="46.1,30.3 
	55.4,1.5 68.1,40.7 "/>
<circle fill="none" stroke="#FFFFFF" stroke-width="3" stroke-linejoin="round" stroke-miterlimit="10" cx="45.2" cy="32.8" r="2.7"/>
<circle fill="none" stroke="#FFFFFF" stroke-width="3" stroke-linejoin="round" stroke-miterlimit="10" cx="106.5" cy="40.7" r="2.7"/>
<polyline fill="none" stroke="#FFFFFF" stroke-width="3" stroke-linejoin="round" stroke-miterlimit="10" points="102.2,45.8 
	75.9,64.9 82.4,84.6 "/>
<circle fill="none" stroke="#FFFFFF" stroke-width="3" stroke-linejoin="round" stroke-miterlimit="10" cx="83.2" cy="87.3" r="2.7"/>
<polyline fill="none" stroke="#FFFFFF" stroke-width="3" stroke-linejoin="round" stroke-miterlimit="10" points="85.4,93.7 
	88.7,104.1 58.1,81.7 "/>
<circle fill="none" stroke="#FFFFFF" stroke-width="3" stroke-linejoin="round" stroke-miterlimit="10" cx="55.4" cy="79.7" r="2.7"/>
<circle fill="none" stroke="#FFFFFF" stroke-width="3" stroke-linejoin="round" stroke-miterlimit="10" cx="29.2" cy="82.4" r="2.7"/>
<circle fill="none" stroke="#FFFFFF" stroke-width="3" stroke-linejoin="round" stroke-miterlimit="10" cx="38.8" cy="52.8" r="2.7"/>
<polyline fill="none" stroke="#FFFFFF" stroke-width="3" stroke-linejoin="round" stroke-miterlimit="10" points="50.6,83.2 
	22.1,104.1 28.3,84.9 "/>
<polyline fill="none" stroke="#FFFFFF" stroke-width="3" stroke-linejoin="round" stroke-miterlimit="10" points="39.6,50.1 
	42.7,40.7 103.8,40.7 "/>
<polyline fill="none" stroke="#FFFFFF" stroke-width="3" stroke-linejoin="round" stroke-miterlimit="10" points="31.1,76.4 
	32.9,70.9 40.2,68.8 50.6,76.4 "/>
<polyline fill="none" stroke="#FFFFFF" stroke-width="3" stroke-linejoin="round" stroke-miterlimit="10" points="37.9,55.3 
	34.7,65.2 1.5,40.7 35.8,40.7 33.4,47.9 26.6,47.9 "/>
<circle fill="none" stroke="#FFFFFF" stroke-width="3" stroke-linejoin="round" stroke-miterlimit="10" cx="23.9" cy="47.7" r="2.7"/>
<circle fill="none" stroke="#FFFFFF" stroke-width="3" stroke-linejoin="round" stroke-miterlimit="10" cx="55.4" cy="25.4" r="2.7"/>
<line fill="none" stroke="#FFFFFF" stroke-width="3" stroke-linejoin="round" stroke-miterlimit="10" x1="56.2" y1="28" x2="60.4" y2="40.7"/>
<line fill="none" stroke="#FFFFFF" stroke-width="3" stroke-linejoin="round" stroke-miterlimit="10" x1="53.4" y1="31.7" x2="50.5" y2="40.7"/>
<circle fill="none" stroke="#FFFFFF" stroke-width="3" stroke-linejoin="round" stroke-miterlimit="10" cx="70.8" cy="47.9" r="2.7"/>
<polyline fill="none" stroke="#FFFFFF" stroke-width="3" stroke-linejoin="round" stroke-miterlimit="10" points="74.5,84.2 
	67.2,61.7 86.3,47.9 73.5,47.9 "/>
<circle fill="none" stroke="#FFFFFF" stroke-width="3" stroke-linejoin="round" stroke-miterlimit="10" cx="49.7" cy="66" r="2.7"/>
<line fill="none" stroke="#FFFFFF" stroke-width="3" stroke-linejoin="round" stroke-miterlimit="10" x1="69.6" y1="80.6" x2="51.9" y2="67.8"/>
<polyline fill="none" stroke="#FFFFFF" stroke-width="3" stroke-linejoin="round" stroke-miterlimit="10" points="59.8,56.4 
	62.7,47.7 48.2,47.7 43.6,61.7 "/>
<circle fill="none" stroke="#FFFFFF" stroke-width="3" stroke-linejoin="round" stroke-miterlimit="10" cx="57.1" cy="56.4" r="2.7"/>
</svg>
