<?xml version="1.0" encoding="utf-8"?>
<!-- Generator: Adobe Illustrator 20.1.0, SVG Export Plug-In . SVG Version: 6.00 Build 0)  -->
<svg version="1.1" id="Режим_изоляции"
	 xmlns="http://www.w3.org/2000/svg" xmlns:xlink="http://www.w3.org/1999/xlink" x="0px" y="0px" viewBox="0 0 183 183"
	 enable-background="new 0 0 183 183" xml:space="preserve">
<path fill="#FFFFFF" d="M183,74.9c0-11.5-7.8-21.2-18.4-24.1c3.5-9,1.7-19.6-5.6-26.8c-7.2-7.2-17.8-9.1-26.8-5.6
	C129.3,7.8,119.6,0,108.1,0c-6.4,0-12.2,2.4-16.6,6.3C87.1,2.4,81.3,0,74.9,0C63.4,0,53.7,7.8,50.8,18.4c-9-3.5-19.6-1.7-26.8,5.6
	c-7.3,7.3-9.1,17.9-5.6,26.8C7.8,53.7,0,63.4,0,74.9c0,6.4,2.4,12.2,6.3,16.6C2.4,95.9,0,101.7,0,108.1c0,11.5,7.8,21.2,18.4,24.1
	c-3.5,9-1.7,19.6,5.6,26.8c7.2,7.2,17.8,9.1,26.8,5.6c2.9,10.6,12.6,18.4,24.1,18.4c6.4,0,12.2-2.4,16.6-6.4
	c4.4,4,10.2,6.4,16.6,6.4c11.5,0,21.2-7.8,24.1-18.4c9,3.5,19.6,1.7,26.8-5.6c7.3-7.2,9.1-17.8,5.6-26.8
	c10.6-2.9,18.4-12.6,18.4-24.1c0-6.4-2.4-12.2-6.4-16.6C180.6,87.1,183,81.3,183,74.9z M83.2,158c0,4.6-3.7,8.3-8.3,8.3
	c-4.6,0-8.3-3.7-8.3-8.3v-29.8l-19.1,19c-3.2,3.2-8.5,3.2-11.8,0c-3.2-3.2-3.2-8.5,0-11.8l19-19H25c-4.6,0-8.3-3.7-8.3-8.3
	c0-4.6,3.7-8.3,8.3-8.3h58.2V158z M83.2,83.2H25c-4.6,0-8.3-3.7-8.3-8.3c0-4.6,3.7-8.3,8.3-8.3h29.8L35.7,47.5
	c-3.2-3.2-3.2-8.5,0-11.8c3.2-3.2,8.5-3.2,11.8,0l19.1,19.1V25c0-4.6,3.7-8.3,8.3-8.3c4.6,0,8.3,3.7,8.3,8.3V83.2z M158,116.5h-29.8
	l19,19c3.2,3.2,3.2,8.5,0,11.8c-3.2,3.2-8.5,3.2-11.8,0l-19-19V158c0,4.6-3.7,8.3-8.3,8.3c-4.6,0-8.3-3.7-8.3-8.3V99.8H158
	c4.6,0,8.3,3.7,8.3,8.3C166.3,112.7,162.6,116.5,158,116.5z M158,83.2H99.8V25c0-4.6,3.7-8.3,8.3-8.3c4.6,0,8.3,3.7,8.3,8.3v29.8
	l19-19c3.2-3.2,8.5-3.2,11.8,0c3.2,3.2,3.2,8.5,0,11.8l-19.1,19.1H158c4.6,0,8.3,3.7,8.3,8.3C166.3,79.5,162.6,83.2,158,83.2z"/>
</svg>
