<?xml version="1.0" encoding="utf-8"?>
<!-- Generator: Adobe Illustrator 20.1.0, SVG Export Plug-In . SVG Version: 6.00 Build 0)  -->
<svg version="1.1" id="Режим_изоляции"
	 xmlns="http://www.w3.org/2000/svg" xmlns:xlink="http://www.w3.org/1999/xlink" x="0px" y="0px" viewBox="0 0 103.5 90.6"
	 enable-background="new 0 0 103.5 90.6" xml:space="preserve">
<g>
	<g>
		<g>
			<path fill="#FFFFFF" d="M51.7,63.8c-10.2,0-18.6-8.3-18.6-18.6c0-10.2,8.3-18.6,18.6-18.6c10.2,0,18.6,8.3,18.6,18.6
				C70.3,55.5,62,63.8,51.7,63.8z M51.7,35c-5.7,0-10.2,4.6-10.2,10.3c0,5.7,4.6,10.3,10.2,10.3c5.7,0,10.3-4.6,10.3-10.3
				C62,39.6,57.4,35,51.7,35z"/>
		</g>
	</g>
	<g>
		<path fill="#FFFFFF" d="M71.4,13.2h-7.5l7.3-7.4L65.4,0L43.8,21.6h27.6c13.1,0,23.7,10.6,23.7,23.7C95.2,58.4,84.5,69,71.4,69
			h-5.9l-8.2,8.3h14c17.7,0,32-14.4,32-32C103.5,27.6,89.1,13.2,71.4,13.2z"/>
		<path fill="#FFFFFF" d="M32,77.3h7.5l-7.4,7.4l5.9,5.9L59.7,69H32C19,69,8.3,58.4,8.3,45.3C8.3,32.2,19,21.6,32,21.6h5.9l8.2-8.3
			H32c-17.7,0-32,14.4-32,32.1C0,63,14.4,77.3,32,77.3z"/>
	</g>
</g>
</svg>
