<?xml version="1.0" encoding="utf-8"?>
<!-- Generator: Adobe Illustrator 20.1.0, SVG Export Plug-In . SVG Version: 6.00 Build 0)  -->
<svg version="1.1" id="Слой_1" xmlns="http://www.w3.org/2000/svg" xmlns:xlink="http://www.w3.org/1999/xlink" x="0px" y="0px"
	 viewBox="0 0 28.2 26" enable-background="new 0 0 28.2 26" xml:space="preserve">
<path fill="#FFFFFF" d="M27.6,16.6c-0.7-0.1-1.3,0.1-2,0.5c-1.1,0.7-1.9,1.6-2.6,2.4c-0.2,0.2-0.6,0.7-1.1,0.9c0,0-0.2,0.1-0.4,0.1
	c-0.1,0-0.2,0-0.2-0.1c-0.1-0.1,0.1-0.3,0.3-0.7c0.3-0.3,0.6-0.5,0.9-0.7c0.3-0.2,0.5-0.4,0.8-0.6c0.4-0.5,0.6-1.2,0.5-1.9
	c-0.2-1-1-2.1-2.3-2.1c-0.1,0-0.2,0-0.3,0c0,0-0.1,0-0.2,0c-0.2,0-0.4,0.1-0.5,0c-0.4-0.1-0.6-0.8-0.7-1l0-0.1l0.1,0
	c0.1,0,0.2,0.1,0.3,0.1c0.3,0.2,0.6,0.3,0.9,0.3c0.1,0,0.2,0,0.3,0c0.4-0.1,0.8-0.5,1.1-0.9c0.1-0.1,0.1-0.1,0.2-0.2
	c0.1-0.1,0.1-0.1,0.2-0.2c0.3-0.4,0.7-0.9,1.1-1c0.1,0,0.2,0,0.4,0c0.1,0,0.3,0,0.4,0c0.3,0,0.4,0,0.5-0.1c0.2-0.2,0.1-0.6-0.1-0.8
	c-0.2-0.2-0.5-0.3-0.8-0.3c-0.1,0-0.3,0-0.4,0.1c-0.7,0.2-1.4,0.8-1.9,1.3l-0.2,0.2c-0.2,0.2-0.5,0.4-0.7,0.4
	c-0.7,0.1-1.3-0.9-1.6-1.4c-0.2-0.3-0.3-0.8-0.3-1.1c0-0.1,0-0.2,0-0.3c0-0.2,0-0.4,0-0.6c0-0.1,0-0.2-0.1-0.3
	c-0.1-0.2-0.1-0.4-0.1-0.5c0-0.2,0.1-0.4,0.3-0.4c0.1,0,0.3,0.1,0.5,0.1C20,7.9,20.1,8,20.3,8c0,0,0.1,0,0.1,0c0.1,0,0.2,0,0.3,0
	c0.1,0,0.2,0,0.3,0l0,0C21,8,21.1,8,21.2,8c0.1,0,0.1,0,0.2,0c0,0,0,0,0,0c0-0.1-0.1-0.2-0.2-0.3c-0.1-0.1-0.2-0.2-0.2-0.3
	c0,0,0,0,0-0.1c0,0,0,0,0.1,0c0.1,0,0.2,0,0.2,0.1c0,0,0,0,0,0c0.2,0.1,0.4,0.1,0.6,0.1c0.5,0,0.9-0.2,1.1-0.5
	c0.1-0.1,0.2-0.4,0.2-0.6c0-0.1-0.2-0.2-0.3-0.3c-0.1,0-0.2-0.1-0.2-0.1c-0.3-0.2-0.5-0.6-0.7-0.9c-0.3-0.5-0.6-0.9-1.1-1.1
	c-0.2-0.1-0.3-0.1-0.7-0.2l0,0c-0.7-0.1-0.7-0.1-0.7-0.2c0-0.1,0-0.1,0.2-0.3l0,0c0.3-0.3,1.2-1.2,1.3-2.4c0-0.3,0-0.6-0.2-0.8
	C20.5,0,20.2,0,19.9,0c-1.1,0.1-1.3,1.8-1.3,2.4c0,0.2,0,0.4,0,0.6c0,0.3,0,0.5,0,0.7c0,0.1-0.1,0.3-0.3,0.3c-0.1,0-0.2-0.2-0.4-0.5
	c0-0.1-0.1-0.2-0.1-0.2l0,0c-0.4-0.7-1-1.5-1.7-1.8c-0.2-0.1-0.4-0.1-0.5-0.1c-0.2,0-0.6,0-0.7,0.5c-0.1,0.4,0.2,0.8,0.3,1l0,0
	c0.4,0.6,1,1,1.6,1.4c0,0,0.1,0.1,0.2,0.1c0.2,0.1,0.4,0.2,0.5,0.4c0.1,0.2,0,0.4-0.1,0.6c0,0.1,0,0.2,0,0.2l0,0.1
	c0,0.3-0.1,0.5-0.1,0.8c0,0.3,0,0.7,0.1,1c0,0.3,0.1,0.6,0,0.9c-0.1,0.5-0.4,1.1-0.7,1.2c-0.2,0.1-0.4,0.2-0.6,0.2
	c-0.1,0-0.2,0.1-0.3,0.1c-0.4,0.1-0.8,0.2-1,0.3c-0.1,0-0.2,0-0.3,0c-0.3,0-0.4,0.1-0.6,0.2c-0.3,0.2-0.3,0.6-0.4,1.1
	c0,0.3-0.1,0.6-0.2,0.8c-0.2,0.3-0.6,0.6-0.9,0.6c-0.1,0-0.2,0-0.4,0c-0.3,0-0.6,0-0.6,0.2c-0.1,0.3,0.2,0.7,0.4,0.8
	c0.2,0.1,0.5,0.2,0.8,0.2c0.4,0,0.8-0.1,1-0.3c0.2-0.2,0.4-0.5,0.7-0.9c0.1-0.1,0.1-0.2,0.2-0.4c0.2-0.4,0.4-0.8,0.8-0.9
	c0.4-0.1,1,0,1.1,0.3c0,0.2-0.2,0.5-0.3,0.7l0,0.1c-0.9,1.6-2.5,2.6-4.7,3c-0.3,0.1-0.7,0.1-1.1,0.1c-1.1,0-2.3-0.2-2.9-0.4
	c-1.4-0.3-2.3-0.8-3-1.4c-0.9-0.8-1.4-1.7-1.8-2.6C1.7,10.3,1.1,8.4,1.3,6c0.2-1.5,0.9-2.4,1.5-3.4C3,2.5,3,2.4,3.1,2.3
	c0,0,0-0.1,0.1-0.1C3.3,2,3.5,1.7,3.5,1.6c0-0.1-0.1-0.3-0.2-0.4c-0.1,0-0.1,0-0.2,0c-0.4,0-0.8,0.4-1,0.7C1.8,2.1,1.5,2.5,1.3,2.9
	c-0.5,0.9-0.9,1.9-1,2.8c-0.4,1.8-0.3,4,0.2,5.9c0.5,1.6,1.2,3,2.4,4.3c1.1,1.2,2.4,2.2,3.9,2.8c1.5,0.6,3.3,1,4.8,1.1
	c0,0,0.1,0,0.1,0l0.2,0c0.2,0,0.4,0,0.5,0.1c0.5,0.3,0,1.1-0.2,1.4c0,0,0,0,0,0.1c-0.1,0.1-0.1,0.2-0.2,0.3c-0.2,0.3-0.5,0.7-0.5,1
	c0,0.3,0,0.5,0.2,0.7c0.2,0.3,0.8,0.5,1.5,0.6c1.5,0.2,3.1,0.4,4.4,1c0.2,0.1,0.4,0.2,0.6,0.3c0.4,0.3,0.8,0.5,1.3,0.5
	c0,0,0.1,0,0.1,0c0.3,0,0.5-0.1,0.6-0.3c0.2-0.4-0.2-1-0.3-1.2c-0.6-0.6-1.6-1-2.7-1.1c-0.1,0-0.4,0-0.8-0.1c-0.4,0-0.8,0-1-0.1
	c-0.1,0-0.2,0-0.2,0c-0.7,0-1.5-0.1-1.4-0.8c0-0.5,0.7-0.7,1.2-0.8l0.1,0c0.6-0.1,1-0.2,1.5-0.3c0.5-0.1,1.5-0.4,1.9-0.7
	c0.9-0.8,1.3-1.6,1.5-2.1c0.1-0.3,0.2-0.5,0.4-0.5c0,0,0,0,0.1,0c0.2,0.1,0,0.7-0.4,1.7c-0.2,0.6-0.5,1.3-0.5,1.7
	c-0.1,0.6,0,1.2,0.5,1.3c0.2,0.1,0.4,0.1,0.6,0.1c0.8,0,1.3-0.5,1.8-1c0.2-0.3,0.5-0.5,0.7-0.8c0.1-0.1,0.2-0.2,0.3-0.3
	c0.7-0.7,1.4-1.5,2.2-1.9c0.3-0.1,0.7-0.3,1-0.4c0.5-0.2,1.1-0.4,1.4-0.6l0,0c0.2-0.1,0.4-0.3,0.4-0.6
	C28.3,16.7,27.8,16.6,27.6,16.6z M19.7,5c0.9-0.2,1,1.3,0.1,1.2C19.1,6.1,19,5.1,19.7,5z"/>
</svg>
