<?xml version="1.0" encoding="utf-8"?>
<!-- Generator: Adobe Illustrator 20.1.0, SVG Export Plug-In . SVG Version: 6.00 Build 0)  -->
<svg version="1.1" id="Режим_изоляции"
	 xmlns="http://www.w3.org/2000/svg" xmlns:xlink="http://www.w3.org/1999/xlink" x="0px" y="0px" viewBox="0 0 63.9 70.1"
	 enable-background="new 0 0 63.9 70.1" xml:space="preserve">
<path fill="#FFFFFF" d="M60.6,0H3.3H0v3.3V54v2.1L2,57l28.7,12.6l1.3,0.6l1.3-0.6L61.9,57l2-0.9V54V3.3V0H60.6z M31.9,66.6l-3.3-1.4
	l3.3-1.4l3.3,1.4L31.9,66.6z M39.3,63.3l-7.4-3.2l-7.4,3.2l-10.6-4.7l3.7-1.6l7.2,3.1l7.2-3.1l7.2,3.1l7.2-3.1l3.7,1.6L39.3,63.3z
	 M60.6,54L54,56.9l-7.8-3.4l-7.2,3.1l-7.2-3.1l-7.2,3.1l-7.2-3.1l-7.8,3.4L3.3,54v-3.4l7.2,3.1l7.2-3.1l7.2,3.1l7.2-3.1l7.2,3.1
	l7.2-3.1l7.2,3.1l7.2-3.1V54z M60.6,47l-0.7,0.3l-6.5,2.9L46.3,47l-7.2,3.1L31.9,47l-7.2,3.1L17.6,47l-7.2,3.1l-6.5-2.9L3.3,47v-2.9
	l7.2,3.1l7.2-3.1l7.2,3.1l7.2-3.1l7.2,3.1l7.2-3.1l7.2,3.1l7.2-3.1V47z M60.6,40.6l-0.7,0.3l-6.5,2.9l-7.2-3.1l-7.2,3.1l-7.2-3.1
	l-7.2,3.1l-7.2-3.1l-7.2,3.1l-6.5-2.9l-0.7-0.3v-2.9l7.2,3.1l7.2-3.1v2.9h14.3h14.3v-2.9l0,0l7.2,3.1l7.2-3.1V40.6z M20.9,37.3v-14
	l11-4.8L43,23.3v14H20.9z M60.6,34.1l-0.7,0.3l-6.5,2.9l-7.2-3.1l0,0v-13l-14.3-6.3l-14.3,6.3v13l-7.2,3.1l-6.5-2.9l-0.7-0.3V3.3
	h57.3V34.1z"/>
</svg>
