<?xml version="1.0" encoding="utf-8"?>
<!-- Generator: Adobe Illustrator 20.1.0, SVG Export Plug-In . SVG Version: 6.00 Build 0)  -->
<svg version="1.1" id="Режим_изоляции"
	 xmlns="http://www.w3.org/2000/svg" xmlns:xlink="http://www.w3.org/1999/xlink" x="0px" y="0px" viewBox="0 0 150.9 174.2"
	 enable-background="new 0 0 150.9 174.2" xml:space="preserve">
<g>
	<polygon fill="#FFFFFF" points="64,140.6 26.5,118.9 15.4,120.9 15.3,121 71.3,153.3 71.3,111.1 64,112.4 	"/>
	<polygon fill="#FFFFFF" points="103.8,83.1 128.2,69 128.2,112.3 135.5,121 135.6,121 135.6,56.3 99,77.4 	"/>
	<polygon fill="#FFFFFF" points="86.9,140.6 86.9,97.3 79.6,88.7 79.5,88.6 79.5,153.3 116.1,132.2 111.3,126.5 	"/>
	<polygon fill="#FFFFFF" points="71.3,96.1 15.3,106 15.3,113.4 71.3,103.6 	"/>
	<polygon fill="#FFFFFF" points="22.6,69 60.2,90.6 71.3,88.7 71.3,88.6 15.3,56.3 15.3,98.5 22.6,97.2 	"/>
	<polygon fill="#FFFFFF" points="79.3,71.1 75.4,81.7 75.4,81.8 131.5,49.5 94.9,28.4 92.3,35.4 116.8,49.5 	"/>
	<polygon fill="#FFFFFF" points="68.9,78.1 88.4,24.6 81.9,20.9 62.4,74.3 	"/>
	<polygon fill="#FFFFFF" points="19.4,49.5 56,70.6 58.5,63.6 34.1,49.5 71.6,27.8 75.4,17.2 75.4,17.1 	"/>
	<polygon fill="#FFFFFF" points="86,84.9 122.6,128.5 129.1,124.7 92.5,81.2 	"/>
	<path fill="#FFFFFF" d="M75.4,0L0,43.6l0,87.1l75.4,43.5l75.4-43.5V43.6L75.4,0z M143.5,126.4l-68.1,39.3L7.3,126.4l0-78.6
		L75.4,8.5l68.1,39.3V126.4z"/>
</g>
</svg>
